<svg width="1267" height="1053" viewBox="0 0 1267 1053" fill="none" xmlns="http://www.w3.org/2000/svg" xmlns:xlink="http://www.w3.org/1999/xlink">
<g id="desktop">
<g id="CARDINAL GIFT S OP">
<path d="M257.588 310.615C248.723 338.983 222.719 354.152 196.518 354.152C164.21 354.152 132.099 331.3 132.099 282.05C132.099 232.406 164.801 209.751 196.518 209.751C221.537 209.751 245.965 223.738 252.86 249.939L222.916 259.592C220.552 248.166 209.323 240.877 197.306 240.877C181.94 240.877 165.589 252.697 165.589 281.459C165.589 310.418 181.743 322.435 197.7 322.435C211.49 322.435 225.477 313.373 228.629 298.007L257.588 310.615Z" fill="#EEF0E4"/>
<path d="M368.891 351L358.253 323.223H306.245L295.607 351H259.556L317.868 212.706H346.827L404.942 351H368.891ZM317.474 293.87H347.024L332.249 255.061L317.474 293.87Z" fill="#EEF0E4"/>
<path d="M499.662 290.521L537.092 351H499.268L467.748 298.598H453.17V351H420.665V212.706H484.493C514.24 212.706 529.212 232.209 529.212 251.909C529.212 268.26 519.165 284.611 499.662 290.521ZM480.947 269.245C490.994 269.245 495.919 262.153 495.919 255.455C495.919 248.757 491.388 242.256 482.129 242.256H453.17V269.245H480.947Z" fill="#EEF0E4"/>
<path d="M599.278 351H554.756V212.706H603.612C646.755 212.706 668.622 245.014 668.622 279.095C668.622 313.964 645.967 351 599.278 351ZM602.233 242.256H587.261V321.45H598.096C623.115 321.45 635.132 298.795 635.132 278.504C635.132 259.198 624.1 242.256 602.233 242.256Z" fill="#EEF0E4"/>
<path d="M720.775 212.706V351H688.27V212.706H720.775Z" fill="#EEF0E4"/>
<path d="M748.293 351V212.706H776.267L830.048 288.354V212.706H862.553V351H834.382L780.798 276.337V351H748.293Z" fill="#EEF0E4"/>
<path d="M987.594 351L976.956 323.223H924.948L914.31 351H878.259L936.571 212.706H965.53L1023.65 351H987.594ZM936.177 293.87H965.727L950.952 255.061L936.177 293.87Z" fill="#EEF0E4"/>
<path d="M1071.87 321.45H1124.87V351H1039.37V212.706H1071.87V321.45Z" fill="#EEF0E4"/>
<path d="M265.594 473.185V551H240.969L237.817 537.407C229.543 549.621 216.738 554.152 203.342 554.152C174.58 554.152 143.257 533.073 143.257 483.035C143.257 431.815 176.156 409.751 207.676 409.751C232.498 409.751 256.729 423.541 264.018 449.939L234.074 459.592C231.71 448.166 220.284 440.877 208.267 440.877C192.704 440.877 176.156 452.894 176.156 482.838C176.156 513.373 193.295 523.814 208.661 523.814C222.057 523.814 234.074 515.737 235.65 502.735H202.554V473.185H265.594Z" fill="#EEF0E4"/>
<path d="M321.773 412.706V551H289.268V412.706H321.773Z" fill="#EEF0E4"/>
<path d="M381.796 496.037V551H349.291V412.706H438.532V442.256H381.796V466.487H427.303V496.037H381.796Z" fill="#EEF0E4"/>
<path d="M485.215 442.256H445.421V412.706H557.317V442.256H517.523V551H485.215V442.256Z" fill="#EEF0E4"/>
<path d="M640.619 450.136C640.619 459.198 649.878 462.744 661.501 466.487C680.216 472.594 704.644 479.292 704.644 509.827C704.644 539.968 681.004 554.152 656.97 554.152C633.527 554.152 609.296 540.559 604.568 512.191L636.088 503.523C637.073 518.889 648.105 524.799 657.364 524.799C665.047 524.799 672.336 519.874 672.336 511.797C672.336 502.538 662.683 498.401 650.272 494.264C635.103 489.142 609.69 482.05 609.69 451.515C609.69 422.95 631.951 409.751 654.015 409.751C673.124 409.751 693.415 419.798 700.31 441.074L672.336 451.515C670.563 442.453 661.501 438.119 654.409 438.119C647.317 438.119 640.619 442.453 640.619 450.136Z" fill="#EEF0E4"/>
<path d="M917.258 409.751C958.234 409.751 985.223 442.256 985.223 481.656C985.223 521.647 958.234 554.152 917.258 554.152C876.479 554.152 849.687 521.647 849.687 481.656C849.687 442.256 876.479 409.751 917.258 409.751ZM917.258 522.829C938.14 522.829 951.536 505.493 951.536 482.05C951.536 458.607 938.14 440.877 917.258 440.877C896.573 440.877 883.177 458.607 883.177 482.05C883.177 505.493 896.573 522.829 917.258 522.829Z" fill="#EEF0E4"/>
<path d="M1069.94 412.706C1099.69 412.706 1115.65 434.967 1115.65 455.652C1115.65 476.534 1099.49 498.598 1069.94 498.598H1037.44V551H1004.93V412.706H1069.94ZM1068.37 469.245C1077.62 469.245 1081.96 462.744 1081.96 455.652C1081.96 448.56 1077.62 442.256 1068.37 442.256H1037.44V469.245H1068.37Z" fill="#EEF0E4"/>
</g>
<g id="115 SOUTH OXFORD ST. BROOKLYN, NY 11217">
<path d="M72.9648 610.728V603.72C76.3248 603.72 78.5328 602.568 80.1168 599.832H86.4528V633H78.7728V609.912C77.0928 610.536 74.9328 610.728 72.9648 610.728Z" fill="#EEF0E4"/>
<path d="M95.8248 610.728V603.72C99.1848 603.72 101.393 602.568 102.977 599.832H109.313V633H101.633V609.912C99.9528 610.536 97.7928 610.728 95.8248 610.728Z" fill="#EEF0E4"/>
<path d="M144.413 621.288C144.413 629.496 138.173 633.768 131.597 633.768C126.173 633.768 120.653 630.888 118.877 625.608L125.741 623.064C126.509 625.32 129.053 626.616 131.453 626.616C134.237 626.616 136.829 624.888 136.829 621.768C136.829 618.648 134.573 617.256 131.933 617.256C129.869 617.256 127.661 618.216 126.509 620.04L120.605 617.688V599.832H142.013V607.272H127.709V612.648C129.485 611.4 131.693 610.776 133.757 610.776C138.989 610.776 144.413 613.944 144.413 621.288Z" fill="#EEF0E4"/>
<path d="M174.631 608.424C174.631 610.632 176.887 611.496 179.719 612.408C184.279 613.896 190.231 615.528 190.231 622.968C190.231 630.312 184.471 633.768 178.615 633.768C172.903 633.768 166.999 630.456 165.847 623.544L173.527 621.432C173.767 625.176 176.455 626.616 178.711 626.616C180.583 626.616 182.359 625.416 182.359 623.448C182.359 621.192 180.007 620.184 176.983 619.176C173.287 617.928 167.095 616.2 167.095 608.76C167.095 601.8 172.519 598.584 177.895 598.584C182.551 598.584 187.495 601.032 189.175 606.216L182.359 608.76C181.927 606.552 179.719 605.496 177.991 605.496C176.263 605.496 174.631 606.552 174.631 608.424Z" fill="#EEF0E4"/>
<path d="M213.192 598.584C223.176 598.584 229.752 606.504 229.752 616.104C229.752 625.848 223.176 633.768 213.192 633.768C203.256 633.768 196.728 625.848 196.728 616.104C196.728 606.504 203.256 598.584 213.192 598.584ZM213.192 626.136C218.28 626.136 221.544 621.912 221.544 616.2C221.544 610.488 218.28 606.168 213.192 606.168C208.152 606.168 204.888 610.488 204.888 616.2C204.888 621.912 208.152 626.136 213.192 626.136Z" fill="#EEF0E4"/>
<path d="M264.122 599.304V620.328C264.122 628.008 259.274 633.768 250.778 633.768C242.234 633.768 237.434 628.008 237.434 620.328V599.304H245.258V619.944C245.258 623.304 246.89 626.136 250.778 626.136C254.666 626.136 256.298 623.304 256.298 619.944V599.304H264.122Z" fill="#EEF0E4"/>
<path d="M280.768 606.504H271.072V599.304H298.336V606.504H288.64V633H280.768V606.504Z" fill="#EEF0E4"/>
<path d="M325.631 612.504V599.304H333.551V633H325.631V619.704H313.679V633H305.759V599.304H313.679V612.504H325.631Z" fill="#EEF0E4"/>
<path d="M371.601 598.584C381.585 598.584 388.161 606.504 388.161 616.104C388.161 625.848 381.585 633.768 371.601 633.768C361.665 633.768 355.137 625.848 355.137 616.104C355.137 606.504 361.665 598.584 371.601 598.584ZM371.601 626.136C376.689 626.136 379.953 621.912 379.953 616.2C379.953 610.488 376.689 606.168 371.601 606.168C366.561 606.168 363.297 610.488 363.297 616.2C363.297 621.912 366.561 626.136 371.601 626.136Z" fill="#EEF0E4"/>
<path d="M414.49 633L408.346 622.968L402.25 633H392.746L403.738 616.344L392.794 599.304H402.25L408.442 609.48L414.922 599.304H424.042L413.05 616.008L423.994 633H414.49Z" fill="#EEF0E4"/>
<path d="M439.385 619.608V633H431.465V599.304H453.209V606.504H439.385V612.408H450.473V619.608H439.385Z" fill="#EEF0E4"/>
<path d="M475.431 598.584C485.415 598.584 491.991 606.504 491.991 616.104C491.991 625.848 485.415 633.768 475.431 633.768C465.495 633.768 458.967 625.848 458.967 616.104C458.967 606.504 465.495 598.584 475.431 598.584ZM475.431 626.136C480.519 626.136 483.783 621.912 483.783 616.2C483.783 610.488 480.519 606.168 475.431 606.168C470.391 606.168 467.127 610.488 467.127 616.2C467.127 621.912 470.391 626.136 475.431 626.136Z" fill="#EEF0E4"/>
<path d="M519.402 618.264L528.522 633H519.306L511.626 620.232H508.074V633H500.154V599.304H515.706C522.954 599.304 526.602 604.056 526.602 608.856C526.602 612.84 524.154 616.824 519.402 618.264ZM514.842 613.08C517.29 613.08 518.49 611.352 518.49 609.72C518.49 608.088 517.386 606.504 515.13 606.504H508.074V613.08H514.842Z" fill="#EEF0E4"/>
<path d="M547.033 633H536.185V599.304H548.089C558.601 599.304 563.929 607.176 563.929 615.48C563.929 623.976 558.409 633 547.033 633ZM547.753 606.504H544.105V625.8H546.745C552.841 625.8 555.769 620.28 555.769 615.336C555.769 610.632 553.081 606.504 547.753 606.504Z" fill="#EEF0E4"/>
<path d="M592.139 608.424C592.139 610.632 594.395 611.496 597.227 612.408C601.787 613.896 607.739 615.528 607.739 622.968C607.739 630.312 601.979 633.768 596.123 633.768C590.411 633.768 584.507 630.456 583.355 623.544L591.035 621.432C591.275 625.176 593.963 626.616 596.219 626.616C598.091 626.616 599.867 625.416 599.867 623.448C599.867 621.192 597.515 620.184 594.491 619.176C590.795 617.928 584.603 616.2 584.603 608.76C584.603 601.8 590.027 598.584 595.403 598.584C600.059 598.584 605.003 601.032 606.683 606.216L599.867 608.76C599.435 606.552 597.227 605.496 595.499 605.496C593.771 605.496 592.139 606.552 592.139 608.424Z" fill="#EEF0E4"/>
<path d="M622.743 606.504H613.047V599.304H640.311V606.504H630.615V633H622.743V606.504Z" fill="#EEF0E4"/>
<path d="M645.354 633.336C642.858 633.336 641.034 631.464 641.034 629.016C641.034 626.568 642.858 624.696 645.354 624.696C647.754 624.696 649.626 626.568 649.626 629.016C649.626 631.464 647.754 633.336 645.354 633.336Z" fill="#EEF0E4"/>
<path d="M692.152 614.616C695.752 616.008 697.624 619.176 697.624 622.536C697.624 627.528 693.496 633 685.816 633H671.752V599.304H685.432C692.632 599.304 695.896 603.96 695.896 608.232C695.896 611.016 694.456 613.368 692.152 614.616ZM679.672 612.216H684.76C686.776 612.216 687.784 610.776 687.784 609.384C687.784 607.944 686.776 606.504 684.664 606.504H679.672V612.216ZM685.672 625.8C688.168 625.8 689.464 623.928 689.464 622.2C689.464 620.472 688.264 618.792 685.672 618.792H679.672V625.8H685.672Z" fill="#EEF0E4"/>
<path d="M725.016 618.264L734.136 633H724.92L717.24 620.232H713.688V633H705.768V599.304H721.32C728.568 599.304 732.216 604.056 732.216 608.856C732.216 612.84 729.768 616.824 725.016 618.264ZM720.456 613.08C722.904 613.08 724.104 611.352 724.104 609.72C724.104 608.088 723 606.504 720.744 606.504H713.688V613.08H720.456Z" fill="#EEF0E4"/>
<path d="M754.891 598.584C764.875 598.584 771.451 606.504 771.451 616.104C771.451 625.848 764.875 633.768 754.891 633.768C744.955 633.768 738.427 625.848 738.427 616.104C738.427 606.504 744.955 598.584 754.891 598.584ZM754.891 626.136C759.979 626.136 763.243 621.912 763.243 616.2C763.243 610.488 759.979 606.168 754.891 606.168C749.851 606.168 746.587 610.488 746.587 616.2C746.587 621.912 749.851 626.136 754.891 626.136Z" fill="#EEF0E4"/>
<path d="M794.157 598.584C804.141 598.584 810.717 606.504 810.717 616.104C810.717 625.848 804.141 633.768 794.157 633.768C784.221 633.768 777.693 625.848 777.693 616.104C777.693 606.504 784.221 598.584 794.157 598.584ZM794.157 626.136C799.245 626.136 802.509 621.912 802.509 616.2C802.509 610.488 799.245 606.168 794.157 606.168C789.117 606.168 785.853 610.488 785.853 616.2C785.853 621.912 789.117 626.136 794.157 626.136Z" fill="#EEF0E4"/>
<path d="M850.031 599.304L836.303 611.976L848.783 633H838.991L830.351 617.496L826.799 620.76V633H818.879V599.304H826.799V611.4L838.943 599.304H850.031Z" fill="#EEF0E4"/>
<path d="M865.128 625.8H878.04V633H857.208V599.304H865.128V625.8Z" fill="#EEF0E4"/>
<path d="M912.965 599.304L900.533 619.176V633H892.661V619.176L880.229 599.304H889.493L896.597 611.784L903.653 599.304H912.965Z" fill="#EEF0E4"/>
<path d="M919.944 633V599.304H926.76L939.864 617.736V599.304H947.784V633H940.92L927.864 614.808V633H919.944Z" fill="#EEF0E4"/>
<path d="M960.394 624.216C963.514 624.216 965.339 627.048 965.339 631.224C965.339 636.216 962.506 641.304 955.93 642.36V637.368C958.378 636.744 960.538 635.016 960.97 632.328C960.682 632.376 960.394 632.424 960.154 632.424C957.802 632.424 955.978 631.272 955.978 628.44C955.978 625.752 957.946 624.216 960.394 624.216Z" fill="#EEF0E4"/>
<path d="M987.445 633V599.304H994.261L1007.37 617.736V599.304H1015.29V633H1008.42L995.365 614.808V633H987.445Z" fill="#EEF0E4"/>
<path d="M1054.97 599.304L1042.54 619.176V633H1034.66V619.176L1022.23 599.304H1031.5L1038.6 611.784L1045.66 599.304H1054.97Z" fill="#EEF0E4"/>
<path d="M1072.77 610.728V603.72C1076.13 603.72 1078.34 602.568 1079.92 599.832H1086.26V633H1078.58V609.912C1076.9 610.536 1074.74 610.728 1072.77 610.728Z" fill="#EEF0E4"/>
<path d="M1095.63 610.728V603.72C1098.99 603.72 1101.2 602.568 1102.78 599.832H1109.12V633H1101.44V609.912C1099.76 610.536 1097.6 610.728 1095.63 610.728Z" fill="#EEF0E4"/>
<path d="M1129 625.512H1142.25V633H1118.82V626.472C1127.9 619.608 1134.04 615.432 1134.04 610.632C1134.04 607.944 1132.26 606.312 1129.58 606.312C1126.7 606.312 1124.63 608.232 1124.63 611.16C1124.63 611.592 1124.68 611.976 1124.73 612.36L1118.34 612.696C1118.25 612.168 1118.25 611.88 1118.25 611.544C1118.25 602.808 1124.54 599.304 1130.25 599.304C1135.91 599.304 1141.14 602.808 1141.14 609.576C1141.14 616.056 1136.34 619.848 1129 625.512Z" fill="#EEF0E4"/>
<path d="M1148.71 610.728V603.72C1152.07 603.72 1154.27 602.568 1155.86 599.832H1162.19V633H1154.51V609.912C1152.83 610.536 1150.67 610.728 1148.71 610.728Z" fill="#EEF0E4"/>
<path d="M1184.09 633H1175.93C1175.93 626.328 1177.71 615.576 1186.21 607.272H1170.37V599.832H1195.23V605.928C1185.49 614.28 1184.09 624.552 1184.09 633Z" fill="#EEF0E4"/>
</g>
<rect id="IMG_0778 1" x="719" y="413" width="116" height="138" fill="url(#pattern0)"/>
<g id="YOU ARE GETTING VERY SLEEPY">
<path d="M123.243 679.422L87.2423 736.968V777H64.4463V736.968L28.4453 679.422H55.2723L75.8443 715.562L96.2773 679.422H123.243Z" fill="#EEF0E4"/>
<path d="M168.916 677.337C197.828 677.337 216.871 700.272 216.871 728.072C216.871 756.289 197.828 779.224 168.916 779.224C140.143 779.224 121.239 756.289 121.239 728.072C121.239 700.272 140.143 677.337 168.916 677.337ZM168.916 757.123C183.65 757.123 193.102 744.891 193.102 728.35C193.102 711.809 183.65 699.299 168.916 699.299C154.321 699.299 144.869 711.809 144.869 728.35C144.869 744.891 154.321 757.123 168.916 757.123Z" fill="#EEF0E4"/>
<path d="M306.671 679.422V740.304C306.671 762.544 292.632 779.224 268.029 779.224C243.287 779.224 229.387 762.544 229.387 740.304V679.422H252.044V739.192C252.044 748.922 256.77 757.123 268.029 757.123C279.288 757.123 284.014 748.922 284.014 739.192V679.422H306.671Z" fill="#EEF0E4"/>
<path d="M422.836 777L415.33 757.401H378.634L371.128 777H345.691L386.835 679.422H407.268L448.273 777H422.836ZM386.557 736.69H407.407L396.982 709.307L386.557 736.69Z" fill="#EEF0E4"/>
<path d="M515.106 734.327L541.516 777H514.828L492.588 740.026H482.302V777H459.367V679.422H504.403C525.392 679.422 535.956 693.183 535.956 707.083C535.956 718.62 528.867 730.157 515.106 734.327ZM501.901 719.315C508.99 719.315 512.465 714.311 512.465 709.585C512.465 704.859 509.268 700.272 502.735 700.272H482.302V719.315H501.901Z" fill="#EEF0E4"/>
<path d="M576.914 756.15H618.475V777H553.979V679.422H618.475V700.272H576.914V717.369H610.274V738.219H576.914V756.15Z" fill="#EEF0E4"/>
<path d="M742.382 722.095V777H725.007L722.783 767.409C716.945 776.027 707.91 779.224 698.458 779.224C678.164 779.224 656.063 764.351 656.063 729.045C656.063 692.905 679.276 677.337 701.516 677.337C719.03 677.337 736.127 687.067 741.27 705.693L720.142 712.504C718.474 704.442 710.412 699.299 701.933 699.299C690.952 699.299 679.276 707.778 679.276 728.906C679.276 750.451 691.369 757.818 702.211 757.818C711.663 757.818 720.142 752.119 721.254 742.945H697.902V722.095H742.382Z" fill="#EEF0E4"/>
<path d="M782.021 756.15H823.582V777H759.086V679.422H823.582V700.272H782.021V717.369H815.381V738.219H782.021V756.15Z" fill="#EEF0E4"/>
<path d="M860.693 700.272H832.615V679.422H911.567V700.272H883.489V777H860.693V700.272Z" fill="#EEF0E4"/>
<path d="M946.482 700.272H918.404V679.422H997.356V700.272H969.278V777H946.482V700.272Z" fill="#EEF0E4"/>
<path d="M1032.06 679.422V777H1009.12V679.422H1032.06Z" fill="#EEF0E4"/>
<path d="M1051.47 777V679.422H1071.21L1109.16 732.798V679.422H1132.09V777H1112.22L1074.41 724.319V777H1051.47Z" fill="#EEF0E4"/>
<path d="M1232.28 722.095V777H1214.9L1212.68 767.409C1206.84 776.027 1197.8 779.224 1188.35 779.224C1168.06 779.224 1145.96 764.351 1145.96 729.045C1145.96 692.905 1169.17 677.337 1191.41 677.337C1208.92 677.337 1226.02 687.067 1231.16 705.693L1210.04 712.504C1208.37 704.442 1200.31 699.299 1191.83 699.299C1180.85 699.299 1169.17 707.778 1169.17 728.906C1169.17 750.451 1181.26 757.818 1192.1 757.818C1201.56 757.818 1210.04 752.119 1211.15 742.945H1187.8V722.095H1232.28Z" fill="#EEF0E4"/>
<path d="M235.082 869.277L255.793 807.422H280.118L245.09 905H225.213L190.046 807.422H214.232L235.082 869.277Z" fill="#EEF0E4"/>
<path d="M313.507 884.15H355.068V905H290.572V807.422H355.068V828.272H313.507V845.369H346.867V866.219H313.507V884.15Z" fill="#EEF0E4"/>
<path d="M427.484 862.327L453.894 905H427.206L404.966 868.026H394.68V905H371.745V807.422H416.781C437.77 807.422 448.334 821.183 448.334 835.083C448.334 846.62 441.245 858.157 427.484 862.327ZM414.279 847.315C421.368 847.315 424.843 842.311 424.843 837.585C424.843 832.859 421.646 828.272 415.113 828.272H394.68V847.315H414.279Z" fill="#EEF0E4"/>
<path d="M546.555 807.422L510.554 864.968V905H487.758V864.968L451.757 807.422H478.584L499.156 843.562L519.589 807.422H546.555Z" fill="#EEF0E4"/>
<path d="M605.4 833.832C605.4 840.226 611.933 842.728 620.134 845.369C633.339 849.678 650.575 854.404 650.575 875.949C650.575 897.216 633.895 907.224 616.937 907.224C600.396 907.224 583.299 897.633 579.963 877.617L602.203 871.501C602.898 882.343 610.682 886.513 617.215 886.513C622.636 886.513 627.779 883.038 627.779 877.339C627.779 870.806 620.968 867.887 612.211 864.968C601.508 861.354 583.577 856.35 583.577 834.805C583.577 814.65 599.284 805.337 614.852 805.337C628.335 805.337 642.652 812.426 647.517 827.438L627.779 834.805C626.528 828.411 620.134 825.353 615.13 825.353C610.126 825.353 605.4 828.411 605.4 833.832Z" fill="#EEF0E4"/>
<path d="M688.155 884.15H725.546V905H665.22V807.422H688.155V884.15Z" fill="#EEF0E4"/>
<path d="M762.406 884.15H803.967V905H739.471V807.422H803.967V828.272H762.406V845.369H795.766V866.219H762.406V884.15Z" fill="#EEF0E4"/>
<path d="M843.58 884.15H885.141V905H820.645V807.422H885.141V828.272H843.58V845.369H876.94V866.219H843.58V884.15Z" fill="#EEF0E4"/>
<path d="M947.689 807.422C968.678 807.422 979.937 823.129 979.937 837.724C979.937 852.458 968.539 868.026 947.689 868.026H924.754V905H901.819V807.422H947.689ZM946.577 847.315C953.11 847.315 956.168 842.728 956.168 837.724C956.168 832.72 953.11 828.272 946.577 828.272H924.754V847.315H946.577Z" fill="#EEF0E4"/>
<path d="M1076.9 807.422L1040.9 864.968V905H1018.1V864.968L982.102 807.422H1008.93L1029.5 843.562L1049.93 807.422H1076.9Z" fill="#EEF0E4"/>
</g>
<text id="HELLOCARDINALGIFTSHOP@GMAIL.COM" fill="#EEF0E4" xml:space="preserve" style="white-space: pre" font-family="Akkurat-Bold" font-size="47" letter-spacing="0em"><tspan x="183.282" y="985.215">HELLOCARDINALGIFTSHOP@GMAIL.COM</tspan></text>
<g id="OPENING SEPTEMBER 2023">
<path d="M45.5471 3.03699C53.6591 3.03699 59.0021 9.47199 59.0021 17.272C59.0021 25.189 53.6591 31.624 45.5471 31.624C37.4741 31.624 32.1701 25.189 32.1701 17.272C32.1701 9.47199 37.4741 3.03699 45.5471 3.03699ZM45.5471 25.423C49.6811 25.423 52.3331 21.991 52.3331 17.35C52.3331 12.709 49.6811 9.19899 45.5471 9.19899C41.4521 9.19899 38.8001 12.709 38.8001 17.35C38.8001 21.991 41.4521 25.423 45.5471 25.423Z" fill="#EEF0E4"/>
<path d="M75.7739 3.62199C81.6629 3.62199 84.8219 8.02899 84.8219 12.124C84.8219 16.258 81.6239 20.626 75.7739 20.626H69.3389V31H62.9039V3.62199H75.7739ZM75.4619 14.815C77.2949 14.815 78.1529 13.528 78.1529 12.124C78.1529 10.72 77.2949 9.47199 75.4619 9.47199H69.3389V14.815H75.4619Z" fill="#EEF0E4"/>
<path d="M94.7803 25.15H106.441V31H88.3453V3.62199H106.441V9.47199H94.7803V14.269H104.14V20.119H94.7803V25.15Z" fill="#EEF0E4"/>
<path d="M111.121 31V3.62199H116.659L127.306 18.598V3.62199H133.741V31H128.164L117.556 16.219V31H111.121Z" fill="#EEF0E4"/>
<path d="M145.625 3.62199V31H139.19V3.62199H145.625Z" fill="#EEF0E4"/>
<path d="M151.073 31V3.62199H156.611L167.258 18.598V3.62199H173.693V31H168.116L157.508 16.219V31H151.073Z" fill="#EEF0E4"/>
<path d="M201.801 15.595V31H196.926L196.302 28.309C194.664 30.727 192.129 31.624 189.477 31.624C183.783 31.624 177.582 27.451 177.582 17.545C177.582 7.40499 184.095 3.03699 190.335 3.03699C195.249 3.03699 200.046 5.76699 201.489 10.993L195.561 12.904C195.093 10.642 192.831 9.19899 190.452 9.19899C187.371 9.19899 184.095 11.578 184.095 17.506C184.095 23.551 187.488 25.618 190.53 25.618C193.182 25.618 195.561 24.019 195.873 21.445H189.321V15.595H201.801Z" fill="#EEF0E4"/>
<path d="M39.1121 58.032C39.1121 59.826 40.9451 60.528 43.2461 61.269C46.9511 62.478 51.7871 63.804 51.7871 69.849C51.7871 75.816 47.1071 78.624 42.3491 78.624C37.7081 78.624 32.9111 75.933 31.9751 70.317L38.2151 68.601C38.4101 71.643 40.5941 72.813 42.4271 72.813C43.9481 72.813 45.3911 71.838 45.3911 70.239C45.3911 68.406 43.4801 67.587 41.0231 66.768C38.0201 65.754 32.9891 64.35 32.9891 58.305C32.9891 52.65 37.3961 50.037 41.7641 50.037C45.5471 50.037 49.5641 52.026 50.9291 56.238L45.3911 58.305C45.0401 56.511 43.2461 55.653 41.8421 55.653C40.4381 55.653 39.1121 56.511 39.1121 58.032Z" fill="#EEF0E4"/>
<path d="M62.3311 72.15H73.9921V78H55.8961V50.622H73.9921V56.472H62.3311V61.269H71.6911V67.119H62.3311V72.15Z" fill="#EEF0E4"/>
<path d="M91.5415 50.622C97.4305 50.622 100.59 55.029 100.59 59.124C100.59 63.258 97.3915 67.626 91.5415 67.626H85.1065V78H78.6715V50.622H91.5415ZM91.2295 61.815C93.0625 61.815 93.9205 60.528 93.9205 59.124C93.9205 57.72 93.0625 56.472 91.2295 56.472H85.1065V61.815H91.2295Z" fill="#EEF0E4"/>
<path d="M109.846 56.472H101.968V50.622H124.12V56.472H116.242V78H109.846V56.472Z" fill="#EEF0E4"/>
<path d="M133.857 72.15H145.518V78H127.422V50.622H145.518V56.472H133.857V61.269H143.217V67.119H133.857V72.15Z" fill="#EEF0E4"/>
<path d="M161.819 74.568L156.632 64.428V78H150.197V50.622H155.969L164.276 66.885L172.583 50.622H178.355V78H171.959V64.428L166.733 74.568H161.819Z" fill="#EEF0E4"/>
<path d="M200.402 63.063C203.327 64.194 204.848 66.768 204.848 69.498C204.848 73.554 201.494 78 195.254 78H183.827V50.622H194.942C200.792 50.622 203.444 54.405 203.444 57.876C203.444 60.138 202.274 62.049 200.402 63.063ZM190.262 61.113H194.396C196.034 61.113 196.853 59.943 196.853 58.812C196.853 57.642 196.034 56.472 194.318 56.472H190.262V61.113ZM195.137 72.15C197.165 72.15 198.218 70.629 198.218 69.225C198.218 67.821 197.243 66.456 195.137 66.456H190.262V72.15H195.137Z" fill="#EEF0E4"/>
<path d="M215.17 72.15H226.831V78H208.735V50.622H226.831V56.472H215.17V61.269H224.53V67.119H215.17V72.15Z" fill="#EEF0E4"/>
<path d="M247.149 66.027L254.559 78H247.071L240.831 67.626H237.945V78H231.51V50.622H244.146C250.035 50.622 252.999 54.483 252.999 58.383C252.999 61.62 251.01 64.857 247.149 66.027ZM243.444 61.815C245.433 61.815 246.408 60.411 246.408 59.085C246.408 57.759 245.511 56.472 243.678 56.472H237.945V61.815H243.444Z" fill="#EEF0E4"/>
<path d="M40.9061 118.916H51.6701V125H32.6381V119.696C40.0091 114.119 45.0011 110.726 45.0011 106.826C45.0011 104.642 43.5581 103.316 41.3741 103.316C39.0341 103.316 37.3571 104.876 37.3571 107.255C37.3571 107.606 37.3961 107.918 37.4351 108.23L32.2481 108.503C32.1701 108.074 32.1701 107.84 32.1701 107.567C32.1701 100.469 37.2791 97.622 41.9201 97.622C46.5221 97.622 50.7731 100.469 50.7731 105.968C50.7731 111.233 46.8731 114.314 40.9061 118.916Z" fill="#EEF0E4"/>
<path d="M64.4545 97.622C71.4355 97.622 75.2575 103.511 75.2575 111.662C75.2575 119.774 71.4355 125.624 64.4545 125.624C57.4345 125.624 53.6125 119.774 53.6125 111.662C53.6125 103.511 57.4345 97.622 64.4545 97.622ZM64.4545 119.813C67.4575 119.813 69.0955 117.317 69.0955 111.662C69.0955 105.929 67.4575 103.472 64.4545 103.472C61.4515 103.472 59.8135 105.929 59.8135 111.662C59.8135 117.317 61.4515 119.813 64.4545 119.813Z" fill="#EEF0E4"/>
<path d="M86.3426 118.916H97.1066V125H78.0746V119.696C85.4456 114.119 90.4376 110.726 90.4376 106.826C90.4376 104.642 88.9946 103.316 86.8106 103.316C84.4706 103.316 82.7936 104.876 82.7936 107.255C82.7936 107.606 82.8326 107.918 82.8716 108.23L77.6846 108.503C77.6066 108.074 77.6066 107.84 77.6066 107.567C77.6066 100.469 82.7156 97.622 87.3566 97.622C91.9586 97.622 96.2096 100.469 96.2096 105.968C96.2096 111.233 92.3096 114.314 86.3426 118.916Z" fill="#EEF0E4"/>
<path d="M111.949 108.815C116.668 108.932 119.476 111.935 119.476 116.147C119.476 122.114 114.367 125.624 109.219 125.624C105.202 125.624 101.146 123.479 99.4299 118.76L105.046 116.654C105.748 118.76 107.581 119.813 109.453 119.813C111.403 119.813 113.275 118.604 113.275 116.381C113.275 114.08 111.403 113.183 109.414 113.183C108.049 113.183 106.645 113.612 105.748 114.353L103.369 110.375L110.506 104.096H100.366V98.051H118.111V103.745L111.949 108.815Z" fill="#EEF0E4"/>
</g>
<g id="APPAREL &#38; HOME">
<path d="M1084.77 31L1082.67 25.5009H1072.37L1070.27 31H1063.13L1074.67 3.62195H1080.41L1091.91 31H1084.77ZM1074.59 19.6899H1080.44L1077.52 12.0069L1074.59 19.6899Z" fill="#EEF0E4"/>
<path d="M1107.89 3.62195C1113.78 3.62195 1116.94 8.02895 1116.94 12.1239C1116.94 16.2579 1113.74 20.6259 1107.89 20.6259H1101.46V31H1095.02V3.62195H1107.89ZM1107.58 14.8149C1109.41 14.8149 1110.27 13.5279 1110.27 12.1239C1110.27 10.7199 1109.41 9.47195 1107.58 9.47195H1101.46V14.8149H1107.58Z" fill="#EEF0E4"/>
<path d="M1133.33 3.62195C1139.22 3.62195 1142.38 8.02895 1142.38 12.1239C1142.38 16.2579 1139.18 20.6259 1133.33 20.6259H1126.9V31H1120.46V3.62195H1133.33ZM1133.02 14.8149C1134.86 14.8149 1135.71 13.5279 1135.71 12.1239C1135.71 10.7199 1134.86 9.47195 1133.02 9.47195H1126.9V14.8149H1133.02Z" fill="#EEF0E4"/>
<path d="M1161.33 31L1159.22 25.5009H1148.92L1146.82 31H1139.68L1151.23 3.62195H1156.96L1168.46 31H1161.33ZM1151.15 19.6899H1157L1154.07 12.0069L1151.15 19.6899Z" fill="#EEF0E4"/>
<path d="M1187.21 19.0269L1194.62 31H1187.14L1180.9 20.6259H1178.01V31H1171.58V3.62195H1184.21C1190.1 3.62195 1193.06 7.48295 1193.06 11.3829C1193.06 14.6199 1191.08 17.8569 1187.21 19.0269ZM1183.51 14.8149C1185.5 14.8149 1186.47 13.4109 1186.47 12.0849C1186.47 10.7589 1185.58 9.47195 1183.74 9.47195H1178.01V14.8149H1183.51Z" fill="#EEF0E4"/>
<path d="M1204.56 25.1499H1216.22V31H1198.12V3.62195H1216.22V9.47195H1204.56V14.2689H1213.92V20.1189H1204.56V25.1499Z" fill="#EEF0E4"/>
<path d="M1227.33 25.1499H1237.82V31H1220.9V3.62195H1227.33V25.1499Z" fill="#EEF0E4"/>
<path d="M1221.84 49.764C1223.35 49.764 1224.69 49.998 1225.86 50.466C1227.03 50.9339 1227.95 51.6229 1228.63 52.5329C1229.3 53.417 1229.64 54.5089 1229.64 55.8089C1229.64 57.6029 1229.11 59.111 1228.04 60.333C1226.98 61.555 1225.65 62.6209 1224.06 63.5309L1229.48 68.7959C1230 67.9119 1230.46 66.989 1230.85 66.027C1231.24 65.039 1231.56 64.0509 1231.82 63.0629H1237.87C1237.48 64.5189 1236.91 66.0789 1236.15 67.7429C1235.4 69.4069 1234.44 70.9669 1233.27 72.4229L1239 77.9999H1231.82L1229.64 75.8549C1229.07 76.2449 1228.47 76.5959 1227.85 76.9079C1227.22 77.2199 1226.57 77.4929 1225.9 77.7269C1225.22 77.9349 1224.51 78.091 1223.75 78.1949C1223 78.3249 1222.22 78.3899 1221.41 78.3899C1219.31 78.3899 1217.5 78.0649 1215.99 77.4149C1214.48 76.7389 1213.33 75.8029 1212.52 74.6069C1211.71 73.4109 1211.31 72.0329 1211.31 70.4729C1211.31 69.1469 1211.51 68.016 1211.9 67.08C1212.31 66.118 1212.9 65.2859 1213.65 64.584C1214.43 63.8559 1215.35 63.193 1216.42 62.595C1215.74 61.815 1215.2 61.0869 1214.78 60.4109C1214.39 59.7089 1214.11 59.02 1213.92 58.344C1213.77 57.668 1213.69 56.9529 1213.69 56.1989C1213.69 54.8729 1214.03 53.729 1214.7 52.7669C1215.41 51.8049 1216.37 51.0639 1217.59 50.5439C1218.84 50.0239 1220.25 49.764 1221.84 49.764ZM1219.81 66.066C1219.32 66.43 1218.89 66.8069 1218.53 67.1969C1218.19 67.5869 1217.91 68.0029 1217.71 68.4449C1217.52 68.8869 1217.43 69.381 1217.43 69.9269C1217.43 71.045 1217.85 71.9289 1218.68 72.5789C1219.51 73.2029 1220.55 73.5149 1221.8 73.5149C1222.63 73.5149 1223.41 73.4109 1224.14 73.2029C1224.87 72.9949 1225.53 72.7089 1226.13 72.3449L1219.81 66.066ZM1221.8 54.249C1221.15 54.249 1220.53 54.4179 1219.93 54.756C1219.36 55.068 1219.07 55.679 1219.07 56.589C1219.07 57.2389 1219.23 57.8629 1219.54 58.4609C1219.88 59.0589 1220.32 59.6699 1220.87 60.2939C1221.96 59.6959 1222.79 59.0979 1223.36 58.5C1223.96 57.902 1224.26 57.213 1224.26 56.4329C1224.26 55.653 1224 55.094 1223.48 54.756C1222.96 54.4179 1222.4 54.249 1221.8 54.249Z" fill="#EEF0E4"/>
<path d="M1145.03 108.347V97.6219H1151.46V125H1145.03V114.197H1135.32V125H1128.88V97.6219H1135.32V108.347H1145.03Z" fill="#EEF0E4"/>
<path d="M1168.73 97.0369C1176.84 97.0369 1182.18 103.472 1182.18 111.272C1182.18 119.189 1176.84 125.624 1168.73 125.624C1160.66 125.624 1155.35 119.189 1155.35 111.272C1155.35 103.472 1160.66 97.0369 1168.73 97.0369ZM1168.73 119.423C1172.86 119.423 1175.52 115.991 1175.52 111.35C1175.52 106.709 1172.86 103.199 1168.73 103.199C1164.63 103.199 1161.98 106.709 1161.98 111.35C1161.98 115.991 1164.63 119.423 1168.73 119.423Z" fill="#EEF0E4"/>
<path d="M1197.71 121.568L1192.52 111.428V125H1186.09V97.6219H1191.86L1200.17 113.885L1208.47 97.6219H1214.24V125H1207.85V111.428L1202.62 121.568H1197.71Z" fill="#EEF0E4"/>
<path d="M1226.15 119.15H1237.81V125H1219.72V97.6219H1237.81V103.472H1226.15V108.269H1235.51V114.119H1226.15V119.15Z" fill="#EEF0E4"/>
</g>
<g id="&#60;8&#62; &#60;8&#62; &#60;8&#62; &#60;8&#62; &#60;8&#62; &#60;8&#62;">
<path d="M602.324 16.426L589.714 10.862V9.04205L602.324 2.75005V5.79205L593.64 9.82205L602.324 13.384V16.426Z" fill="#EEF0E4"/>
<path d="M614.291 9.66605C615.799 10.212 617.463 11.59 617.463 14.112C617.463 17.622 614.369 19.416 610.885 19.416C607.349 19.416 604.255 17.622 604.255 14.112C604.255 11.59 605.919 10.212 607.453 9.66605C605.867 9.12005 604.593 7.84605 604.593 5.79205C604.593 2.69805 607.271 0.748047 610.885 0.748047C614.473 0.748047 617.151 2.69805 617.151 5.79205C617.151 7.84605 615.851 9.12005 614.291 9.66605ZM610.885 4.54405C609.611 4.54405 608.727 5.09005 608.727 6.15605C608.727 7.17005 609.533 7.95005 610.885 7.95005C612.185 7.95005 613.043 7.17005 613.043 6.15605C613.043 5.09005 612.107 4.54405 610.885 4.54405ZM610.885 15.568C612.315 15.568 613.329 14.866 613.329 13.618C613.329 12.344 612.367 11.59 610.885 11.59C609.377 11.59 608.415 12.344 608.415 13.618C608.415 14.866 609.403 15.568 610.885 15.568Z" fill="#EEF0E4"/>
<path d="M619.37 13.384L628.054 9.82205L619.37 5.79205V2.75005L631.98 9.04205V10.862L619.37 16.426V13.384Z" fill="#EEF0E4"/>
<path d="M665.597 16.426L652.987 10.862V9.04205L665.597 2.75005V5.79205L656.913 9.82205L665.597 13.384V16.426Z" fill="#EEF0E4"/>
<path d="M677.564 9.66605C679.072 10.212 680.736 11.59 680.736 14.112C680.736 17.622 677.642 19.416 674.158 19.416C670.622 19.416 667.528 17.622 667.528 14.112C667.528 11.59 669.192 10.212 670.726 9.66605C669.14 9.12005 667.866 7.84605 667.866 5.79205C667.866 2.69805 670.544 0.748047 674.158 0.748047C677.746 0.748047 680.424 2.69805 680.424 5.79205C680.424 7.84605 679.124 9.12005 677.564 9.66605ZM674.158 4.54405C672.884 4.54405 672 5.09005 672 6.15605C672 7.17005 672.806 7.95005 674.158 7.95005C675.458 7.95005 676.316 7.17005 676.316 6.15605C676.316 5.09005 675.38 4.54405 674.158 4.54405ZM674.158 15.568C675.588 15.568 676.602 14.866 676.602 13.618C676.602 12.344 675.64 11.59 674.158 11.59C672.65 11.59 671.688 12.344 671.688 13.618C671.688 14.866 672.676 15.568 674.158 15.568Z" fill="#EEF0E4"/>
<path d="M682.643 13.384L691.327 9.82205L682.643 5.79205V2.75005L695.253 9.04205V10.862L682.643 16.426V13.384Z" fill="#EEF0E4"/>
<path d="M582.645 64.842L562.275 55.854V52.914L582.645 42.75V47.664L568.617 54.174L582.645 59.928V64.842Z" fill="#EEF0E4"/>
<path d="M601.976 53.922C604.412 54.804 607.1 57.03 607.1 61.104C607.1 66.774 602.102 69.672 596.474 69.672C590.762 69.672 585.764 66.774 585.764 61.104C585.764 57.03 588.452 54.804 590.93 53.922C588.368 53.04 586.31 50.982 586.31 47.664C586.31 42.666 590.636 39.516 596.474 39.516C602.27 39.516 606.596 42.666 606.596 47.664C606.596 50.982 604.496 53.04 601.976 53.922ZM596.474 45.648C594.416 45.648 592.988 46.53 592.988 48.252C592.988 49.89 594.29 51.15 596.474 51.15C598.574 51.15 599.96 49.89 599.96 48.252C599.96 46.53 598.448 45.648 596.474 45.648ZM596.474 63.456C598.784 63.456 600.422 62.322 600.422 60.306C600.422 58.248 598.868 57.03 596.474 57.03C594.038 57.03 592.484 58.248 592.484 60.306C592.484 62.322 594.08 63.456 596.474 63.456Z" fill="#EEF0E4"/>
<path d="M610.181 59.928L624.209 54.174L610.181 47.664V42.75L630.551 52.914V55.854L610.181 64.842V59.928Z" fill="#EEF0E4"/>
<path d="M674.766 64.842L654.396 55.854V52.914L674.766 42.75V47.664L660.738 54.174L674.766 59.928V64.842Z" fill="#EEF0E4"/>
<path d="M694.097 53.922C696.533 54.804 699.221 57.03 699.221 61.104C699.221 66.774 694.223 69.672 688.595 69.672C682.883 69.672 677.885 66.774 677.885 61.104C677.885 57.03 680.573 54.804 683.051 53.922C680.489 53.04 678.431 50.982 678.431 47.664C678.431 42.666 682.757 39.516 688.595 39.516C694.391 39.516 698.717 42.666 698.717 47.664C698.717 50.982 696.617 53.04 694.097 53.922ZM688.595 45.648C686.537 45.648 685.109 46.53 685.109 48.252C685.109 49.89 686.411 51.15 688.595 51.15C690.695 51.15 692.081 49.89 692.081 48.252C692.081 46.53 690.569 45.648 688.595 45.648ZM688.595 63.456C690.905 63.456 692.543 62.322 692.543 60.306C692.543 58.248 690.989 57.03 688.595 57.03C686.159 57.03 684.605 58.248 684.605 60.306C684.605 62.322 686.201 63.456 688.595 63.456Z" fill="#EEF0E4"/>
<path d="M702.302 59.928L716.33 54.174L702.302 47.664V42.75L722.672 52.914V55.854L702.302 64.842V59.928Z" fill="#EEF0E4"/>
<path d="M549.867 140.565L518.342 126.655V122.105L549.867 106.375V113.98L528.157 124.055L549.867 132.96V140.565Z" fill="#EEF0E4"/>
<path d="M579.784 123.665C583.554 125.03 587.714 128.475 587.714 134.78C587.714 143.555 579.979 148.04 571.269 148.04C562.429 148.04 554.694 143.555 554.694 134.78C554.694 128.475 558.854 125.03 562.689 123.665C558.724 122.3 555.539 119.115 555.539 113.98C555.539 106.245 562.234 101.37 571.269 101.37C580.239 101.37 586.934 106.245 586.934 113.98C586.934 119.115 583.684 122.3 579.784 123.665ZM571.269 110.86C568.084 110.86 565.874 112.225 565.874 114.89C565.874 117.425 567.889 119.375 571.269 119.375C574.519 119.375 576.664 117.425 576.664 114.89C576.664 112.225 574.324 110.86 571.269 110.86ZM571.269 138.42C574.844 138.42 577.379 136.665 577.379 133.545C577.379 130.36 574.974 128.475 571.269 128.475C567.499 128.475 565.094 130.36 565.094 133.545C565.094 136.665 567.564 138.42 571.269 138.42Z" fill="#EEF0E4"/>
<path d="M592.482 132.96L614.192 124.055L592.482 113.98V106.375L624.007 122.105V126.655L592.482 140.565V132.96Z" fill="#EEF0E4"/>
<path d="M692.435 140.565L660.91 126.655V122.105L692.435 106.375V113.98L670.725 124.055L692.435 132.96V140.565Z" fill="#EEF0E4"/>
<path d="M722.352 123.665C726.122 125.03 730.282 128.475 730.282 134.78C730.282 143.555 722.547 148.04 713.837 148.04C704.997 148.04 697.262 143.555 697.262 134.78C697.262 128.475 701.422 125.03 705.257 123.665C701.292 122.3 698.107 119.115 698.107 113.98C698.107 106.245 704.802 101.37 713.837 101.37C722.807 101.37 729.502 106.245 729.502 113.98C729.502 119.115 726.252 122.3 722.352 123.665ZM713.837 110.86C710.652 110.86 708.442 112.225 708.442 114.89C708.442 117.425 710.457 119.375 713.837 119.375C717.087 119.375 719.232 117.425 719.232 114.89C719.232 112.225 716.892 110.86 713.837 110.86ZM713.837 138.42C717.412 138.42 719.947 136.665 719.947 133.545C719.947 130.36 717.542 128.475 713.837 128.475C710.067 128.475 707.662 130.36 707.662 133.545C707.662 136.665 710.132 138.42 713.837 138.42Z" fill="#EEF0E4"/>
<path d="M735.051 132.96L756.761 124.055L735.051 113.98V106.375L766.576 122.105V126.655L735.051 140.565V132.96Z" fill="#EEF0E4"/>
</g>
</g>
<defs>
<pattern id="pattern0" patternContentUnits="objectBoundingBox" width="1" height="1">
<use xlink:href="#image0_19_9" transform="matrix(0.000330688 0 0 0.000277366 0 -0.0144928)"/>
</pattern>
</defs>
</svg>
