<svg width="390" height="806" viewBox="0 0 390 806" fill="none" xmlns="http://www.w3.org/2000/svg">
<g id="mobile">
<g id="OPENING SEPTEMBER 2023 &#60;8&#62; &#60;8&#62; &#60;8&#62; &#60;8&#62; &#60;8&#62; &#60;8&#62; CARDINAL GIFT SHOP APPAREL &#38; HOME YOU ARE GETTING VERY SLEEPY 115 SOUTH OXFORD ST. BROOKLYN, NY 11217">
<path d="M121.907 0.470947C129.603 0.470947 134.672 6.57595 134.672 13.9759C134.672 21.4869 129.603 27.5919 121.907 27.5919C114.248 27.5919 109.216 21.4869 109.216 13.9759C109.216 6.57595 114.248 0.470947 121.907 0.470947ZM121.907 21.7089C125.829 21.7089 128.345 18.4529 128.345 14.0499C128.345 9.64695 125.829 6.31695 121.907 6.31695C118.022 6.31695 115.506 9.64695 115.506 14.0499C115.506 18.4529 118.022 21.7089 121.907 21.7089Z" fill="#EEF0E4"/>
<path d="M150.584 1.02595C156.171 1.02595 159.168 5.20695 159.168 9.09195C159.168 13.0139 156.134 17.1579 150.584 17.1579H144.479V26.9999H138.374V1.02595H150.584ZM150.288 11.6449C152.027 11.6449 152.841 10.4239 152.841 9.09195C152.841 7.75995 152.027 6.57595 150.288 6.57595H144.479V11.6449H150.288Z" fill="#EEF0E4"/>
<path d="M168.616 21.4499H179.679V26.9999H162.511V1.02595H179.679V6.57595H168.616V11.1269H177.496V16.6769H168.616V21.4499Z" fill="#EEF0E4"/>
<path d="M184.118 26.9999V1.02595H189.372L199.473 15.2339V1.02595H205.578V26.9999H200.287L190.223 12.9769V26.9999H184.118Z" fill="#EEF0E4"/>
<path d="M216.853 1.02595V26.9999H210.748V1.02595H216.853Z" fill="#EEF0E4"/>
<path d="M222.022 26.9999V1.02595H227.276L237.377 15.2339V1.02595H243.482V26.9999H238.191L228.127 12.9769V26.9999H222.022Z" fill="#EEF0E4"/>
<path d="M270.148 12.3849V26.9999H265.523L264.931 24.4469C263.377 26.7409 260.972 27.5919 258.456 27.5919C253.054 27.5919 247.171 23.6329 247.171 14.2349C247.171 4.61495 253.35 0.470947 259.27 0.470947C263.932 0.470947 268.483 3.06095 269.852 8.01895L264.228 9.83195C263.784 7.68595 261.638 6.31695 259.381 6.31695C256.458 6.31695 253.35 8.57395 253.35 14.1979C253.35 19.9329 256.569 21.8939 259.455 21.8939C261.971 21.8939 264.228 20.3769 264.524 17.9349H258.308V12.3849H270.148Z" fill="#EEF0E4"/>
<path d="M49.1734 55.0559C49.1734 56.7579 50.9124 57.4239 53.0954 58.1269C56.6104 59.2739 61.1984 60.5319 61.1984 66.2669C61.1984 71.9279 56.7584 74.5919 52.2444 74.5919C47.8414 74.5919 43.2904 72.0389 42.4024 66.7109L48.3224 65.0829C48.5074 67.9689 50.5794 69.0789 52.3184 69.0789C53.7614 69.0789 55.1304 68.1539 55.1304 66.6369C55.1304 64.8979 53.3174 64.1209 50.9864 63.3439C48.1374 62.382 43.3644 61.0499 43.3644 55.3149C43.3644 49.9499 47.5454 47.4709 51.6894 47.4709C55.2784 47.4709 59.0894 49.3579 60.3844 53.3539L55.1304 55.3149C54.7974 53.6129 53.0954 52.7989 51.7634 52.7989C50.4314 52.7989 49.1734 53.6129 49.1734 55.0559Z" fill="#EEF0E4"/>
<path d="M71.2017 68.4499H82.2647V73.9999H65.0967V48.0259H82.2647V53.5759H71.2017V58.1269H80.0817V63.6769H71.2017V68.4499Z" fill="#EEF0E4"/>
<path d="M98.9141 48.0259C104.501 48.0259 107.498 52.2069 107.498 56.0919C107.498 60.0139 104.464 64.1579 98.9141 64.1579H92.8091V73.9999H86.7041V48.0259H98.9141ZM98.6181 58.6449C100.357 58.6449 101.171 57.4239 101.171 56.0919C101.171 54.7599 100.357 53.5759 98.6181 53.5759H92.8091V58.6449H98.6181Z" fill="#EEF0E4"/>
<path d="M116.28 53.5759H108.806V48.0259H129.822V53.5759H122.348V73.9999H116.28V53.5759Z" fill="#EEF0E4"/>
<path d="M139.059 68.4499H150.122V73.9999H132.954V48.0259H150.122V53.5759H139.059V58.1269H147.939V63.6769H139.059V68.4499Z" fill="#EEF0E4"/>
<path d="M165.588 70.7439L160.667 61.1239V73.9999H154.562V48.0259H160.038L167.919 63.4549L175.8 48.0259H181.276V73.9999H175.208V61.1239L170.25 70.7439H165.588Z" fill="#EEF0E4"/>
<path d="M202.192 59.8289C204.967 60.902 206.41 63.3439 206.41 65.9339C206.41 69.7819 203.228 73.9999 197.308 73.9999H186.467V48.0259H197.012C202.562 48.0259 205.078 51.6149 205.078 54.9079C205.078 57.0539 203.968 58.867 202.192 59.8289ZM192.572 57.9789H196.494C198.048 57.9789 198.825 56.8689 198.825 55.7959C198.825 54.6859 198.048 53.5759 196.42 53.5759H192.572V57.9789ZM197.197 68.4499C199.121 68.4499 200.12 67.007 200.12 65.6749C200.12 64.3429 199.195 63.0479 197.197 63.0479H192.572V68.4499H197.197Z" fill="#EEF0E4"/>
<path d="M216.203 68.4499H227.266V73.9999H210.098V48.0259H227.266V53.5759H216.203V58.1269H225.083V63.6769H216.203V68.4499Z" fill="#EEF0E4"/>
<path d="M246.542 62.6409L253.572 73.9999H246.468L240.548 64.1579H237.81V73.9999H231.705V48.0259H243.693C249.28 48.0259 252.092 51.6889 252.092 55.3889C252.092 58.4599 250.205 61.5309 246.542 62.6409ZM243.027 58.6449C244.914 58.6449 245.839 57.3129 245.839 56.0549C245.839 54.7969 244.988 53.5759 243.249 53.5759H237.81V58.6449H243.027Z" fill="#EEF0E4"/>
<path d="M271.502 68.2279H281.714V73.9999H263.658V68.9679C270.651 63.6769 275.387 60.4579 275.387 56.7579C275.387 54.6859 274.018 53.4279 271.946 53.4279C269.726 53.4279 268.135 54.9079 268.135 57.1649C268.135 57.4979 268.172 57.7939 268.209 58.0899L263.288 58.3489C263.214 57.9419 263.214 57.7199 263.214 57.4609C263.214 50.7269 268.061 48.0259 272.464 48.0259C276.83 48.0259 280.863 50.7269 280.863 55.9439C280.863 60.9389 277.163 63.8619 271.502 68.2279Z" fill="#EEF0E4"/>
<path d="M293.843 48.0259C300.466 48.0259 304.092 53.6129 304.092 61.3459C304.092 69.0419 300.466 74.5919 293.843 74.5919C287.183 74.5919 283.557 69.0419 283.557 61.3459C283.557 53.6129 287.183 48.0259 293.843 48.0259ZM293.843 69.0789C296.692 69.0789 298.246 66.7109 298.246 61.3459C298.246 55.9069 296.692 53.5759 293.843 53.5759C290.994 53.5759 289.44 55.9069 289.44 61.3459C289.44 66.7109 290.994 69.0789 293.843 69.0789Z" fill="#EEF0E4"/>
<path d="M314.609 68.2279H324.821V73.9999H306.765V68.9679C313.758 63.6769 318.494 60.4579 318.494 56.7579C318.494 54.6859 317.125 53.4279 315.053 53.4279C312.833 53.4279 311.242 54.9079 311.242 57.1649C311.242 57.4979 311.279 57.7939 311.316 58.0899L306.395 58.3489C306.321 57.9419 306.321 57.7199 306.321 57.4609C306.321 50.7269 311.168 48.0259 315.571 48.0259C319.937 48.0259 323.97 50.7269 323.97 55.9439C323.97 60.9389 320.27 63.8619 314.609 68.2279Z" fill="#EEF0E4"/>
<path d="M338.902 58.6449C343.379 58.7559 346.043 61.6049 346.043 65.6009C346.043 71.2619 341.196 74.5919 336.312 74.5919C332.501 74.5919 328.653 72.5569 327.025 68.0799L332.353 66.0819C333.019 68.0799 334.758 69.0789 336.534 69.0789C338.384 69.0789 340.16 67.9319 340.16 65.8229C340.16 63.6399 338.384 62.7889 336.497 62.7889C335.202 62.7889 333.87 63.1959 333.019 63.8989L330.762 60.1249L337.533 54.1679H327.913V48.4329H344.748V53.8349L338.902 58.6449Z" fill="#EEF0E4"/>
<path d="M154.324 139.426L141.714 133.862V132.042L154.324 125.75V128.792L145.64 132.822L154.324 136.384V139.426Z" fill="#EEF0E4"/>
<path d="M166.29 132.666C167.798 133.212 169.462 134.59 169.462 137.112C169.462 140.622 166.368 142.416 162.884 142.416C159.348 142.416 156.254 140.622 156.254 137.112C156.254 134.59 157.918 133.212 159.452 132.666C157.866 132.12 156.592 130.846 156.592 128.792C156.592 125.698 159.27 123.748 162.884 123.748C166.472 123.748 169.15 125.698 169.15 128.792C169.15 130.846 167.85 132.12 166.29 132.666ZM162.884 127.544C161.61 127.544 160.726 128.09 160.726 129.156C160.726 130.17 161.532 130.95 162.884 130.95C164.184 130.95 165.042 130.17 165.042 129.156C165.042 128.09 164.106 127.544 162.884 127.544ZM162.884 138.568C164.314 138.568 165.328 137.866 165.328 136.618C165.328 135.344 164.366 134.59 162.884 134.59C161.376 134.59 160.414 135.344 160.414 136.618C160.414 137.866 161.402 138.568 162.884 138.568Z" fill="#EEF0E4"/>
<path d="M171.37 136.384L180.054 132.822L171.37 128.792V125.75L183.98 132.042V133.862L171.37 139.426V136.384Z" fill="#EEF0E4"/>
<path d="M217.597 139.426L204.987 133.862V132.042L217.597 125.75V128.792L208.913 132.822L217.597 136.384V139.426Z" fill="#EEF0E4"/>
<path d="M229.564 132.666C231.072 133.212 232.736 134.59 232.736 137.112C232.736 140.622 229.642 142.416 226.158 142.416C222.622 142.416 219.528 140.622 219.528 137.112C219.528 134.59 221.192 133.212 222.726 132.666C221.14 132.12 219.866 130.846 219.866 128.792C219.866 125.698 222.544 123.748 226.158 123.748C229.746 123.748 232.424 125.698 232.424 128.792C232.424 130.846 231.124 132.12 229.564 132.666ZM226.158 127.544C224.884 127.544 224 128.09 224 129.156C224 130.17 224.806 130.95 226.158 130.95C227.458 130.95 228.316 130.17 228.316 129.156C228.316 128.09 227.38 127.544 226.158 127.544ZM226.158 138.568C227.588 138.568 228.602 137.866 228.602 136.618C228.602 135.344 227.64 134.59 226.158 134.59C224.65 134.59 223.688 135.344 223.688 136.618C223.688 137.866 224.676 138.568 226.158 138.568Z" fill="#EEF0E4"/>
<path d="M234.643 136.384L243.327 132.822L234.643 128.792V125.75L247.253 132.042V133.862L234.643 139.426V136.384Z" fill="#EEF0E4"/>
<path d="M134.645 187.842L114.275 178.854V175.914L134.645 165.75V170.664L120.617 177.174L134.645 182.928V187.842Z" fill="#EEF0E4"/>
<path d="M153.976 176.922C156.412 177.804 159.1 180.03 159.1 184.104C159.1 189.774 154.102 192.672 148.474 192.672C142.762 192.672 137.764 189.774 137.764 184.104C137.764 180.03 140.452 177.804 142.93 176.922C140.368 176.04 138.31 173.982 138.31 170.664C138.31 165.666 142.636 162.516 148.474 162.516C154.27 162.516 158.596 165.666 158.596 170.664C158.596 173.982 156.496 176.04 153.976 176.922ZM148.474 168.648C146.416 168.648 144.988 169.53 144.988 171.252C144.988 172.89 146.29 174.15 148.474 174.15C150.574 174.15 151.96 172.89 151.96 171.252C151.96 169.53 150.448 168.648 148.474 168.648ZM148.474 186.456C150.784 186.456 152.422 185.322 152.422 183.306C152.422 181.248 150.868 180.03 148.474 180.03C146.038 180.03 144.484 181.248 144.484 183.306C144.484 185.322 146.08 186.456 148.474 186.456Z" fill="#EEF0E4"/>
<path d="M162.181 182.928L176.209 177.174L162.181 170.664V165.75L182.551 175.914V178.854L162.181 187.842V182.928Z" fill="#EEF0E4"/>
<path d="M226.766 187.842L206.396 178.854V175.914L226.766 165.75V170.664L212.738 177.174L226.766 182.928V187.842Z" fill="#EEF0E4"/>
<path d="M246.097 176.922C248.533 177.804 251.221 180.03 251.221 184.104C251.221 189.774 246.223 192.672 240.595 192.672C234.883 192.672 229.885 189.774 229.885 184.104C229.885 180.03 232.573 177.804 235.051 176.922C232.489 176.04 230.431 173.982 230.431 170.664C230.431 165.666 234.757 162.516 240.595 162.516C246.391 162.516 250.717 165.666 250.717 170.664C250.717 173.982 248.617 176.04 246.097 176.922ZM240.595 168.648C238.537 168.648 237.109 169.53 237.109 171.252C237.109 172.89 238.411 174.15 240.595 174.15C242.695 174.15 244.081 172.89 244.081 171.252C244.081 169.53 242.569 168.648 240.595 168.648ZM240.595 186.456C242.905 186.456 244.543 185.322 244.543 183.306C244.543 181.248 242.989 180.03 240.595 180.03C238.159 180.03 236.605 181.248 236.605 183.306C236.605 185.322 238.201 186.456 240.595 186.456Z" fill="#EEF0E4"/>
<path d="M254.302 182.928L268.33 177.174L254.302 170.664V165.75L274.672 175.914V178.854L254.302 187.842V182.928Z" fill="#EEF0E4"/>
<path d="M109.674 263.565L78.1494 249.655V245.105L109.674 229.375V236.98L87.9644 247.055L109.674 255.96V263.565Z" fill="#EEF0E4"/>
<path d="M139.592 246.665C143.362 248.03 147.522 251.475 147.522 257.78C147.522 266.555 139.787 271.04 131.077 271.04C122.237 271.04 114.502 266.555 114.502 257.78C114.502 251.475 118.662 248.03 122.497 246.665C118.532 245.3 115.347 242.115 115.347 236.98C115.347 229.245 122.042 224.37 131.077 224.37C140.047 224.37 146.742 229.245 146.742 236.98C146.742 242.115 143.492 245.3 139.592 246.665ZM131.077 233.86C127.892 233.86 125.682 235.225 125.682 237.89C125.682 240.425 127.697 242.375 131.077 242.375C134.327 242.375 136.472 240.425 136.472 237.89C136.472 235.225 134.132 233.86 131.077 233.86ZM131.077 261.42C134.652 261.42 137.187 259.665 137.187 256.545C137.187 253.36 134.782 251.475 131.077 251.475C127.307 251.475 124.902 253.36 124.902 256.545C124.902 259.665 127.372 261.42 131.077 261.42Z" fill="#EEF0E4"/>
<path d="M152.29 255.96L174 247.055L152.29 236.98V229.375L183.815 245.105V249.655L152.29 263.565V255.96Z" fill="#EEF0E4"/>
<path d="M236.628 263.565L205.102 249.655V245.105L236.628 229.375V236.98L214.917 247.055L236.628 255.96V263.565Z" fill="#EEF0E4"/>
<path d="M266.545 246.665C270.315 248.03 274.475 251.475 274.475 257.78C274.475 266.555 266.74 271.04 258.03 271.04C249.19 271.04 241.455 266.555 241.455 257.78C241.455 251.475 245.615 248.03 249.45 246.665C245.485 245.3 242.3 242.115 242.3 236.98C242.3 229.245 248.995 224.37 258.03 224.37C267 224.37 273.695 229.245 273.695 236.98C273.695 242.115 270.445 245.3 266.545 246.665ZM258.03 233.86C254.845 233.86 252.635 235.225 252.635 237.89C252.635 240.425 254.65 242.375 258.03 242.375C261.28 242.375 263.425 240.425 263.425 237.89C263.425 235.225 261.085 233.86 258.03 233.86ZM258.03 261.42C261.605 261.42 264.14 259.665 264.14 256.545C264.14 253.36 261.735 251.475 258.03 251.475C254.26 251.475 251.855 253.36 251.855 256.545C251.855 259.665 254.325 261.42 258.03 261.42Z" fill="#EEF0E4"/>
<path d="M279.243 255.96L300.953 247.055L279.243 236.98V229.375L310.768 245.105V249.655L279.243 263.565V255.96Z" fill="#EEF0E4"/>
<path d="M60.8208 340.445C57.6258 350.669 48.2538 356.136 38.8108 356.136C27.1668 356.136 15.5938 347.9 15.5938 330.15C15.5938 312.258 27.3798 304.093 38.8108 304.093C47.8278 304.093 56.6318 309.134 59.1167 318.577L48.3247 322.056C47.4727 317.938 43.4258 315.311 39.0948 315.311C33.5568 315.311 27.6637 319.571 27.6637 329.937C27.6637 340.374 33.4858 344.705 39.2368 344.705C44.2068 344.705 49.2477 341.439 50.3838 335.901L60.8208 340.445Z" fill="#EEF0E4"/>
<path d="M100.935 355L97.1012 344.989H78.3572L74.5232 355H61.5302L82.5462 305.158H92.9832L113.928 355H100.935ZM82.4042 334.41H93.0542L87.7292 320.423L82.4042 334.41Z" fill="#EEF0E4"/>
<path d="M148.066 333.203L161.556 355H147.924L136.564 336.114H131.31V355H119.595V305.158H142.599C153.32 305.158 158.716 312.187 158.716 319.287C158.716 325.18 155.095 331.073 148.066 333.203ZM141.321 325.535C144.942 325.535 146.717 322.979 146.717 320.565C146.717 318.151 145.084 315.808 141.747 315.808H131.31V325.535H141.321Z" fill="#EEF0E4"/>
<path d="M183.968 355H167.922V305.158H185.53C201.079 305.158 208.96 316.802 208.96 329.085C208.96 341.652 200.795 355 183.968 355ZM185.033 315.808H179.637V344.35H183.542C192.559 344.35 196.89 336.185 196.89 328.872C196.89 321.914 192.914 315.808 185.033 315.808Z" fill="#EEF0E4"/>
<path d="M227.756 305.158V355H216.041V305.158H227.756Z" fill="#EEF0E4"/>
<path d="M237.674 355V305.158H247.756L267.139 332.422V305.158H278.854V355H268.701L249.389 328.091V355H237.674Z" fill="#EEF0E4"/>
<path d="M323.92 355L320.086 344.989H301.342L297.508 355H284.515L305.531 305.158H315.968L336.913 355H323.92ZM305.389 334.41H316.039L310.714 320.423L305.389 334.41Z" fill="#EEF0E4"/>
<path d="M354.294 344.35H373.393V355H342.579V305.158H354.294V344.35Z" fill="#EEF0E4"/>
<path d="M62.0075 398.955V427H53.1325L51.9965 422.101C49.0145 426.503 44.3995 428.136 39.5715 428.136C29.2055 428.136 17.9165 420.539 17.9165 402.505C17.9165 384.045 29.7735 376.093 41.1335 376.093C50.0795 376.093 58.8125 381.063 61.4395 390.577L50.6475 394.056C49.7955 389.938 45.6775 387.311 41.3465 387.311C35.7375 387.311 29.7735 391.642 29.7735 402.434C29.7735 413.439 35.9505 417.202 41.4885 417.202C46.3165 417.202 50.6475 414.291 51.2155 409.605H39.2875V398.955H62.0075Z" fill="#EEF0E4"/>
<path d="M82.2547 377.158V427H70.5397V377.158H82.2547Z" fill="#EEF0E4"/>
<path d="M103.888 407.191V427H92.1725V377.158H124.336V387.808H103.888V396.541H120.289V407.191H103.888Z" fill="#EEF0E4"/>
<path d="M141.16 387.808H126.818V377.158H167.146V387.808H152.804V427H141.16V387.808Z" fill="#EEF0E4"/>
<path d="M197.169 390.648C197.169 393.914 200.506 395.192 204.695 396.541C211.44 398.742 220.244 401.156 220.244 412.161C220.244 423.024 211.724 428.136 203.062 428.136C194.613 428.136 185.88 423.237 184.176 413.013L195.536 409.889C195.891 415.427 199.867 417.557 203.204 417.557C205.973 417.557 208.6 415.782 208.6 412.871C208.6 409.534 205.121 408.043 200.648 406.552C195.181 404.706 186.022 402.15 186.022 391.145C186.022 380.85 194.045 376.093 201.997 376.093C208.884 376.093 216.197 379.714 218.682 387.382L208.6 391.145C207.961 387.879 204.695 386.317 202.139 386.317C199.583 386.317 197.169 387.879 197.169 390.648Z" fill="#EEF0E4"/>
<path d="M257.118 396.683V377.158H268.833V427H257.118V407.333H239.439V427H227.724V377.158H239.439V396.683H257.118Z" fill="#EEF0E4"/>
<path d="M300.269 376.093C315.037 376.093 324.764 387.808 324.764 402.008C324.764 416.421 315.037 428.136 300.269 428.136C285.572 428.136 275.916 416.421 275.916 402.008C275.916 387.808 285.572 376.093 300.269 376.093ZM300.269 416.847C307.795 416.847 312.623 410.599 312.623 402.15C312.623 393.701 307.795 387.311 300.269 387.311C292.814 387.311 287.986 393.701 287.986 402.15C287.986 410.599 292.814 416.847 300.269 416.847Z" fill="#EEF0E4"/>
<path d="M355.297 377.158C366.018 377.158 371.769 385.181 371.769 392.636C371.769 400.162 365.947 408.114 355.297 408.114H343.582V427H331.867V377.158H355.297ZM354.729 397.535C358.066 397.535 359.628 395.192 359.628 392.636C359.628 390.08 358.066 387.808 354.729 387.808H343.582V397.535H354.729Z" fill="#EEF0E4"/>
<path d="M55.8785 491L53.8805 485.783H44.1125L42.1145 491H35.3435L46.2955 465.026H51.7345L62.6495 491H55.8785ZM46.2215 480.27H51.7715L48.9965 472.981L46.2215 480.27Z" fill="#EEF0E4"/>
<path d="M77.8126 465.026C83.3996 465.026 86.3966 469.207 86.3966 473.092C86.3966 477.014 83.3626 481.158 77.8126 481.158H71.7076V491H65.6026V465.026H77.8126ZM77.5166 475.645C79.2556 475.645 80.0696 474.424 80.0696 473.092C80.0696 471.76 79.2556 470.576 77.5166 470.576H71.7076V475.645H77.5166Z" fill="#EEF0E4"/>
<path d="M101.949 465.026C107.536 465.026 110.533 469.207 110.533 473.092C110.533 477.014 107.499 481.158 101.949 481.158H95.8443V491H89.7393V465.026H101.949ZM101.653 475.645C103.392 475.645 104.206 474.424 104.206 473.092C104.206 471.76 103.392 470.576 101.653 470.576H95.8443V475.645H101.653Z" fill="#EEF0E4"/>
<path d="M128.505 491L126.507 485.783H116.739L114.741 491H107.97L118.922 465.026H124.361L135.276 491H128.505ZM118.848 480.27H124.398L121.623 472.981L118.848 480.27Z" fill="#EEF0E4"/>
<path d="M153.067 479.641L160.097 491H152.993L147.073 481.158H144.335V491H138.23V465.026H150.218C155.805 465.026 158.617 468.689 158.617 472.389C158.617 475.46 156.73 478.531 153.067 479.641ZM149.552 475.645C151.439 475.645 152.364 474.313 152.364 473.055C152.364 471.797 151.513 470.576 149.774 470.576H144.335V475.645H149.552Z" fill="#EEF0E4"/>
<path d="M169.519 485.45H180.582V491H163.414V465.026H180.582V470.576H169.519V475.127H178.399V480.677H169.519V485.45Z" fill="#EEF0E4"/>
<path d="M191.127 485.45H201.08V491H185.022V465.026H191.127V485.45Z" fill="#EEF0E4"/>
<path d="M221.073 464.212C222.504 464.212 223.774 464.434 224.884 464.878C225.994 465.322 226.87 465.976 227.511 466.839C228.153 467.678 228.473 468.714 228.473 469.947C228.473 471.649 227.968 473.08 226.956 474.239C225.945 475.398 224.687 476.41 223.182 477.273L228.325 482.268C228.819 481.429 229.25 480.554 229.62 479.641C229.99 478.704 230.299 477.766 230.545 476.829H236.28C235.91 478.21 235.368 479.69 234.652 481.269C233.937 482.848 233.024 484.328 231.914 485.709L237.353 491H230.545L228.473 488.965C227.931 489.335 227.363 489.668 226.771 489.964C226.179 490.26 225.563 490.519 224.921 490.741C224.28 490.938 223.602 491.086 222.886 491.185C222.171 491.308 221.431 491.37 220.666 491.37C218.668 491.37 216.954 491.062 215.523 490.445C214.093 489.804 212.995 488.916 212.23 487.781C211.466 486.646 211.083 485.339 211.083 483.859C211.083 482.601 211.268 481.528 211.638 480.64C212.033 479.727 212.588 478.938 213.303 478.272C214.043 477.581 214.919 476.952 215.93 476.385C215.289 475.645 214.771 474.954 214.376 474.313C214.006 473.647 213.735 472.993 213.562 472.352C213.414 471.711 213.34 471.032 213.34 470.317C213.34 469.059 213.661 467.974 214.302 467.061C214.968 466.148 215.881 465.445 217.04 464.952C218.224 464.459 219.569 464.212 221.073 464.212ZM219.149 479.678C218.681 480.023 218.274 480.381 217.928 480.751C217.608 481.121 217.349 481.516 217.151 481.935C216.979 482.354 216.892 482.823 216.892 483.341C216.892 484.402 217.287 485.24 218.076 485.857C218.866 486.449 219.852 486.745 221.036 486.745C221.826 486.745 222.566 486.646 223.256 486.449C223.947 486.252 224.576 485.98 225.143 485.635L219.149 479.678ZM221.036 468.467C220.42 468.467 219.828 468.627 219.26 468.948C218.718 469.244 218.446 469.824 218.446 470.687C218.446 471.304 218.594 471.896 218.89 472.463C219.211 473.03 219.63 473.61 220.148 474.202C221.184 473.635 221.974 473.067 222.516 472.5C223.084 471.933 223.367 471.279 223.367 470.539C223.367 469.799 223.121 469.269 222.627 468.948C222.134 468.627 221.604 468.467 221.036 468.467Z" fill="#EEF0E4"/>
<path d="M264.15 475.201V465.026H270.255V491H264.15V480.751H254.937V491H248.832V465.026H254.937V475.201H264.15Z" fill="#EEF0E4"/>
<path d="M286.637 464.471C294.333 464.471 299.402 470.576 299.402 477.976C299.402 485.487 294.333 491.592 286.637 491.592C278.978 491.592 273.946 485.487 273.946 477.976C273.946 470.576 278.978 464.471 286.637 464.471ZM286.637 485.709C290.559 485.709 293.075 482.453 293.075 478.05C293.075 473.647 290.559 470.317 286.637 470.317C282.752 470.317 280.236 473.647 280.236 478.05C280.236 482.453 282.752 485.709 286.637 485.709Z" fill="#EEF0E4"/>
<path d="M314.13 487.744L309.209 478.124V491H303.104V465.026H308.58L316.461 480.455L324.342 465.026H329.818V491H323.75V478.124L318.792 487.744H314.13Z" fill="#EEF0E4"/>
<path d="M341.114 485.45H352.177V491H335.009V465.026H352.177V470.576H341.114V475.127H349.994V480.677H341.114V485.45Z" fill="#EEF0E4"/>
<path d="M163.035 523.96L157.855 532.24V538H154.575V532.24L149.395 523.96H153.255L156.215 529.16L159.155 523.96H163.035Z" fill="#EEF0E4"/>
<path d="M169.606 523.66C173.766 523.66 176.506 526.96 176.506 530.96C176.506 535.02 173.766 538.32 169.606 538.32C165.466 538.32 162.746 535.02 162.746 530.96C162.746 526.96 165.466 523.66 169.606 523.66ZM169.606 535.14C171.726 535.14 173.086 533.38 173.086 531C173.086 528.62 171.726 526.82 169.606 526.82C167.506 526.82 166.146 528.62 166.146 531C166.146 533.38 167.506 535.14 169.606 535.14Z" fill="#EEF0E4"/>
<path d="M189.427 523.96V532.72C189.427 535.92 187.407 538.32 183.867 538.32C180.307 538.32 178.307 535.92 178.307 532.72V523.96H181.567V532.56C181.567 533.96 182.247 535.14 183.867 535.14C185.487 535.14 186.167 533.96 186.167 532.56V523.96H189.427Z" fill="#EEF0E4"/>
<path d="M206.142 538L205.062 535.18H199.782L198.702 538H195.042L200.962 523.96H203.902L209.802 538H206.142ZM200.922 532.2H203.922L202.422 528.26L200.922 532.2Z" fill="#EEF0E4"/>
<path d="M219.418 531.86L223.218 538H219.378L216.178 532.68H214.698V538H211.398V523.96H217.878C220.898 523.96 222.418 525.94 222.418 527.94C222.418 529.6 221.398 531.26 219.418 531.86ZM217.518 529.7C218.538 529.7 219.038 528.98 219.038 528.3C219.038 527.62 218.578 526.96 217.638 526.96H214.698V529.7H217.518Z" fill="#EEF0E4"/>
<path d="M228.311 535H234.291V538H225.011V523.96H234.291V526.96H228.311V529.42H233.111V532.42H228.311V535Z" fill="#EEF0E4"/>
<path d="M165.264 554.1V562H162.764L162.444 560.62C161.604 561.86 160.304 562.32 158.944 562.32C156.024 562.32 152.844 560.18 152.844 555.1C152.844 549.9 156.184 547.66 159.384 547.66C161.904 547.66 164.364 549.06 165.104 551.74L162.064 552.72C161.824 551.56 160.664 550.82 159.444 550.82C157.864 550.82 156.184 552.04 156.184 555.08C156.184 558.18 157.924 559.24 159.484 559.24C160.844 559.24 162.064 558.42 162.224 557.1H158.864V554.1H165.264Z" fill="#EEF0E4"/>
<path d="M170.967 559H176.947V562H167.667V547.96H176.947V550.96H170.967V553.42H175.767V556.42H170.967V559Z" fill="#EEF0E4"/>
<path d="M182.287 550.96H178.247V547.96H189.607V550.96H185.567V562H182.287V550.96Z" fill="#EEF0E4"/>
<path d="M194.631 550.96H190.591V547.96H201.951V550.96H197.911V562H194.631V550.96Z" fill="#EEF0E4"/>
<path d="M206.944 547.96V562H203.644V547.96H206.944Z" fill="#EEF0E4"/>
<path d="M209.738 562V547.96H212.578L218.038 555.64V547.96H221.338V562H218.478L213.038 554.42V562H209.738Z" fill="#EEF0E4"/>
<path d="M235.752 554.1V562H233.252L232.932 560.62C232.092 561.86 230.792 562.32 229.432 562.32C226.512 562.32 223.332 560.18 223.332 555.1C223.332 549.9 226.672 547.66 229.872 547.66C232.392 547.66 234.852 549.06 235.592 551.74L232.552 552.72C232.312 551.56 231.152 550.82 229.932 550.82C228.352 550.82 226.672 552.04 226.672 555.08C226.672 558.18 228.412 559.24 229.972 559.24C231.332 559.24 232.552 558.42 232.712 557.1H229.352V554.1H235.752Z" fill="#EEF0E4"/>
<path d="M175.328 580.86L178.308 571.96H181.808L176.768 586H173.908L168.848 571.96H172.328L175.328 580.86Z" fill="#EEF0E4"/>
<path d="M186.612 583H192.592V586H183.312V571.96H192.592V574.96H186.612V577.42H191.412V580.42H186.612V583Z" fill="#EEF0E4"/>
<path d="M203.012 579.86L206.812 586H202.972L199.772 580.68H198.292V586H194.992V571.96H201.472C204.492 571.96 206.012 573.94 206.012 575.94C206.012 577.6 204.992 579.26 203.012 579.86ZM201.112 577.7C202.132 577.7 202.632 576.98 202.632 576.3C202.632 575.62 202.172 574.96 201.232 574.96H198.292V577.7H201.112Z" fill="#EEF0E4"/>
<path d="M220.144 571.96L214.964 580.24V586H211.684V580.24L206.504 571.96H210.364L213.324 577.16L216.264 571.96H220.144Z" fill="#EEF0E4"/>
<path d="M162.605 599.76C162.605 600.68 163.545 601.04 164.725 601.42C166.625 602.04 169.105 602.72 169.105 605.82C169.105 608.88 166.705 610.32 164.265 610.32C161.885 610.32 159.425 608.94 158.945 606.06L162.145 605.18C162.245 606.74 163.365 607.34 164.305 607.34C165.085 607.34 165.825 606.84 165.825 606.02C165.825 605.08 164.845 604.66 163.585 604.24C162.045 603.72 159.465 603 159.465 599.9C159.465 597 161.725 595.66 163.965 595.66C165.905 595.66 167.965 596.68 168.665 598.84L165.825 599.9C165.645 598.98 164.725 598.54 164.005 598.54C163.285 598.54 162.605 598.98 162.605 599.76Z" fill="#EEF0E4"/>
<path d="M174.512 607H179.892V610H171.212V595.96H174.512V607Z" fill="#EEF0E4"/>
<path d="M185.196 607H191.176V610H181.896V595.96H191.176V598.96H185.196V601.42H189.996V604.42H185.196V607Z" fill="#EEF0E4"/>
<path d="M196.876 607H202.856V610H193.576V595.96H202.856V598.96H196.876V601.42H201.676V604.42H196.876V607Z" fill="#EEF0E4"/>
<path d="M211.855 595.96C214.875 595.96 216.495 598.22 216.495 600.32C216.495 602.44 214.855 604.68 211.855 604.68H208.555V610H205.255V595.96H211.855ZM211.695 601.7C212.635 601.7 213.075 601.04 213.075 600.32C213.075 599.6 212.635 598.96 211.695 598.96H208.555V601.7H211.695Z" fill="#EEF0E4"/>
<path d="M230.447 595.96L225.267 604.24V610H221.987V604.24L216.807 595.96H220.667L223.627 601.16L226.567 595.96H230.447Z" fill="#EEF0E4"/>
<path d="M28.975 649.616V645.09C31.145 645.09 32.571 644.346 33.594 642.579H37.686V664H32.726V649.089C31.641 649.492 30.246 649.616 28.975 649.616Z" fill="#EEF0E4"/>
<path d="M41.5688 649.616V645.09C43.7388 645.09 45.1648 644.346 46.1878 642.579H50.2798V664H45.3198V649.089C44.2348 649.492 42.8398 649.616 41.5688 649.616Z" fill="#EEF0E4"/>
<path d="M70.7785 656.436C70.7785 661.737 66.7485 664.496 62.5015 664.496C58.9985 664.496 55.4335 662.636 54.2865 659.226L58.7195 657.583C59.2155 659.04 60.8585 659.877 62.4085 659.877C64.2065 659.877 65.8805 658.761 65.8805 656.746C65.8805 654.731 64.4235 653.832 62.7185 653.832C61.3855 653.832 59.9595 654.452 59.2155 655.63L55.4025 654.111V642.579H69.2285V647.384H59.9905V650.856C61.1375 650.05 62.5635 649.647 63.8965 649.647C67.2755 649.647 70.7785 651.693 70.7785 656.436Z" fill="#EEF0E4"/>
<path d="M85.9542 648.128C85.9542 649.554 87.4112 650.112 89.2402 650.701C92.1852 651.662 96.0292 652.716 96.0292 657.521C96.0292 662.264 92.3092 664.496 88.5272 664.496C84.8382 664.496 81.0252 662.357 80.2812 657.893L85.2412 656.529C85.3962 658.947 87.1322 659.877 88.5892 659.877C89.7982 659.877 90.9452 659.102 90.9452 657.831C90.9452 656.374 89.4262 655.723 87.4732 655.072C85.0862 654.266 81.0872 653.15 81.0872 648.345C81.0872 643.85 84.5902 641.773 88.0622 641.773C91.0692 641.773 94.2622 643.354 95.3472 646.702L90.9452 648.345C90.6662 646.919 89.2402 646.237 88.1242 646.237C87.0082 646.237 85.9542 646.919 85.9542 648.128Z" fill="#EEF0E4"/>
<path d="M108.688 641.773C115.136 641.773 119.383 646.888 119.383 653.088C119.383 659.381 115.136 664.496 108.688 664.496C102.271 664.496 98.0554 659.381 98.0554 653.088C98.0554 646.888 102.271 641.773 108.688 641.773ZM108.688 659.567C111.974 659.567 114.082 656.839 114.082 653.15C114.082 649.461 111.974 646.671 108.688 646.671C105.433 646.671 103.325 649.461 103.325 653.15C103.325 656.839 105.433 659.567 108.688 659.567Z" fill="#EEF0E4"/>
<path d="M139.411 642.238V655.816C139.411 660.776 136.28 664.496 130.793 664.496C125.275 664.496 122.175 660.776 122.175 655.816V642.238H127.228V655.568C127.228 657.738 128.282 659.567 130.793 659.567C133.304 659.567 134.358 657.738 134.358 655.568V642.238H139.411Z" fill="#EEF0E4"/>
<path d="M147.991 646.888H141.729V642.238H159.337V646.888H153.075V664H147.991V646.888Z" fill="#EEF0E4"/>
<path d="M174.795 650.763V642.238H179.91V664H174.795V655.413H167.076V664H161.961V642.238H167.076V650.763H174.795Z" fill="#EEF0E4"/>
<path d="M200.144 641.773C206.592 641.773 210.839 646.888 210.839 653.088C210.839 659.381 206.592 664.496 200.144 664.496C193.727 664.496 189.511 659.381 189.511 653.088C189.511 646.888 193.727 641.773 200.144 641.773ZM200.144 659.567C203.43 659.567 205.538 656.839 205.538 653.15C205.538 649.461 203.43 646.671 200.144 646.671C196.889 646.671 194.781 649.461 194.781 653.15C194.781 656.839 196.889 659.567 200.144 659.567Z" fill="#EEF0E4"/>
<path d="M225.673 664L221.705 657.521L217.768 664H211.63L218.729 653.243L211.661 642.238H217.768L221.767 648.81L225.952 642.238H231.842L224.743 653.026L231.811 664H225.673Z" fill="#EEF0E4"/>
<path d="M239.581 655.351V664H234.466V642.238H248.509V646.888H239.581V650.701H246.742V655.351H239.581Z" fill="#EEF0E4"/>
<path d="M260.691 641.773C267.139 641.773 271.386 646.888 271.386 653.088C271.386 659.381 267.139 664.496 260.691 664.496C254.274 664.496 250.058 659.381 250.058 653.088C250.058 646.888 254.274 641.773 260.691 641.773ZM260.691 659.567C263.977 659.567 266.085 656.839 266.085 653.15C266.085 649.461 263.977 646.671 260.691 646.671C257.436 646.671 255.328 649.461 255.328 653.15C255.328 656.839 257.436 659.567 260.691 659.567Z" fill="#EEF0E4"/>
<path d="M286.919 654.483L292.809 664H286.857L281.897 655.754H279.603V664H274.488V642.238H284.532C289.213 642.238 291.569 645.307 291.569 648.407C291.569 650.98 289.988 653.553 286.919 654.483ZM283.974 651.135C285.555 651.135 286.33 650.019 286.33 648.965C286.33 647.911 285.617 646.888 284.16 646.888H279.603V651.135H283.974Z" fill="#EEF0E4"/>
<path d="M302.594 664H295.588V642.238H303.276C310.065 642.238 313.506 647.322 313.506 652.685C313.506 658.172 309.941 664 302.594 664ZM303.059 646.888H300.703V659.35H302.408C306.345 659.35 308.236 655.785 308.236 652.592C308.236 649.554 306.5 646.888 303.059 646.888Z" fill="#EEF0E4"/>
<path d="M327.385 648.128C327.385 649.554 328.842 650.112 330.671 650.701C333.616 651.662 337.46 652.716 337.46 657.521C337.46 662.264 333.74 664.496 329.958 664.496C326.269 664.496 322.456 662.357 321.712 657.893L326.672 656.529C326.827 658.947 328.563 659.877 330.02 659.877C331.229 659.877 332.376 659.102 332.376 657.831C332.376 656.374 330.857 655.723 328.904 655.072C326.517 654.266 322.518 653.15 322.518 648.345C322.518 643.85 326.021 641.773 329.493 641.773C332.5 641.773 335.693 643.354 336.778 646.702L332.376 648.345C332.097 646.919 330.671 646.237 329.555 646.237C328.439 646.237 327.385 646.919 327.385 648.128Z" fill="#EEF0E4"/>
<path d="M344.98 646.888H338.718V642.238H356.326V646.888H350.064V664H344.98V646.888Z" fill="#EEF0E4"/>
<path d="M357.413 664.217C355.801 664.217 354.623 663.008 354.623 661.427C354.623 659.846 355.801 658.637 357.413 658.637C358.963 658.637 360.172 659.846 360.172 661.427C360.172 663.008 358.963 664.217 357.413 664.217Z" fill="#EEF0E4"/>
<path d="M93.61 690.127C95.935 691.026 97.144 693.072 97.144 695.242C97.144 698.466 94.478 702 89.518 702H80.435V680.238H89.27C93.92 680.238 96.028 683.245 96.028 686.004C96.028 687.802 95.098 689.321 93.61 690.127ZM85.55 688.577H88.836C90.138 688.577 90.789 687.647 90.789 686.748C90.789 685.818 90.138 684.888 88.774 684.888H85.55V688.577ZM89.425 697.35C91.037 697.35 91.874 696.141 91.874 695.025C91.874 693.909 91.099 692.824 89.425 692.824H85.55V697.35H89.425Z" fill="#EEF0E4"/>
<path d="M112.665 692.483L118.555 702H112.603L107.643 693.754H105.349V702H100.234V680.238H110.278C114.959 680.238 117.315 683.307 117.315 686.407C117.315 688.98 115.734 691.553 112.665 692.483ZM109.72 689.135C111.301 689.135 112.076 688.019 112.076 686.965C112.076 685.911 111.363 684.888 109.906 684.888H105.349V689.135H109.72Z" fill="#EEF0E4"/>
<path d="M129.789 679.773C136.237 679.773 140.484 684.888 140.484 691.088C140.484 697.381 136.237 702.496 129.789 702.496C123.372 702.496 119.156 697.381 119.156 691.088C119.156 684.888 123.372 679.773 129.789 679.773ZM129.789 697.567C133.075 697.567 135.183 694.839 135.183 691.15C135.183 687.461 133.075 684.671 129.789 684.671C126.534 684.671 124.426 687.461 124.426 691.15C124.426 694.839 126.534 697.567 129.789 697.567Z" fill="#EEF0E4"/>
<path d="M152.978 679.773C159.426 679.773 163.673 684.888 163.673 691.088C163.673 697.381 159.426 702.496 152.978 702.496C146.561 702.496 142.345 697.381 142.345 691.088C142.345 684.888 146.561 679.773 152.978 679.773ZM152.978 697.567C156.264 697.567 158.372 694.839 158.372 691.15C158.372 687.461 156.264 684.671 152.978 684.671C149.723 684.671 147.615 687.461 147.615 691.15C147.615 694.839 149.723 697.567 152.978 697.567Z" fill="#EEF0E4"/>
<path d="M186.894 680.238L178.028 688.422L186.088 702H179.764L174.184 691.987L171.89 694.095V702H166.775V680.238H171.89V688.05L179.733 680.238H186.894Z" fill="#EEF0E4"/>
<path d="M194.474 697.35H202.813V702H189.359V680.238H194.474V697.35Z" fill="#EEF0E4"/>
<path d="M223.199 680.238L215.17 693.072V702H210.086V693.072L202.057 680.238H208.04L212.628 688.298L217.185 680.238H223.199Z" fill="#EEF0E4"/>
<path d="M225.536 702V680.238H229.938L238.401 692.142V680.238H243.516V702H239.083L230.651 690.251V702H225.536Z" fill="#EEF0E4"/>
<path d="M249.49 696.327C251.505 696.327 252.683 698.156 252.683 700.853C252.683 704.077 250.854 707.363 246.607 708.045V704.821C248.188 704.418 249.583 703.302 249.862 701.566C249.676 701.597 249.49 701.628 249.335 701.628C247.816 701.628 246.638 700.884 246.638 699.055C246.638 697.319 247.909 696.327 249.49 696.327Z" fill="#EEF0E4"/>
<path d="M262.621 702V680.238H267.023L275.486 692.142V680.238H280.601V702H276.168L267.736 690.251V702H262.621Z" fill="#EEF0E4"/>
<path d="M304.059 680.238L296.03 693.072V702H290.946V693.072L282.917 680.238H288.9L293.488 688.298L298.045 680.238H304.059Z" fill="#EEF0E4"/>
<path d="M159.681 725.616V721.09C161.851 721.09 163.277 720.346 164.3 718.579H168.392V740H163.432V725.089C162.347 725.492 160.952 725.616 159.681 725.616Z" fill="#EEF0E4"/>
<path d="M172.274 725.616V721.09C174.444 721.09 175.87 720.346 176.893 718.579H180.985V740H176.025V725.089C174.94 725.492 173.545 725.616 172.274 725.616Z" fill="#EEF0E4"/>
<path d="M191.657 735.164H200.213V740H185.085V735.784C190.944 731.351 194.912 728.654 194.912 725.554C194.912 723.818 193.765 722.764 192.029 722.764C190.169 722.764 188.836 724.004 188.836 725.895C188.836 726.174 188.867 726.422 188.898 726.67L184.775 726.887C184.713 726.546 184.713 726.36 184.713 726.143C184.713 720.501 188.774 718.238 192.463 718.238C196.121 718.238 199.5 720.501 199.5 724.872C199.5 729.057 196.4 731.506 191.657 735.164Z" fill="#EEF0E4"/>
<path d="M202.215 725.616V721.09C204.385 721.09 205.811 720.346 206.834 718.579H210.926V740H205.966V725.089C204.881 725.492 203.486 725.616 202.215 725.616Z" fill="#EEF0E4"/>
<path d="M222.9 740H217.63C217.63 735.691 218.777 728.747 224.264 723.384H214.034V718.579H230.092V722.516C223.799 727.91 222.9 734.544 222.9 740Z" fill="#EEF0E4"/>
</g>
<text id="HELLOCARDINALGIFTSHOP@GMAIL.COM.com" fill="#EEF0E4" xml:space="preserve" style="white-space: pre" font-family="Akkurat-Bold" font-size="24" letter-spacing="0em"><tspan x="1.34766" y="783.28">HELLOCARDINALGIFTSHOP@GMAI</tspan><tspan x="131.402" y="911.28">L.COM.com</tspan></text>
</g>
</svg>
