<svg width="390" height="844" viewBox="0 0 390 844" fill="none" xmlns="http://www.w3.org/2000/svg">
<rect width="390" height="844" fill="white"/>
<path d="M121.907 38.4709C129.603 38.4709 134.672 44.5759 134.672 51.9759C134.672 59.4869 129.603 65.5919 121.907 65.5919C114.248 65.5919 109.216 59.4869 109.216 51.9759C109.216 44.5759 114.248 38.4709 121.907 38.4709ZM121.907 59.7089C125.829 59.7089 128.345 56.4529 128.345 52.0499C128.345 47.6469 125.829 44.3169 121.907 44.3169C118.022 44.3169 115.506 47.6469 115.506 52.0499C115.506 56.4529 118.022 59.7089 121.907 59.7089Z" fill="#EEF0E4"/>
<path d="M150.584 39.0259C156.171 39.0259 159.168 43.2069 159.168 47.0919C159.168 51.0139 156.134 55.1579 150.584 55.1579H144.479V64.9999H138.374V39.0259H150.584ZM150.288 49.6449C152.027 49.6449 152.841 48.4239 152.841 47.0919C152.841 45.7599 152.027 44.5759 150.288 44.5759H144.479V49.6449H150.288Z" fill="#EEF0E4"/>
<path d="M168.616 59.4499H179.679V64.9999H162.511V39.0259H179.679V44.5759H168.616V49.1269H177.496V54.6769H168.616V59.4499Z" fill="#EEF0E4"/>
<path d="M184.118 64.9999V39.0259H189.372L199.473 53.2339V39.0259H205.578V64.9999H200.287L190.223 50.9769V64.9999H184.118Z" fill="#EEF0E4"/>
<path d="M216.853 39.0259V64.9999H210.748V39.0259H216.853Z" fill="#EEF0E4"/>
<path d="M222.022 64.9999V39.0259H227.276L237.377 53.2339V39.0259H243.482V64.9999H238.191L228.127 50.9769V64.9999H222.022Z" fill="#EEF0E4"/>
<path d="M270.148 50.3849V64.9999H265.523L264.931 62.4469C263.377 64.7409 260.972 65.5919 258.456 65.5919C253.054 65.5919 247.171 61.6329 247.171 52.2349C247.171 42.6149 253.35 38.4709 259.27 38.4709C263.932 38.4709 268.483 41.0609 269.852 46.0189L264.228 47.8319C263.784 45.6859 261.638 44.3169 259.381 44.3169C256.458 44.3169 253.35 46.5739 253.35 52.1979C253.35 57.9329 256.569 59.8939 259.455 59.8939C261.971 59.8939 264.228 58.3769 264.524 55.9349H258.308V50.3849H270.148Z" fill="#EEF0E4"/>
<path d="M49.1734 93.0559C49.1734 94.7579 50.9124 95.4239 53.0954 96.1269C56.6104 97.2739 61.1984 98.5319 61.1984 104.267C61.1984 109.928 56.7584 112.592 52.2444 112.592C47.8414 112.592 43.2904 110.039 42.4024 104.711L48.3224 103.083C48.5074 105.969 50.5794 107.079 52.3184 107.079C53.7614 107.079 55.1304 106.154 55.1304 104.637C55.1304 102.898 53.3174 102.121 50.9864 101.344C48.1374 100.382 43.3644 99.0499 43.3644 93.3149C43.3644 87.9499 47.5454 85.4709 51.6894 85.4709C55.2784 85.4709 59.0894 87.3579 60.3844 91.3539L55.1304 93.3149C54.7974 91.6129 53.0954 90.7989 51.7634 90.7989C50.4314 90.7989 49.1734 91.6129 49.1734 93.0559Z" fill="#EEF0E4"/>
<path d="M71.2017 106.45H82.2647V112H65.0967V86.0259H82.2647V91.5759H71.2017V96.1269H80.0817V101.677H71.2017V106.45Z" fill="#EEF0E4"/>
<path d="M98.9141 86.0259C104.501 86.0259 107.498 90.2069 107.498 94.0919C107.498 98.0139 104.464 102.158 98.9141 102.158H92.8091V112H86.7041V86.0259H98.9141ZM98.6181 96.6449C100.357 96.6449 101.171 95.4239 101.171 94.0919C101.171 92.7599 100.357 91.5759 98.6181 91.5759H92.8091V96.6449H98.6181Z" fill="#EEF0E4"/>
<path d="M116.28 91.5759H108.806V86.0259H129.822V91.5759H122.348V112H116.28V91.5759Z" fill="#EEF0E4"/>
<path d="M139.059 106.45H150.122V112H132.954V86.0259H150.122V91.5759H139.059V96.1269H147.939V101.677H139.059V106.45Z" fill="#EEF0E4"/>
<path d="M165.588 108.744L160.667 99.1239V112H154.562V86.0259H160.038L167.919 101.455L175.8 86.0259H181.276V112H175.208V99.1239L170.25 108.744H165.588Z" fill="#EEF0E4"/>
<path d="M202.192 97.8289C204.967 98.902 206.41 101.344 206.41 103.934C206.41 107.782 203.228 112 197.308 112H186.467V86.0259H197.012C202.562 86.0259 205.078 89.6149 205.078 92.9079C205.078 95.0539 203.968 96.867 202.192 97.8289ZM192.572 95.9789H196.494C198.048 95.9789 198.825 94.8689 198.825 93.7959C198.825 92.6859 198.048 91.5759 196.42 91.5759H192.572V95.9789ZM197.197 106.45C199.121 106.45 200.12 105.007 200.12 103.675C200.12 102.343 199.195 101.048 197.197 101.048H192.572V106.45H197.197Z" fill="#EEF0E4"/>
<path d="M216.203 106.45H227.266V112H210.098V86.0259H227.266V91.5759H216.203V96.1269H225.083V101.677H216.203V106.45Z" fill="#EEF0E4"/>
<path d="M246.542 100.641L253.572 112H246.468L240.548 102.158H237.81V112H231.705V86.0259H243.693C249.28 86.0259 252.092 89.6889 252.092 93.3889C252.092 96.4599 250.205 99.5309 246.542 100.641ZM243.027 96.6449C244.914 96.6449 245.839 95.3129 245.839 94.0549C245.839 92.7969 244.988 91.5759 243.249 91.5759H237.81V96.6449H243.027Z" fill="#EEF0E4"/>
<path d="M271.502 106.228H281.714V112H263.658V106.968C270.651 101.677 275.387 98.4579 275.387 94.7579C275.387 92.6859 274.018 91.4279 271.946 91.4279C269.726 91.4279 268.135 92.9079 268.135 95.1649C268.135 95.4979 268.172 95.7939 268.209 96.0899L263.288 96.3489C263.214 95.9419 263.214 95.7199 263.214 95.4609C263.214 88.7269 268.061 86.0259 272.464 86.0259C276.83 86.0259 280.863 88.7269 280.863 93.9439C280.863 98.9389 277.163 101.862 271.502 106.228Z" fill="#EEF0E4"/>
<path d="M293.843 86.0259C300.466 86.0259 304.092 91.6129 304.092 99.3459C304.092 107.042 300.466 112.592 293.843 112.592C287.183 112.592 283.557 107.042 283.557 99.3459C283.557 91.6129 287.183 86.0259 293.843 86.0259ZM293.843 107.079C296.692 107.079 298.246 104.711 298.246 99.3459C298.246 93.9069 296.692 91.5759 293.843 91.5759C290.994 91.5759 289.44 93.9069 289.44 99.3459C289.44 104.711 290.994 107.079 293.843 107.079Z" fill="#EEF0E4"/>
<path d="M314.609 106.228H324.821V112H306.765V106.968C313.758 101.677 318.494 98.4579 318.494 94.7579C318.494 92.6859 317.125 91.4279 315.053 91.4279C312.833 91.4279 311.242 92.9079 311.242 95.1649C311.242 95.4979 311.279 95.7939 311.316 96.0899L306.395 96.3489C306.321 95.9419 306.321 95.7199 306.321 95.4609C306.321 88.7269 311.168 86.0259 315.571 86.0259C319.937 86.0259 323.97 88.7269 323.97 93.9439C323.97 98.9389 320.27 101.862 314.609 106.228Z" fill="#EEF0E4"/>
<path d="M338.902 96.6449C343.379 96.7559 346.043 99.6049 346.043 103.601C346.043 109.262 341.196 112.592 336.312 112.592C332.501 112.592 328.653 110.557 327.025 106.08L332.353 104.082C333.019 106.08 334.758 107.079 336.534 107.079C338.384 107.079 340.16 105.932 340.16 103.823C340.16 101.64 338.384 100.789 336.497 100.789C335.202 100.789 333.87 101.196 333.019 101.899L330.762 98.1249L337.533 92.1679H327.913V86.4329H344.748V91.8349L338.902 96.6449Z" fill="#EEF0E4"/>
<path d="M154.324 177.426L141.714 171.862V170.042L154.324 163.75V166.792L145.64 170.822L154.324 174.384V177.426Z" fill="#EEF0E4"/>
<path d="M166.29 170.666C167.798 171.212 169.462 172.59 169.462 175.112C169.462 178.622 166.368 180.416 162.884 180.416C159.348 180.416 156.254 178.622 156.254 175.112C156.254 172.59 157.918 171.212 159.452 170.666C157.866 170.12 156.592 168.846 156.592 166.792C156.592 163.698 159.27 161.748 162.884 161.748C166.472 161.748 169.15 163.698 169.15 166.792C169.15 168.846 167.85 170.12 166.29 170.666ZM162.884 165.544C161.61 165.544 160.726 166.09 160.726 167.156C160.726 168.17 161.532 168.95 162.884 168.95C164.184 168.95 165.042 168.17 165.042 167.156C165.042 166.09 164.106 165.544 162.884 165.544ZM162.884 176.568C164.314 176.568 165.328 175.866 165.328 174.618C165.328 173.344 164.366 172.59 162.884 172.59C161.376 172.59 160.414 173.344 160.414 174.618C160.414 175.866 161.402 176.568 162.884 176.568Z" fill="#EEF0E4"/>
<path d="M171.37 174.384L180.054 170.822L171.37 166.792V163.75L183.98 170.042V171.862L171.37 177.426V174.384Z" fill="#EEF0E4"/>
<path d="M217.597 177.426L204.987 171.862V170.042L217.597 163.75V166.792L208.913 170.822L217.597 174.384V177.426Z" fill="#EEF0E4"/>
<path d="M229.564 170.666C231.072 171.212 232.736 172.59 232.736 175.112C232.736 178.622 229.642 180.416 226.158 180.416C222.622 180.416 219.528 178.622 219.528 175.112C219.528 172.59 221.192 171.212 222.726 170.666C221.14 170.12 219.866 168.846 219.866 166.792C219.866 163.698 222.544 161.748 226.158 161.748C229.746 161.748 232.424 163.698 232.424 166.792C232.424 168.846 231.124 170.12 229.564 170.666ZM226.158 165.544C224.884 165.544 224 166.09 224 167.156C224 168.17 224.806 168.95 226.158 168.95C227.458 168.95 228.316 168.17 228.316 167.156C228.316 166.09 227.38 165.544 226.158 165.544ZM226.158 176.568C227.588 176.568 228.602 175.866 228.602 174.618C228.602 173.344 227.64 172.59 226.158 172.59C224.65 172.59 223.688 173.344 223.688 174.618C223.688 175.866 224.676 176.568 226.158 176.568Z" fill="#EEF0E4"/>
<path d="M234.643 174.384L243.327 170.822L234.643 166.792V163.75L247.253 170.042V171.862L234.643 177.426V174.384Z" fill="#EEF0E4"/>
<path d="M134.645 225.842L114.275 216.854V213.914L134.645 203.75V208.664L120.617 215.174L134.645 220.928V225.842Z" fill="#EEF0E4"/>
<path d="M153.976 214.922C156.412 215.804 159.1 218.03 159.1 222.104C159.1 227.774 154.102 230.672 148.474 230.672C142.762 230.672 137.764 227.774 137.764 222.104C137.764 218.03 140.452 215.804 142.93 214.922C140.368 214.04 138.31 211.982 138.31 208.664C138.31 203.666 142.636 200.516 148.474 200.516C154.27 200.516 158.596 203.666 158.596 208.664C158.596 211.982 156.496 214.04 153.976 214.922ZM148.474 206.648C146.416 206.648 144.988 207.53 144.988 209.252C144.988 210.89 146.29 212.15 148.474 212.15C150.574 212.15 151.96 210.89 151.96 209.252C151.96 207.53 150.448 206.648 148.474 206.648ZM148.474 224.456C150.784 224.456 152.422 223.322 152.422 221.306C152.422 219.248 150.868 218.03 148.474 218.03C146.038 218.03 144.484 219.248 144.484 221.306C144.484 223.322 146.08 224.456 148.474 224.456Z" fill="#EEF0E4"/>
<path d="M162.181 220.928L176.209 215.174L162.181 208.664V203.75L182.551 213.914V216.854L162.181 225.842V220.928Z" fill="#EEF0E4"/>
<path d="M226.766 225.842L206.396 216.854V213.914L226.766 203.75V208.664L212.738 215.174L226.766 220.928V225.842Z" fill="#EEF0E4"/>
<path d="M246.097 214.922C248.533 215.804 251.221 218.03 251.221 222.104C251.221 227.774 246.223 230.672 240.595 230.672C234.883 230.672 229.885 227.774 229.885 222.104C229.885 218.03 232.573 215.804 235.051 214.922C232.489 214.04 230.431 211.982 230.431 208.664C230.431 203.666 234.757 200.516 240.595 200.516C246.391 200.516 250.717 203.666 250.717 208.664C250.717 211.982 248.617 214.04 246.097 214.922ZM240.595 206.648C238.537 206.648 237.109 207.53 237.109 209.252C237.109 210.89 238.411 212.15 240.595 212.15C242.695 212.15 244.081 210.89 244.081 209.252C244.081 207.53 242.569 206.648 240.595 206.648ZM240.595 224.456C242.905 224.456 244.543 223.322 244.543 221.306C244.543 219.248 242.989 218.03 240.595 218.03C238.159 218.03 236.605 219.248 236.605 221.306C236.605 223.322 238.201 224.456 240.595 224.456Z" fill="#EEF0E4"/>
<path d="M254.302 220.928L268.33 215.174L254.302 208.664V203.75L274.672 213.914V216.854L254.302 225.842V220.928Z" fill="#EEF0E4"/>
<path d="M109.674 301.565L78.1494 287.655V283.105L109.674 267.375V274.98L87.9644 285.055L109.674 293.96V301.565Z" fill="#EEF0E4"/>
<path d="M139.592 284.665C143.362 286.03 147.522 289.475 147.522 295.78C147.522 304.555 139.787 309.04 131.077 309.04C122.237 309.04 114.502 304.555 114.502 295.78C114.502 289.475 118.662 286.03 122.497 284.665C118.532 283.3 115.347 280.115 115.347 274.98C115.347 267.245 122.042 262.37 131.077 262.37C140.047 262.37 146.742 267.245 146.742 274.98C146.742 280.115 143.492 283.3 139.592 284.665ZM131.077 271.86C127.892 271.86 125.682 273.225 125.682 275.89C125.682 278.425 127.697 280.375 131.077 280.375C134.327 280.375 136.472 278.425 136.472 275.89C136.472 273.225 134.132 271.86 131.077 271.86ZM131.077 299.42C134.652 299.42 137.187 297.665 137.187 294.545C137.187 291.36 134.782 289.475 131.077 289.475C127.307 289.475 124.902 291.36 124.902 294.545C124.902 297.665 127.372 299.42 131.077 299.42Z" fill="#EEF0E4"/>
<path d="M152.29 293.96L174 285.055L152.29 274.98V267.375L183.815 283.105V287.655L152.29 301.565V293.96Z" fill="#EEF0E4"/>
<path d="M236.628 301.565L205.102 287.655V283.105L236.628 267.375V274.98L214.917 285.055L236.628 293.96V301.565Z" fill="#EEF0E4"/>
<path d="M266.545 284.665C270.315 286.03 274.475 289.475 274.475 295.78C274.475 304.555 266.74 309.04 258.03 309.04C249.19 309.04 241.455 304.555 241.455 295.78C241.455 289.475 245.615 286.03 249.45 284.665C245.485 283.3 242.3 280.115 242.3 274.98C242.3 267.245 248.995 262.37 258.03 262.37C267 262.37 273.695 267.245 273.695 274.98C273.695 280.115 270.445 283.3 266.545 284.665ZM258.03 271.86C254.845 271.86 252.635 273.225 252.635 275.89C252.635 278.425 254.65 280.375 258.03 280.375C261.28 280.375 263.425 278.425 263.425 275.89C263.425 273.225 261.085 271.86 258.03 271.86ZM258.03 299.42C261.605 299.42 264.14 297.665 264.14 294.545C264.14 291.36 261.735 289.475 258.03 289.475C254.26 289.475 251.855 291.36 251.855 294.545C251.855 297.665 254.325 299.42 258.03 299.42Z" fill="#EEF0E4"/>
<path d="M279.243 293.96L300.953 285.055L279.243 274.98V267.375L310.768 283.105V287.655L279.243 301.565V293.96Z" fill="#EEF0E4"/>
<path d="M60.8208 378.445C57.6258 388.669 48.2538 394.136 38.8108 394.136C27.1668 394.136 15.5938 385.9 15.5938 368.15C15.5938 350.258 27.3798 342.093 38.8108 342.093C47.8278 342.093 56.6318 347.134 59.1167 356.577L48.3247 360.056C47.4727 355.938 43.4258 353.311 39.0948 353.311C33.5568 353.311 27.6637 357.571 27.6637 367.937C27.6637 378.374 33.4858 382.705 39.2368 382.705C44.2068 382.705 49.2477 379.439 50.3838 373.901L60.8208 378.445Z" fill="#EEF0E4"/>
<path d="M100.935 393L97.1012 382.989H78.3572L74.5232 393H61.5302L82.5462 343.158H92.9832L113.928 393H100.935ZM82.4042 372.41H93.0542L87.7292 358.423L82.4042 372.41Z" fill="#EEF0E4"/>
<path d="M148.066 371.203L161.556 393H147.924L136.564 374.114H131.31V393H119.595V343.158H142.599C153.32 343.158 158.716 350.187 158.716 357.287C158.716 363.18 155.095 369.073 148.066 371.203ZM141.321 363.535C144.942 363.535 146.717 360.979 146.717 358.565C146.717 356.151 145.084 353.808 141.747 353.808H131.31V363.535H141.321Z" fill="#EEF0E4"/>
<path d="M183.968 393H167.922V343.158H185.53C201.079 343.158 208.96 354.802 208.96 367.085C208.96 379.652 200.795 393 183.968 393ZM185.033 353.808H179.637V382.35H183.542C192.559 382.35 196.89 374.185 196.89 366.872C196.89 359.914 192.914 353.808 185.033 353.808Z" fill="#EEF0E4"/>
<path d="M227.756 343.158V393H216.041V343.158H227.756Z" fill="#EEF0E4"/>
<path d="M237.674 393V343.158H247.756L267.139 370.422V343.158H278.854V393H268.701L249.389 366.091V393H237.674Z" fill="#EEF0E4"/>
<path d="M323.92 393L320.086 382.989H301.342L297.508 393H284.515L305.531 343.158H315.968L336.913 393H323.92ZM305.389 372.41H316.039L310.714 358.423L305.389 372.41Z" fill="#EEF0E4"/>
<path d="M354.294 382.35H373.393V393H342.579V343.158H354.294V382.35Z" fill="#EEF0E4"/>
<path d="M62.0075 436.955V465H53.1325L51.9965 460.101C49.0145 464.503 44.3995 466.136 39.5715 466.136C29.2055 466.136 17.9165 458.539 17.9165 440.505C17.9165 422.045 29.7735 414.093 41.1335 414.093C50.0795 414.093 58.8125 419.063 61.4395 428.577L50.6475 432.056C49.7955 427.938 45.6775 425.311 41.3465 425.311C35.7375 425.311 29.7735 429.642 29.7735 440.434C29.7735 451.439 35.9505 455.202 41.4885 455.202C46.3165 455.202 50.6475 452.291 51.2155 447.605H39.2875V436.955H62.0075Z" fill="#EEF0E4"/>
<path d="M82.2547 415.158V465H70.5397V415.158H82.2547Z" fill="#EEF0E4"/>
<path d="M103.888 445.191V465H92.1725V415.158H124.336V425.808H103.888V434.541H120.289V445.191H103.888Z" fill="#EEF0E4"/>
<path d="M141.16 425.808H126.818V415.158H167.146V425.808H152.804V465H141.16V425.808Z" fill="#EEF0E4"/>
<path d="M197.169 428.648C197.169 431.914 200.506 433.192 204.695 434.541C211.44 436.742 220.244 439.156 220.244 450.161C220.244 461.024 211.724 466.136 203.062 466.136C194.613 466.136 185.88 461.237 184.176 451.013L195.536 447.889C195.891 453.427 199.867 455.557 203.204 455.557C205.973 455.557 208.6 453.782 208.6 450.871C208.6 447.534 205.121 446.043 200.648 444.552C195.181 442.706 186.022 440.15 186.022 429.145C186.022 418.85 194.045 414.093 201.997 414.093C208.884 414.093 216.197 417.714 218.682 425.382L208.6 429.145C207.961 425.879 204.695 424.317 202.139 424.317C199.583 424.317 197.169 425.879 197.169 428.648Z" fill="#EEF0E4"/>
<path d="M257.118 434.683V415.158H268.833V465H257.118V445.333H239.439V465H227.724V415.158H239.439V434.683H257.118Z" fill="#EEF0E4"/>
<path d="M300.269 414.093C315.037 414.093 324.764 425.808 324.764 440.008C324.764 454.421 315.037 466.136 300.269 466.136C285.572 466.136 275.916 454.421 275.916 440.008C275.916 425.808 285.572 414.093 300.269 414.093ZM300.269 454.847C307.795 454.847 312.623 448.599 312.623 440.15C312.623 431.701 307.795 425.311 300.269 425.311C292.814 425.311 287.986 431.701 287.986 440.15C287.986 448.599 292.814 454.847 300.269 454.847Z" fill="#EEF0E4"/>
<path d="M355.297 415.158C366.018 415.158 371.769 423.181 371.769 430.636C371.769 438.162 365.947 446.114 355.297 446.114H343.582V465H331.867V415.158H355.297ZM354.729 435.535C358.066 435.535 359.628 433.192 359.628 430.636C359.628 428.08 358.066 425.808 354.729 425.808H343.582V435.535H354.729Z" fill="#EEF0E4"/>
<path d="M55.8785 529L53.8805 523.783H44.1125L42.1145 529H35.3435L46.2955 503.026H51.7345L62.6495 529H55.8785ZM46.2215 518.27H51.7715L48.9965 510.981L46.2215 518.27Z" fill="#EEF0E4"/>
<path d="M77.8126 503.026C83.3996 503.026 86.3966 507.207 86.3966 511.092C86.3966 515.014 83.3626 519.158 77.8126 519.158H71.7076V529H65.6026V503.026H77.8126ZM77.5166 513.645C79.2556 513.645 80.0696 512.424 80.0696 511.092C80.0696 509.76 79.2556 508.576 77.5166 508.576H71.7076V513.645H77.5166Z" fill="#EEF0E4"/>
<path d="M101.949 503.026C107.536 503.026 110.533 507.207 110.533 511.092C110.533 515.014 107.499 519.158 101.949 519.158H95.8443V529H89.7393V503.026H101.949ZM101.653 513.645C103.392 513.645 104.206 512.424 104.206 511.092C104.206 509.76 103.392 508.576 101.653 508.576H95.8443V513.645H101.653Z" fill="#EEF0E4"/>
<path d="M128.505 529L126.507 523.783H116.739L114.741 529H107.97L118.922 503.026H124.361L135.276 529H128.505ZM118.848 518.27H124.398L121.623 510.981L118.848 518.27Z" fill="#EEF0E4"/>
<path d="M153.067 517.641L160.097 529H152.993L147.073 519.158H144.335V529H138.23V503.026H150.218C155.805 503.026 158.617 506.689 158.617 510.389C158.617 513.46 156.73 516.531 153.067 517.641ZM149.552 513.645C151.439 513.645 152.364 512.313 152.364 511.055C152.364 509.797 151.513 508.576 149.774 508.576H144.335V513.645H149.552Z" fill="#EEF0E4"/>
<path d="M169.519 523.45H180.582V529H163.414V503.026H180.582V508.576H169.519V513.127H178.399V518.677H169.519V523.45Z" fill="#EEF0E4"/>
<path d="M191.127 523.45H201.08V529H185.022V503.026H191.127V523.45Z" fill="#EEF0E4"/>
<path d="M221.073 502.212C222.504 502.212 223.774 502.434 224.884 502.878C225.994 503.322 226.87 503.976 227.511 504.839C228.153 505.678 228.473 506.714 228.473 507.947C228.473 509.649 227.968 511.08 226.956 512.239C225.945 513.398 224.687 514.41 223.182 515.273L228.325 520.268C228.819 519.429 229.25 518.554 229.62 517.641C229.99 516.704 230.299 515.766 230.545 514.829H236.28C235.91 516.21 235.368 517.69 234.652 519.269C233.937 520.848 233.024 522.328 231.914 523.709L237.353 529H230.545L228.473 526.965C227.931 527.335 227.363 527.668 226.771 527.964C226.179 528.26 225.563 528.519 224.921 528.741C224.28 528.938 223.602 529.086 222.886 529.185C222.171 529.308 221.431 529.37 220.666 529.37C218.668 529.37 216.954 529.062 215.523 528.445C214.093 527.804 212.995 526.916 212.23 525.781C211.466 524.646 211.083 523.339 211.083 521.859C211.083 520.601 211.268 519.528 211.638 518.64C212.033 517.727 212.588 516.938 213.303 516.272C214.043 515.581 214.919 514.952 215.93 514.385C215.289 513.645 214.771 512.954 214.376 512.313C214.006 511.647 213.735 510.993 213.562 510.352C213.414 509.711 213.34 509.032 213.34 508.317C213.34 507.059 213.661 505.974 214.302 505.061C214.968 504.148 215.881 503.445 217.04 502.952C218.224 502.459 219.569 502.212 221.073 502.212ZM219.149 517.678C218.681 518.023 218.274 518.381 217.928 518.751C217.608 519.121 217.349 519.516 217.151 519.935C216.979 520.354 216.892 520.823 216.892 521.341C216.892 522.402 217.287 523.24 218.076 523.857C218.866 524.449 219.852 524.745 221.036 524.745C221.826 524.745 222.566 524.646 223.256 524.449C223.947 524.252 224.576 523.98 225.143 523.635L219.149 517.678ZM221.036 506.467C220.42 506.467 219.828 506.627 219.26 506.948C218.718 507.244 218.446 507.824 218.446 508.687C218.446 509.304 218.594 509.896 218.89 510.463C219.211 511.03 219.63 511.61 220.148 512.202C221.184 511.635 221.974 511.067 222.516 510.5C223.084 509.933 223.367 509.279 223.367 508.539C223.367 507.799 223.121 507.269 222.627 506.948C222.134 506.627 221.604 506.467 221.036 506.467Z" fill="#EEF0E4"/>
<path d="M264.15 513.201V503.026H270.255V529H264.15V518.751H254.937V529H248.832V503.026H254.937V513.201H264.15Z" fill="#EEF0E4"/>
<path d="M286.637 502.471C294.333 502.471 299.402 508.576 299.402 515.976C299.402 523.487 294.333 529.592 286.637 529.592C278.978 529.592 273.946 523.487 273.946 515.976C273.946 508.576 278.978 502.471 286.637 502.471ZM286.637 523.709C290.559 523.709 293.075 520.453 293.075 516.05C293.075 511.647 290.559 508.317 286.637 508.317C282.752 508.317 280.236 511.647 280.236 516.05C280.236 520.453 282.752 523.709 286.637 523.709Z" fill="#EEF0E4"/>
<path d="M314.13 525.744L309.209 516.124V529H303.104V503.026H308.58L316.461 518.455L324.342 503.026H329.818V529H323.75V516.124L318.792 525.744H314.13Z" fill="#EEF0E4"/>
<path d="M341.114 523.45H352.177V529H335.009V503.026H352.177V508.576H341.114V513.127H349.994V518.677H341.114V523.45Z" fill="#EEF0E4"/>
<path d="M163.035 561.96L157.855 570.24V576H154.575V570.24L149.395 561.96H153.255L156.215 567.16L159.155 561.96H163.035Z" fill="#EEF0E4"/>
<path d="M169.606 561.66C173.766 561.66 176.506 564.96 176.506 568.96C176.506 573.02 173.766 576.32 169.606 576.32C165.466 576.32 162.746 573.02 162.746 568.96C162.746 564.96 165.466 561.66 169.606 561.66ZM169.606 573.14C171.726 573.14 173.086 571.38 173.086 569C173.086 566.62 171.726 564.82 169.606 564.82C167.506 564.82 166.146 566.62 166.146 569C166.146 571.38 167.506 573.14 169.606 573.14Z" fill="#EEF0E4"/>
<path d="M189.427 561.96V570.72C189.427 573.92 187.407 576.32 183.867 576.32C180.307 576.32 178.307 573.92 178.307 570.72V561.96H181.567V570.56C181.567 571.96 182.247 573.14 183.867 573.14C185.487 573.14 186.167 571.96 186.167 570.56V561.96H189.427Z" fill="#EEF0E4"/>
<path d="M206.142 576L205.062 573.18H199.782L198.702 576H195.042L200.962 561.96H203.902L209.802 576H206.142ZM200.922 570.2H203.922L202.422 566.26L200.922 570.2Z" fill="#EEF0E4"/>
<path d="M219.418 569.86L223.218 576H219.378L216.178 570.68H214.698V576H211.398V561.96H217.878C220.898 561.96 222.418 563.94 222.418 565.94C222.418 567.6 221.398 569.26 219.418 569.86ZM217.518 567.7C218.538 567.7 219.038 566.98 219.038 566.3C219.038 565.62 218.578 564.96 217.638 564.96H214.698V567.7H217.518Z" fill="#EEF0E4"/>
<path d="M228.311 573H234.291V576H225.011V561.96H234.291V564.96H228.311V567.42H233.111V570.42H228.311V573Z" fill="#EEF0E4"/>
<path d="M165.264 592.1V600H162.764L162.444 598.62C161.604 599.86 160.304 600.32 158.944 600.32C156.024 600.32 152.844 598.18 152.844 593.1C152.844 587.9 156.184 585.66 159.384 585.66C161.904 585.66 164.364 587.06 165.104 589.74L162.064 590.72C161.824 589.56 160.664 588.82 159.444 588.82C157.864 588.82 156.184 590.04 156.184 593.08C156.184 596.18 157.924 597.24 159.484 597.24C160.844 597.24 162.064 596.42 162.224 595.1H158.864V592.1H165.264Z" fill="#EEF0E4"/>
<path d="M170.967 597H176.947V600H167.667V585.96H176.947V588.96H170.967V591.42H175.767V594.42H170.967V597Z" fill="#EEF0E4"/>
<path d="M182.287 588.96H178.247V585.96H189.607V588.96H185.567V600H182.287V588.96Z" fill="#EEF0E4"/>
<path d="M194.631 588.96H190.591V585.96H201.951V588.96H197.911V600H194.631V588.96Z" fill="#EEF0E4"/>
<path d="M206.944 585.96V600H203.644V585.96H206.944Z" fill="#EEF0E4"/>
<path d="M209.738 600V585.96H212.578L218.038 593.64V585.96H221.338V600H218.478L213.038 592.42V600H209.738Z" fill="#EEF0E4"/>
<path d="M235.752 592.1V600H233.252L232.932 598.62C232.092 599.86 230.792 600.32 229.432 600.32C226.512 600.32 223.332 598.18 223.332 593.1C223.332 587.9 226.672 585.66 229.872 585.66C232.392 585.66 234.852 587.06 235.592 589.74L232.552 590.72C232.312 589.56 231.152 588.82 229.932 588.82C228.352 588.82 226.672 590.04 226.672 593.08C226.672 596.18 228.412 597.24 229.972 597.24C231.332 597.24 232.552 596.42 232.712 595.1H229.352V592.1H235.752Z" fill="#EEF0E4"/>
<path d="M175.328 618.86L178.308 609.96H181.808L176.768 624H173.908L168.848 609.96H172.328L175.328 618.86Z" fill="#EEF0E4"/>
<path d="M186.612 621H192.592V624H183.312V609.96H192.592V612.96H186.612V615.42H191.412V618.42H186.612V621Z" fill="#EEF0E4"/>
<path d="M203.012 617.86L206.812 624H202.972L199.772 618.68H198.292V624H194.992V609.96H201.472C204.492 609.96 206.012 611.94 206.012 613.94C206.012 615.6 204.992 617.26 203.012 617.86ZM201.112 615.7C202.132 615.7 202.632 614.98 202.632 614.3C202.632 613.62 202.172 612.96 201.232 612.96H198.292V615.7H201.112Z" fill="#EEF0E4"/>
<path d="M220.144 609.96L214.964 618.24V624H211.684V618.24L206.504 609.96H210.364L213.324 615.16L216.264 609.96H220.144Z" fill="#EEF0E4"/>
<path d="M162.605 637.76C162.605 638.68 163.545 639.04 164.725 639.42C166.625 640.04 169.105 640.72 169.105 643.82C169.105 646.88 166.705 648.32 164.265 648.32C161.885 648.32 159.425 646.94 158.945 644.06L162.145 643.18C162.245 644.74 163.365 645.34 164.305 645.34C165.085 645.34 165.825 644.84 165.825 644.02C165.825 643.08 164.845 642.66 163.585 642.24C162.045 641.72 159.465 641 159.465 637.9C159.465 635 161.725 633.66 163.965 633.66C165.905 633.66 167.965 634.68 168.665 636.84L165.825 637.9C165.645 636.98 164.725 636.54 164.005 636.54C163.285 636.54 162.605 636.98 162.605 637.76Z" fill="#EEF0E4"/>
<path d="M174.512 645H179.892V648H171.212V633.96H174.512V645Z" fill="#EEF0E4"/>
<path d="M185.196 645H191.176V648H181.896V633.96H191.176V636.96H185.196V639.42H189.996V642.42H185.196V645Z" fill="#EEF0E4"/>
<path d="M196.876 645H202.856V648H193.576V633.96H202.856V636.96H196.876V639.42H201.676V642.42H196.876V645Z" fill="#EEF0E4"/>
<path d="M211.855 633.96C214.875 633.96 216.495 636.22 216.495 638.32C216.495 640.44 214.855 642.68 211.855 642.68H208.555V648H205.255V633.96H211.855ZM211.695 639.7C212.635 639.7 213.075 639.04 213.075 638.32C213.075 637.6 212.635 636.96 211.695 636.96H208.555V639.7H211.695Z" fill="#EEF0E4"/>
<path d="M230.447 633.96L225.267 642.24V648H221.987V642.24L216.807 633.96H220.667L223.627 639.16L226.567 633.96H230.447Z" fill="#EEF0E4"/>
<path d="M28.975 687.616V683.09C31.145 683.09 32.571 682.346 33.594 680.579H37.686V702H32.726V687.089C31.641 687.492 30.246 687.616 28.975 687.616Z" fill="#EEF0E4"/>
<path d="M41.5688 687.616V683.09C43.7388 683.09 45.1648 682.346 46.1878 680.579H50.2798V702H45.3198V687.089C44.2348 687.492 42.8398 687.616 41.5688 687.616Z" fill="#EEF0E4"/>
<path d="M70.7785 694.436C70.7785 699.737 66.7485 702.496 62.5015 702.496C58.9985 702.496 55.4335 700.636 54.2865 697.226L58.7195 695.583C59.2155 697.04 60.8585 697.877 62.4085 697.877C64.2065 697.877 65.8805 696.761 65.8805 694.746C65.8805 692.731 64.4235 691.832 62.7185 691.832C61.3855 691.832 59.9595 692.452 59.2155 693.63L55.4025 692.111V680.579H69.2285V685.384H59.9905V688.856C61.1375 688.05 62.5635 687.647 63.8965 687.647C67.2755 687.647 70.7785 689.693 70.7785 694.436Z" fill="#EEF0E4"/>
<path d="M85.9542 686.128C85.9542 687.554 87.4112 688.112 89.2402 688.701C92.1852 689.662 96.0292 690.716 96.0292 695.521C96.0292 700.264 92.3092 702.496 88.5272 702.496C84.8382 702.496 81.0252 700.357 80.2812 695.893L85.2412 694.529C85.3962 696.947 87.1322 697.877 88.5892 697.877C89.7982 697.877 90.9452 697.102 90.9452 695.831C90.9452 694.374 89.4262 693.723 87.4732 693.072C85.0862 692.266 81.0872 691.15 81.0872 686.345C81.0872 681.85 84.5902 679.773 88.0622 679.773C91.0692 679.773 94.2622 681.354 95.3472 684.702L90.9452 686.345C90.6662 684.919 89.2402 684.237 88.1242 684.237C87.0082 684.237 85.9542 684.919 85.9542 686.128Z" fill="#EEF0E4"/>
<path d="M108.688 679.773C115.136 679.773 119.383 684.888 119.383 691.088C119.383 697.381 115.136 702.496 108.688 702.496C102.271 702.496 98.0554 697.381 98.0554 691.088C98.0554 684.888 102.271 679.773 108.688 679.773ZM108.688 697.567C111.974 697.567 114.082 694.839 114.082 691.15C114.082 687.461 111.974 684.671 108.688 684.671C105.433 684.671 103.325 687.461 103.325 691.15C103.325 694.839 105.433 697.567 108.688 697.567Z" fill="#EEF0E4"/>
<path d="M139.411 680.238V693.816C139.411 698.776 136.28 702.496 130.793 702.496C125.275 702.496 122.175 698.776 122.175 693.816V680.238H127.228V693.568C127.228 695.738 128.282 697.567 130.793 697.567C133.304 697.567 134.358 695.738 134.358 693.568V680.238H139.411Z" fill="#EEF0E4"/>
<path d="M147.991 684.888H141.729V680.238H159.337V684.888H153.075V702H147.991V684.888Z" fill="#EEF0E4"/>
<path d="M174.795 688.763V680.238H179.91V702H174.795V693.413H167.076V702H161.961V680.238H167.076V688.763H174.795Z" fill="#EEF0E4"/>
<path d="M200.144 679.773C206.592 679.773 210.839 684.888 210.839 691.088C210.839 697.381 206.592 702.496 200.144 702.496C193.727 702.496 189.511 697.381 189.511 691.088C189.511 684.888 193.727 679.773 200.144 679.773ZM200.144 697.567C203.43 697.567 205.538 694.839 205.538 691.15C205.538 687.461 203.43 684.671 200.144 684.671C196.889 684.671 194.781 687.461 194.781 691.15C194.781 694.839 196.889 697.567 200.144 697.567Z" fill="#EEF0E4"/>
<path d="M225.673 702L221.705 695.521L217.768 702H211.63L218.729 691.243L211.661 680.238H217.768L221.767 686.81L225.952 680.238H231.842L224.743 691.026L231.811 702H225.673Z" fill="#EEF0E4"/>
<path d="M239.581 693.351V702H234.466V680.238H248.509V684.888H239.581V688.701H246.742V693.351H239.581Z" fill="#EEF0E4"/>
<path d="M260.691 679.773C267.139 679.773 271.386 684.888 271.386 691.088C271.386 697.381 267.139 702.496 260.691 702.496C254.274 702.496 250.058 697.381 250.058 691.088C250.058 684.888 254.274 679.773 260.691 679.773ZM260.691 697.567C263.977 697.567 266.085 694.839 266.085 691.15C266.085 687.461 263.977 684.671 260.691 684.671C257.436 684.671 255.328 687.461 255.328 691.15C255.328 694.839 257.436 697.567 260.691 697.567Z" fill="#EEF0E4"/>
<path d="M286.919 692.483L292.809 702H286.857L281.897 693.754H279.603V702H274.488V680.238H284.532C289.213 680.238 291.569 683.307 291.569 686.407C291.569 688.98 289.988 691.553 286.919 692.483ZM283.974 689.135C285.555 689.135 286.33 688.019 286.33 686.965C286.33 685.911 285.617 684.888 284.16 684.888H279.603V689.135H283.974Z" fill="#EEF0E4"/>
<path d="M302.594 702H295.588V680.238H303.276C310.065 680.238 313.506 685.322 313.506 690.685C313.506 696.172 309.941 702 302.594 702ZM303.059 684.888H300.703V697.35H302.408C306.345 697.35 308.236 693.785 308.236 690.592C308.236 687.554 306.5 684.888 303.059 684.888Z" fill="#EEF0E4"/>
<path d="M327.385 686.128C327.385 687.554 328.842 688.112 330.671 688.701C333.616 689.662 337.46 690.716 337.46 695.521C337.46 700.264 333.74 702.496 329.958 702.496C326.269 702.496 322.456 700.357 321.712 695.893L326.672 694.529C326.827 696.947 328.563 697.877 330.02 697.877C331.229 697.877 332.376 697.102 332.376 695.831C332.376 694.374 330.857 693.723 328.904 693.072C326.517 692.266 322.518 691.15 322.518 686.345C322.518 681.85 326.021 679.773 329.493 679.773C332.5 679.773 335.693 681.354 336.778 684.702L332.376 686.345C332.097 684.919 330.671 684.237 329.555 684.237C328.439 684.237 327.385 684.919 327.385 686.128Z" fill="#EEF0E4"/>
<path d="M344.98 684.888H338.718V680.238H356.326V684.888H350.064V702H344.98V684.888Z" fill="#EEF0E4"/>
<path d="M357.413 702.217C355.801 702.217 354.623 701.008 354.623 699.427C354.623 697.846 355.801 696.637 357.413 696.637C358.963 696.637 360.172 697.846 360.172 699.427C360.172 701.008 358.963 702.217 357.413 702.217Z" fill="#EEF0E4"/>
<path d="M93.61 728.127C95.935 729.026 97.144 731.072 97.144 733.242C97.144 736.466 94.478 740 89.518 740H80.435V718.238H89.27C93.92 718.238 96.028 721.245 96.028 724.004C96.028 725.802 95.098 727.321 93.61 728.127ZM85.55 726.577H88.836C90.138 726.577 90.789 725.647 90.789 724.748C90.789 723.818 90.138 722.888 88.774 722.888H85.55V726.577ZM89.425 735.35C91.037 735.35 91.874 734.141 91.874 733.025C91.874 731.909 91.099 730.824 89.425 730.824H85.55V735.35H89.425Z" fill="#EEF0E4"/>
<path d="M112.665 730.483L118.555 740H112.603L107.643 731.754H105.349V740H100.234V718.238H110.278C114.959 718.238 117.315 721.307 117.315 724.407C117.315 726.98 115.734 729.553 112.665 730.483ZM109.72 727.135C111.301 727.135 112.076 726.019 112.076 724.965C112.076 723.911 111.363 722.888 109.906 722.888H105.349V727.135H109.72Z" fill="#EEF0E4"/>
<path d="M129.789 717.773C136.237 717.773 140.484 722.888 140.484 729.088C140.484 735.381 136.237 740.496 129.789 740.496C123.372 740.496 119.156 735.381 119.156 729.088C119.156 722.888 123.372 717.773 129.789 717.773ZM129.789 735.567C133.075 735.567 135.183 732.839 135.183 729.15C135.183 725.461 133.075 722.671 129.789 722.671C126.534 722.671 124.426 725.461 124.426 729.15C124.426 732.839 126.534 735.567 129.789 735.567Z" fill="#EEF0E4"/>
<path d="M152.978 717.773C159.426 717.773 163.673 722.888 163.673 729.088C163.673 735.381 159.426 740.496 152.978 740.496C146.561 740.496 142.345 735.381 142.345 729.088C142.345 722.888 146.561 717.773 152.978 717.773ZM152.978 735.567C156.264 735.567 158.372 732.839 158.372 729.15C158.372 725.461 156.264 722.671 152.978 722.671C149.723 722.671 147.615 725.461 147.615 729.15C147.615 732.839 149.723 735.567 152.978 735.567Z" fill="#EEF0E4"/>
<path d="M186.894 718.238L178.028 726.422L186.088 740H179.764L174.184 729.987L171.89 732.095V740H166.775V718.238H171.89V726.05L179.733 718.238H186.894Z" fill="#EEF0E4"/>
<path d="M194.474 735.35H202.813V740H189.359V718.238H194.474V735.35Z" fill="#EEF0E4"/>
<path d="M223.199 718.238L215.17 731.072V740H210.086V731.072L202.057 718.238H208.04L212.628 726.298L217.185 718.238H223.199Z" fill="#EEF0E4"/>
<path d="M225.536 740V718.238H229.938L238.401 730.142V718.238H243.516V740H239.083L230.651 728.251V740H225.536Z" fill="#EEF0E4"/>
<path d="M249.49 734.327C251.505 734.327 252.683 736.156 252.683 738.853C252.683 742.077 250.854 745.363 246.607 746.045V742.821C248.188 742.418 249.583 741.302 249.862 739.566C249.676 739.597 249.49 739.628 249.335 739.628C247.816 739.628 246.638 738.884 246.638 737.055C246.638 735.319 247.909 734.327 249.49 734.327Z" fill="#EEF0E4"/>
<path d="M262.621 740V718.238H267.023L275.486 730.142V718.238H280.601V740H276.168L267.736 728.251V740H262.621Z" fill="#EEF0E4"/>
<path d="M304.059 718.238L296.03 731.072V740H290.946V731.072L282.917 718.238H288.9L293.488 726.298L298.045 718.238H304.059Z" fill="#EEF0E4"/>
<path d="M159.681 763.616V759.09C161.851 759.09 163.277 758.346 164.3 756.579H168.392V778H163.432V763.089C162.347 763.492 160.952 763.616 159.681 763.616Z" fill="#EEF0E4"/>
<path d="M172.274 763.616V759.09C174.444 759.09 175.87 758.346 176.893 756.579H180.985V778H176.025V763.089C174.94 763.492 173.545 763.616 172.274 763.616Z" fill="#EEF0E4"/>
<path d="M191.657 773.164H200.213V778H185.085V773.784C190.944 769.351 194.912 766.654 194.912 763.554C194.912 761.818 193.765 760.764 192.029 760.764C190.169 760.764 188.836 762.004 188.836 763.895C188.836 764.174 188.867 764.422 188.898 764.67L184.775 764.887C184.713 764.546 184.713 764.36 184.713 764.143C184.713 758.501 188.774 756.238 192.463 756.238C196.121 756.238 199.5 758.501 199.5 762.872C199.5 767.057 196.4 769.506 191.657 773.164Z" fill="#EEF0E4"/>
<path d="M202.215 763.616V759.09C204.385 759.09 205.811 758.346 206.834 756.579H210.926V778H205.966V763.089C204.881 763.492 203.486 763.616 202.215 763.616Z" fill="#EEF0E4"/>
<path d="M222.9 778H217.63C217.63 773.691 218.777 766.747 224.264 761.384H214.034V756.579H230.092V760.516C223.799 765.91 222.9 772.544 222.9 778Z" fill="#EEF0E4"/>
<path d="M31.6302 823V817.438H26.3922V823H24.0702V810.238H26.3922V815.224H31.6302V810.238H33.9522V823H31.6302ZM36.9374 823V810.238H46.0274V812.344H39.2594V815.314H45.2174V817.402H39.2594V820.894H46.0274V823H36.9374ZM48.2401 823V810.238H50.5621V820.804H56.4841V823H48.2401ZM58.1366 823V810.238H60.4586V820.804H66.3806V823H58.1366ZM77.8791 816.628C77.8791 817.144 77.8611 817.642 77.8251 818.122C77.7891 818.59 77.7111 819.04 77.5911 819.472C77.4711 819.904 77.3031 820.312 77.0871 820.696C76.8831 821.08 76.6071 821.446 76.2591 821.794C75.7671 822.286 75.2031 822.652 74.5671 822.892C73.9311 823.12 73.2711 823.234 72.5871 823.234C71.9031 823.234 71.2431 823.12 70.6071 822.892C69.9711 822.652 69.4071 822.286 68.9151 821.794C68.5671 821.446 68.2851 821.08 68.0691 820.696C67.8651 820.312 67.7031 819.904 67.5831 819.472C67.4631 819.04 67.3851 818.59 67.3491 818.122C67.3131 817.642 67.2951 817.144 67.2951 816.628C67.2951 816.1 67.3131 815.602 67.3491 815.134C67.3851 814.654 67.4631 814.198 67.5831 813.766C67.7031 813.334 67.8651 812.926 68.0691 812.542C68.2851 812.158 68.5671 811.792 68.9151 811.444C69.4071 810.952 69.9711 810.592 70.6071 810.364C71.2431 810.124 71.9031 810.004 72.5871 810.004C73.2711 810.004 73.9311 810.124 74.5671 810.364C75.2031 810.592 75.7671 810.952 76.2591 811.444C76.6071 811.792 76.8831 812.158 77.0871 812.542C77.3031 812.926 77.4711 813.334 77.5911 813.766C77.7111 814.198 77.7891 814.654 77.8251 815.134C77.8611 815.602 77.8791 816.1 77.8791 816.628ZM75.5211 816.628C75.5211 816.34 75.5151 816.028 75.5031 815.692C75.4911 815.356 75.4551 815.026 75.3951 814.702C75.3351 814.366 75.2391 814.048 75.1071 813.748C74.9871 813.448 74.8191 813.184 74.6031 812.956C74.3511 812.68 74.0451 812.47 73.6851 812.326C73.3251 812.182 72.9591 812.11 72.5871 812.11C72.2151 812.11 71.8491 812.182 71.4891 812.326C71.1291 812.47 70.8231 812.68 70.5711 812.956C70.3551 813.184 70.1811 813.448 70.0491 813.748C69.9291 814.048 69.8391 814.366 69.7791 814.702C69.7191 815.026 69.6831 815.356 69.6711 815.692C69.6591 816.028 69.6531 816.34 69.6531 816.628C69.6531 816.916 69.6591 817.228 69.6711 817.564C69.6831 817.9 69.7191 818.23 69.7791 818.554C69.8391 818.878 69.9291 819.19 70.0491 819.49C70.1811 819.79 70.3551 820.054 70.5711 820.282C70.8231 820.558 71.1291 820.768 71.4891 820.912C71.8491 821.056 72.2151 821.128 72.5871 821.128C72.9591 821.128 73.3251 821.056 73.6851 820.912C74.0451 820.768 74.3511 820.558 74.6031 820.282C74.8191 820.054 74.9871 819.79 75.1071 819.49C75.2391 819.19 75.3351 818.878 75.3951 818.554C75.4551 818.23 75.4911 817.9 75.5031 817.564C75.5151 817.228 75.5211 816.916 75.5211 816.628ZM89.4328 818.932C89.3728 819.436 89.2468 819.934 89.0548 820.426C88.8628 820.906 88.5808 821.338 88.2088 821.722C87.7288 822.214 87.1708 822.592 86.5348 822.856C85.8988 823.108 85.2388 823.234 84.5548 823.234C83.8708 823.234 83.2168 823.12 82.5928 822.892C81.9808 822.664 81.4288 822.304 80.9368 821.812C80.5888 821.464 80.3068 821.098 80.0908 820.714C79.8868 820.33 79.7308 819.922 79.6228 819.49C79.5148 819.058 79.4428 818.602 79.4068 818.122C79.3708 817.642 79.3528 817.144 79.3528 816.628C79.3528 816.1 79.3708 815.602 79.4068 815.134C79.4428 814.654 79.5148 814.198 79.6228 813.766C79.7308 813.334 79.8868 812.926 80.0908 812.542C80.3068 812.158 80.5888 811.792 80.9368 811.444C81.4288 810.952 81.9808 810.592 82.5928 810.364C83.2168 810.124 83.8708 810.004 84.5548 810.004C85.2388 810.004 85.8988 810.13 86.5348 810.382C87.1708 810.622 87.7288 810.988 88.2088 811.48C88.5808 811.864 88.8628 812.296 89.0548 812.776C89.2468 813.256 89.3728 813.748 89.4328 814.252H87.0568C87.0328 813.976 86.9728 813.736 86.8768 813.532C86.7808 813.316 86.6488 813.106 86.4808 812.902C86.2768 812.638 86.0008 812.44 85.6528 812.308C85.3168 812.176 84.9508 812.11 84.5548 812.11C84.1828 812.11 83.8228 812.182 83.4748 812.326C83.1388 812.47 82.8448 812.68 82.5928 812.956C82.3768 813.184 82.2088 813.448 82.0888 813.748C81.9688 814.048 81.8788 814.366 81.8188 814.702C81.7708 815.026 81.7408 815.356 81.7288 815.692C81.7168 816.028 81.7108 816.34 81.7108 816.628C81.7108 816.916 81.7168 817.228 81.7288 817.564C81.7408 817.9 81.7708 818.236 81.8188 818.572C81.8788 818.896 81.9688 819.208 82.0888 819.508C82.2088 819.808 82.3768 820.072 82.5928 820.3C82.8448 820.576 83.1388 820.786 83.4748 820.93C83.8228 821.074 84.1828 821.146 84.5548 821.146C84.9508 821.146 85.3168 821.08 85.6528 820.948C86.0008 820.804 86.2768 820.6 86.4808 820.336C86.8168 819.928 87.0088 819.46 87.0568 818.932H89.4328ZM99.0075 823L98.1795 820.552H93.1035L92.2755 823H89.9355L94.4175 810.238H96.9555L101.438 823H99.0075ZM95.6415 813.082L93.8235 818.464H97.4595L95.6415 813.082ZM110.216 823L108.092 818.176H105.266V823H102.926V810.238H108.308C109.064 810.238 109.718 810.352 110.27 810.58C110.834 810.796 111.296 811.09 111.656 811.462C112.028 811.822 112.298 812.242 112.466 812.722C112.646 813.19 112.736 813.682 112.736 814.198C112.736 815.062 112.52 815.812 112.088 816.448C111.668 817.072 111.104 817.516 110.396 817.78L112.736 823H110.216ZM110.414 814.198C110.414 813.946 110.366 813.706 110.27 813.478C110.174 813.238 110.036 813.028 109.856 812.848C109.676 812.668 109.454 812.53 109.19 812.434C108.926 812.326 108.632 812.272 108.308 812.272H105.248V816.088H108.344C109.004 816.088 109.514 815.926 109.874 815.602C110.234 815.278 110.414 814.81 110.414 814.198ZM124.835 816.61C124.835 817.054 124.817 817.504 124.781 817.96C124.757 818.404 124.691 818.842 124.583 819.274C124.475 819.706 124.319 820.126 124.115 820.534C123.923 820.93 123.665 821.296 123.341 821.632C122.921 822.076 122.399 822.418 121.775 822.658C121.163 822.886 120.491 823 119.759 823H114.791V810.238H119.759C120.491 810.238 121.163 810.358 121.775 810.598C122.399 810.826 122.921 811.162 123.341 811.606C123.665 811.942 123.923 812.308 124.115 812.704C124.319 813.1 124.475 813.514 124.583 813.946C124.691 814.378 124.757 814.822 124.781 815.278C124.817 815.722 124.835 816.166 124.835 816.61ZM122.477 816.61C122.477 816.322 122.471 816.016 122.459 815.692C122.447 815.368 122.411 815.05 122.351 814.738C122.291 814.414 122.201 814.108 122.081 813.82C121.961 813.532 121.787 813.274 121.559 813.046C121.343 812.83 121.079 812.656 120.767 812.524C120.467 812.392 120.131 812.326 119.759 812.326H117.113V820.912H119.759C120.131 820.912 120.467 820.846 120.767 820.714C121.079 820.582 121.343 820.408 121.559 820.192C121.787 819.964 121.961 819.706 122.081 819.418C122.201 819.13 122.291 818.83 122.351 818.518C122.411 818.194 122.447 817.87 122.459 817.546C122.471 817.21 122.477 816.898 122.477 816.61ZM127.096 823V810.238H129.454V823H127.096ZM140.251 823L134.725 814.234V823H132.439V810.238H134.905L140.359 818.878V810.238H142.645V823H140.251ZM153.218 823L152.39 820.552H147.314L146.486 823H144.146L148.628 810.238H151.166L155.648 823H153.218ZM149.852 813.082L148.034 818.464H151.67L149.852 813.082ZM157.137 823V810.238H159.459V820.804H165.381V823H157.137ZM175.223 823L174.953 821.596C174.857 821.776 174.713 821.962 174.521 822.154C174.329 822.346 174.089 822.526 173.801 822.694C173.525 822.85 173.213 822.976 172.865 823.072C172.517 823.18 172.145 823.234 171.749 823.234C171.005 823.246 170.309 823.15 169.661 822.946C169.025 822.73 168.455 822.352 167.951 821.812C167.291 821.116 166.847 820.342 166.619 819.49C166.403 818.626 166.295 817.672 166.295 816.628C166.295 816.1 166.313 815.602 166.349 815.134C166.397 814.666 166.481 814.222 166.601 813.802C166.721 813.382 166.889 812.98 167.105 812.596C167.321 812.212 167.603 811.846 167.951 811.498C168.443 811.006 169.025 810.634 169.697 810.382C170.381 810.13 171.065 810.004 171.749 810.004C172.541 810.004 173.261 810.136 173.909 810.4C174.557 810.664 175.097 811.018 175.529 811.462C175.841 811.786 176.105 812.158 176.321 812.578C176.537 812.986 176.663 813.472 176.699 814.036H174.323C174.299 813.784 174.233 813.568 174.125 813.388C174.017 813.208 173.897 813.034 173.765 812.866C173.321 812.35 172.643 812.092 171.731 812.092C171.359 812.092 170.981 812.17 170.597 812.326C170.213 812.47 169.895 812.68 169.643 812.956C169.427 813.184 169.253 813.448 169.121 813.748C168.989 814.048 168.887 814.366 168.815 814.702C168.743 815.026 168.695 815.356 168.671 815.692C168.659 816.028 168.653 816.34 168.653 816.628C168.653 816.916 168.665 817.234 168.689 817.582C168.713 817.918 168.761 818.254 168.833 818.59C168.905 818.926 169.007 819.25 169.139 819.562C169.271 819.862 169.445 820.126 169.661 820.354C169.913 820.63 170.225 820.834 170.597 820.966C170.981 821.098 171.359 821.164 171.731 821.164C172.151 821.164 172.517 821.098 172.829 820.966C173.153 820.834 173.423 820.654 173.639 820.426C173.987 820.066 174.209 819.688 174.305 819.292C174.413 818.884 174.467 818.434 174.467 817.942H171.425V816.016H176.717V823H175.223ZM179.338 823V810.238H181.696V823H179.338ZM187.004 812.344V815.764H192.8V817.87H187.004V823H184.682V810.238H193.502V812.344H187.004ZM199.98 812.398V823H197.658V812.398H193.878V810.238H203.76V812.398H199.98ZM214.641 819.202C214.641 819.802 214.539 820.318 214.335 820.75C214.143 821.182 213.891 821.554 213.579 821.866C213.087 822.358 212.487 822.712 211.779 822.928C211.083 823.132 210.339 823.234 209.547 823.234C208.863 823.234 208.185 823.138 207.513 822.946C206.853 822.742 206.259 822.4 205.731 821.92C205.347 821.572 205.029 821.146 204.777 820.642C204.525 820.126 204.399 819.562 204.399 818.95H206.775C206.775 819.262 206.835 819.556 206.955 819.832C207.087 820.096 207.249 820.324 207.441 820.516C207.717 820.792 208.047 820.978 208.431 821.074C208.827 821.158 209.211 821.2 209.583 821.2C210.027 821.2 210.447 821.152 210.843 821.056C211.239 820.948 211.557 820.768 211.797 820.516C211.941 820.36 212.061 820.198 212.157 820.03C212.253 819.85 212.301 819.604 212.301 819.292C212.301 818.824 212.145 818.476 211.833 818.248C211.533 818.008 211.185 817.852 210.789 817.78C210.357 817.696 209.883 817.636 209.367 817.6C208.851 817.564 208.383 817.51 207.963 817.438C207.519 817.366 207.099 817.24 206.703 817.06C206.319 816.88 205.977 816.646 205.677 816.358C205.389 816.058 205.155 815.704 204.975 815.296C204.807 814.876 204.723 814.402 204.723 813.874C204.723 813.37 204.825 812.908 205.029 812.488C205.233 812.068 205.503 811.69 205.839 811.354C206.259 810.934 206.799 810.604 207.459 810.364C208.119 810.124 208.827 810.004 209.583 810.004C210.267 810.004 210.921 810.112 211.545 810.328C212.181 810.532 212.715 810.838 213.147 811.246C213.531 811.606 213.837 812.014 214.065 812.47C214.305 812.926 214.431 813.424 214.443 813.964H212.067C212.055 813.736 211.995 813.514 211.887 813.298C211.791 813.07 211.665 812.872 211.509 812.704C211.305 812.488 211.017 812.32 210.645 812.2C210.273 812.08 209.913 812.02 209.565 812.02C209.205 812.02 208.833 812.068 208.449 812.164C208.077 812.26 207.759 812.446 207.495 812.722C207.363 812.866 207.255 813.022 207.171 813.19C207.099 813.358 207.063 813.562 207.063 813.802C207.063 814.222 207.183 814.546 207.423 814.774C207.663 814.99 207.975 815.128 208.359 815.188C208.767 815.248 209.223 815.302 209.727 815.35C210.243 815.398 210.711 815.452 211.131 815.512C211.611 815.584 212.061 815.716 212.481 815.908C212.913 816.088 213.285 816.334 213.597 816.646C213.921 816.946 214.173 817.312 214.353 817.744C214.545 818.176 214.641 818.662 214.641 819.202ZM224.286 823V817.438H219.048V823H216.726V810.238H219.048V815.224H224.286V810.238H226.608V823H224.286ZM239.44 816.628C239.44 817.144 239.422 817.642 239.386 818.122C239.35 818.59 239.272 819.04 239.152 819.472C239.032 819.904 238.864 820.312 238.648 820.696C238.444 821.08 238.168 821.446 237.82 821.794C237.328 822.286 236.764 822.652 236.128 822.892C235.492 823.12 234.832 823.234 234.148 823.234C233.464 823.234 232.804 823.12 232.168 822.892C231.532 822.652 230.968 822.286 230.476 821.794C230.128 821.446 229.846 821.08 229.63 820.696C229.426 820.312 229.264 819.904 229.144 819.472C229.024 819.04 228.946 818.59 228.91 818.122C228.874 817.642 228.856 817.144 228.856 816.628C228.856 816.1 228.874 815.602 228.91 815.134C228.946 814.654 229.024 814.198 229.144 813.766C229.264 813.334 229.426 812.926 229.63 812.542C229.846 812.158 230.128 811.792 230.476 811.444C230.968 810.952 231.532 810.592 232.168 810.364C232.804 810.124 233.464 810.004 234.148 810.004C234.832 810.004 235.492 810.124 236.128 810.364C236.764 810.592 237.328 810.952 237.82 811.444C238.168 811.792 238.444 812.158 238.648 812.542C238.864 812.926 239.032 813.334 239.152 813.766C239.272 814.198 239.35 814.654 239.386 815.134C239.422 815.602 239.44 816.1 239.44 816.628ZM237.082 816.628C237.082 816.34 237.076 816.028 237.064 815.692C237.052 815.356 237.016 815.026 236.956 814.702C236.896 814.366 236.8 814.048 236.668 813.748C236.548 813.448 236.38 813.184 236.164 812.956C235.912 812.68 235.606 812.47 235.246 812.326C234.886 812.182 234.52 812.11 234.148 812.11C233.776 812.11 233.41 812.182 233.05 812.326C232.69 812.47 232.384 812.68 232.132 812.956C231.916 813.184 231.742 813.448 231.61 813.748C231.49 814.048 231.4 814.366 231.34 814.702C231.28 815.026 231.244 815.356 231.232 815.692C231.22 816.028 231.214 816.34 231.214 816.628C231.214 816.916 231.22 817.228 231.232 817.564C231.244 817.9 231.28 818.23 231.34 818.554C231.4 818.878 231.49 819.19 231.61 819.49C231.742 819.79 231.916 820.054 232.132 820.282C232.384 820.558 232.69 820.768 233.05 820.912C233.41 821.056 233.776 821.128 234.148 821.128C234.52 821.128 234.886 821.056 235.246 820.912C235.606 820.768 235.912 820.558 236.164 820.282C236.38 820.054 236.548 819.79 236.668 819.49C236.8 819.19 236.896 818.878 236.956 818.554C237.016 818.23 237.052 817.9 237.064 817.564C237.076 817.228 237.082 816.916 237.082 816.628ZM251.191 814.324C251.191 814.936 251.095 815.494 250.903 815.998C250.711 816.502 250.423 816.934 250.039 817.294C249.667 817.654 249.199 817.936 248.635 818.14C248.071 818.332 247.423 818.428 246.691 818.428H243.991V823H241.687V810.238H246.691C247.423 810.238 248.071 810.34 248.635 810.544C249.199 810.736 249.667 811.012 250.039 811.372C250.423 811.72 250.711 812.146 250.903 812.65C251.095 813.154 251.191 813.712 251.191 814.324ZM248.851 814.342C248.851 813.73 248.671 813.232 248.311 812.848C247.951 812.464 247.381 812.272 246.601 812.272H243.991V816.394H246.601C247.381 816.394 247.951 816.208 248.311 815.836C248.671 815.452 248.851 814.954 248.851 814.342ZM267.158 816.088C267.158 816.604 267.086 817.15 266.942 817.726C266.798 818.302 266.57 818.83 266.258 819.31C265.946 819.778 265.544 820.168 265.052 820.48C264.572 820.792 263.99 820.948 263.306 820.948C262.91 820.948 262.55 820.864 262.226 820.696C261.914 820.528 261.668 820.198 261.488 819.706C261.248 820.126 260.942 820.432 260.57 820.624C260.198 820.816 259.796 820.912 259.364 820.912C258.86 820.912 258.422 820.816 258.05 820.624C257.678 820.42 257.372 820.156 257.132 819.832C256.904 819.508 256.73 819.136 256.61 818.716C256.502 818.296 256.448 817.858 256.448 817.402C256.448 816.91 256.514 816.436 256.646 815.98C256.778 815.524 256.97 815.128 257.222 814.792C257.486 814.444 257.81 814.168 258.194 813.964C258.59 813.76 259.046 813.658 259.562 813.658C259.934 813.658 260.3 813.754 260.66 813.946C261.02 814.138 261.26 814.426 261.38 814.81L261.632 813.856H263.288L262.964 818.428C262.94 818.692 262.97 818.902 263.054 819.058C263.138 819.202 263.27 819.274 263.45 819.274C263.63 819.274 263.798 819.226 263.954 819.13C264.122 819.034 264.272 818.914 264.404 818.77C264.536 818.626 264.65 818.464 264.746 818.284C264.854 818.092 264.938 817.906 264.998 817.726C265.082 817.474 265.142 817.216 265.178 816.952C265.214 816.676 265.232 816.4 265.232 816.124C265.232 815.404 265.112 814.768 264.872 814.216C264.632 813.664 264.296 813.208 263.864 812.848C263.432 812.476 262.91 812.2 262.298 812.02C261.698 811.828 261.038 811.732 260.318 811.732C259.442 811.732 258.65 811.87 257.942 812.146C257.246 812.41 256.652 812.788 256.16 813.28C255.68 813.772 255.308 814.366 255.044 815.062C254.792 815.746 254.666 816.502 254.666 817.33C254.666 818.074 254.786 818.77 255.026 819.418C255.266 820.066 255.608 820.63 256.052 821.11C256.508 821.578 257.054 821.95 257.69 822.226C258.326 822.49 259.034 822.622 259.814 822.622C260.51 822.622 261.218 822.58 261.938 822.496C262.658 822.412 263.432 822.226 264.26 821.938V823.666C263.552 823.93 262.838 824.116 262.118 824.224C261.398 824.332 260.624 824.386 259.796 824.386C258.704 824.386 257.72 824.2 256.844 823.828C255.968 823.468 255.218 822.97 254.594 822.334C253.982 821.686 253.508 820.924 253.172 820.048C252.848 819.172 252.686 818.218 252.686 817.186C252.686 816.106 252.872 815.128 253.244 814.252C253.616 813.364 254.138 812.608 254.81 811.984C255.482 811.348 256.28 810.862 257.204 810.526C258.14 810.178 259.172 810.004 260.3 810.004C261.236 810.004 262.118 810.136 262.946 810.4C263.786 810.652 264.518 811.03 265.142 811.534C265.766 812.038 266.258 812.674 266.618 813.442C266.978 814.198 267.158 815.08 267.158 816.088ZM261.254 817.042C261.254 816.538 261.152 816.118 260.948 815.782C260.756 815.434 260.408 815.26 259.904 815.26C259.64 815.26 259.412 815.326 259.22 815.458C259.04 815.578 258.89 815.74 258.77 815.944C258.65 816.148 258.56 816.376 258.5 816.628C258.452 816.88 258.428 817.138 258.428 817.402C258.428 817.642 258.452 817.876 258.5 818.104C258.548 818.32 258.62 818.512 258.716 818.68C258.824 818.848 258.956 818.986 259.112 819.094C259.28 819.19 259.478 819.238 259.706 819.238C259.994 819.238 260.234 819.178 260.426 819.058C260.63 818.938 260.792 818.776 260.912 818.572C261.032 818.368 261.116 818.134 261.164 817.87C261.224 817.606 261.254 817.33 261.254 817.042ZM277.791 823L277.521 821.596C277.425 821.776 277.281 821.962 277.089 822.154C276.897 822.346 276.657 822.526 276.369 822.694C276.093 822.85 275.781 822.976 275.433 823.072C275.085 823.18 274.713 823.234 274.317 823.234C273.573 823.246 272.877 823.15 272.229 822.946C271.593 822.73 271.023 822.352 270.519 821.812C269.859 821.116 269.415 820.342 269.187 819.49C268.971 818.626 268.863 817.672 268.863 816.628C268.863 816.1 268.881 815.602 268.917 815.134C268.965 814.666 269.049 814.222 269.169 813.802C269.289 813.382 269.457 812.98 269.673 812.596C269.889 812.212 270.171 811.846 270.519 811.498C271.011 811.006 271.593 810.634 272.265 810.382C272.949 810.13 273.633 810.004 274.317 810.004C275.109 810.004 275.829 810.136 276.477 810.4C277.125 810.664 277.665 811.018 278.097 811.462C278.409 811.786 278.673 812.158 278.889 812.578C279.105 812.986 279.231 813.472 279.267 814.036H276.891C276.867 813.784 276.801 813.568 276.693 813.388C276.585 813.208 276.465 813.034 276.333 812.866C275.889 812.35 275.211 812.092 274.299 812.092C273.927 812.092 273.549 812.17 273.165 812.326C272.781 812.47 272.463 812.68 272.211 812.956C271.995 813.184 271.821 813.448 271.689 813.748C271.557 814.048 271.455 814.366 271.383 814.702C271.311 815.026 271.263 815.356 271.239 815.692C271.227 816.028 271.221 816.34 271.221 816.628C271.221 816.916 271.233 817.234 271.257 817.582C271.281 817.918 271.329 818.254 271.401 818.59C271.473 818.926 271.575 819.25 271.707 819.562C271.839 819.862 272.013 820.126 272.229 820.354C272.481 820.63 272.793 820.834 273.165 820.966C273.549 821.098 273.927 821.164 274.299 821.164C274.719 821.164 275.085 821.098 275.397 820.966C275.721 820.834 275.991 820.654 276.207 820.426C276.555 820.066 276.777 819.688 276.873 819.292C276.981 818.884 277.035 818.434 277.035 817.942H273.993V816.016H279.285V823H277.791ZM292.472 823V813.892L289.16 822.82H287.45L284.156 813.784V823H281.906V810.238H285.038L288.386 819.328L291.752 810.238H294.722V823H292.472ZM305.287 823L304.459 820.552H299.383L298.555 823H296.215L300.697 810.238H303.235L307.717 823H305.287ZM301.921 813.082L300.103 818.464H303.739L301.921 813.082ZM309.205 823V810.238H311.563V823H309.205ZM314.549 823V810.238H316.871V820.804H322.793V823H314.549ZM324.211 823V820.192H326.947V823H324.211ZM339.025 818.932C338.965 819.436 338.839 819.934 338.647 820.426C338.455 820.906 338.173 821.338 337.801 821.722C337.321 822.214 336.763 822.592 336.127 822.856C335.491 823.108 334.831 823.234 334.147 823.234C333.463 823.234 332.809 823.12 332.185 822.892C331.573 822.664 331.021 822.304 330.529 821.812C330.181 821.464 329.899 821.098 329.683 820.714C329.479 820.33 329.323 819.922 329.215 819.49C329.107 819.058 329.035 818.602 328.999 818.122C328.963 817.642 328.945 817.144 328.945 816.628C328.945 816.1 328.963 815.602 328.999 815.134C329.035 814.654 329.107 814.198 329.215 813.766C329.323 813.334 329.479 812.926 329.683 812.542C329.899 812.158 330.181 811.792 330.529 811.444C331.021 810.952 331.573 810.592 332.185 810.364C332.809 810.124 333.463 810.004 334.147 810.004C334.831 810.004 335.491 810.13 336.127 810.382C336.763 810.622 337.321 810.988 337.801 811.48C338.173 811.864 338.455 812.296 338.647 812.776C338.839 813.256 338.965 813.748 339.025 814.252H336.649C336.625 813.976 336.565 813.736 336.469 813.532C336.373 813.316 336.241 813.106 336.073 812.902C335.869 812.638 335.593 812.44 335.245 812.308C334.909 812.176 334.543 812.11 334.147 812.11C333.775 812.11 333.415 812.182 333.067 812.326C332.731 812.47 332.437 812.68 332.185 812.956C331.969 813.184 331.801 813.448 331.681 813.748C331.561 814.048 331.471 814.366 331.411 814.702C331.363 815.026 331.333 815.356 331.321 815.692C331.309 816.028 331.303 816.34 331.303 816.628C331.303 816.916 331.309 817.228 331.321 817.564C331.333 817.9 331.363 818.236 331.411 818.572C331.471 818.896 331.561 819.208 331.681 819.508C331.801 819.808 331.969 820.072 332.185 820.3C332.437 820.576 332.731 820.786 333.067 820.93C333.415 821.074 333.775 821.146 334.147 821.146C334.543 821.146 334.909 821.08 335.245 820.948C335.593 820.804 335.869 820.6 336.073 820.336C336.409 819.928 336.601 819.46 336.649 818.932H339.025ZM350.867 816.628C350.867 817.144 350.849 817.642 350.813 818.122C350.777 818.59 350.699 819.04 350.579 819.472C350.459 819.904 350.291 820.312 350.075 820.696C349.871 821.08 349.595 821.446 349.247 821.794C348.755 822.286 348.191 822.652 347.555 822.892C346.919 823.12 346.259 823.234 345.575 823.234C344.891 823.234 344.231 823.12 343.595 822.892C342.959 822.652 342.395 822.286 341.903 821.794C341.555 821.446 341.273 821.08 341.057 820.696C340.853 820.312 340.691 819.904 340.571 819.472C340.451 819.04 340.373 818.59 340.337 818.122C340.301 817.642 340.283 817.144 340.283 816.628C340.283 816.1 340.301 815.602 340.337 815.134C340.373 814.654 340.451 814.198 340.571 813.766C340.691 813.334 340.853 812.926 341.057 812.542C341.273 812.158 341.555 811.792 341.903 811.444C342.395 810.952 342.959 810.592 343.595 810.364C344.231 810.124 344.891 810.004 345.575 810.004C346.259 810.004 346.919 810.124 347.555 810.364C348.191 810.592 348.755 810.952 349.247 811.444C349.595 811.792 349.871 812.158 350.075 812.542C350.291 812.926 350.459 813.334 350.579 813.766C350.699 814.198 350.777 814.654 350.813 815.134C350.849 815.602 350.867 816.1 350.867 816.628ZM348.509 816.628C348.509 816.34 348.503 816.028 348.491 815.692C348.479 815.356 348.443 815.026 348.383 814.702C348.323 814.366 348.227 814.048 348.095 813.748C347.975 813.448 347.807 813.184 347.591 812.956C347.339 812.68 347.033 812.47 346.673 812.326C346.313 812.182 345.947 812.11 345.575 812.11C345.203 812.11 344.837 812.182 344.477 812.326C344.117 812.47 343.811 812.68 343.559 812.956C343.343 813.184 343.169 813.448 343.037 813.748C342.917 814.048 342.827 814.366 342.767 814.702C342.707 815.026 342.671 815.356 342.659 815.692C342.647 816.028 342.641 816.34 342.641 816.628C342.641 816.916 342.647 817.228 342.659 817.564C342.671 817.9 342.707 818.23 342.767 818.554C342.827 818.878 342.917 819.19 343.037 819.49C343.169 819.79 343.343 820.054 343.559 820.282C343.811 820.558 344.117 820.768 344.477 820.912C344.837 821.056 345.203 821.128 345.575 821.128C345.947 821.128 346.313 821.056 346.673 820.912C347.033 820.768 347.339 820.558 347.591 820.282C347.807 820.054 347.975 819.79 348.095 819.49C348.227 819.19 348.323 818.878 348.383 818.554C348.443 818.23 348.479 817.9 348.491 817.564C348.503 817.228 348.509 816.916 348.509 816.628ZM363.681 823V813.892L360.369 822.82H358.659L355.365 813.784V823H353.115V810.238H356.247L359.595 819.328L362.961 810.238H365.931V823H363.681Z" fill="#EEF0E4"/>
</svg>
