<svg width="390" height="844" viewBox="0 0 390 844" fill="none" xmlns="http://www.w3.org/2000/svg">
<rect width="390" height="844" fill="white"/>
<path d="M121.907 38.4709C129.603 38.4709 134.672 44.5759 134.672 51.9759C134.672 59.4869 129.603 65.5919 121.907 65.5919C114.248 65.5919 109.216 59.4869 109.216 51.9759C109.216 44.5759 114.248 38.4709 121.907 38.4709ZM121.907 59.7089C125.829 59.7089 128.345 56.4529 128.345 52.0499C128.345 47.6469 125.829 44.3169 121.907 44.3169C118.022 44.3169 115.506 47.6469 115.506 52.0499C115.506 56.4529 118.022 59.7089 121.907 59.7089Z" fill="#EEF0E4"/>
<path d="M150.584 39.0259C156.171 39.0259 159.168 43.2069 159.168 47.0919C159.168 51.0139 156.134 55.1579 150.584 55.1579H144.479V64.9999H138.374V39.0259H150.584ZM150.288 49.6449C152.027 49.6449 152.841 48.4239 152.841 47.0919C152.841 45.7599 152.027 44.5759 150.288 44.5759H144.479V49.6449H150.288Z" fill="#EEF0E4"/>
<path d="M168.616 59.4499H179.679V64.9999H162.511V39.0259H179.679V44.5759H168.616V49.1269H177.496V54.6769H168.616V59.4499Z" fill="#EEF0E4"/>
<path d="M184.118 64.9999V39.0259H189.372L199.473 53.2339V39.0259H205.578V64.9999H200.287L190.223 50.9769V64.9999H184.118Z" fill="#EEF0E4"/>
<path d="M216.853 39.0259V64.9999H210.748V39.0259H216.853Z" fill="#EEF0E4"/>
<path d="M222.022 64.9999V39.0259H227.276L237.377 53.2339V39.0259H243.482V64.9999H238.191L228.127 50.9769V64.9999H222.022Z" fill="#EEF0E4"/>
<path d="M270.148 50.3849V64.9999H265.523L264.931 62.4469C263.377 64.7409 260.972 65.5919 258.456 65.5919C253.054 65.5919 247.171 61.6329 247.171 52.2349C247.171 42.6149 253.35 38.4709 259.27 38.4709C263.932 38.4709 268.483 41.0609 269.852 46.0189L264.228 47.8319C263.784 45.6859 261.638 44.3169 259.381 44.3169C256.458 44.3169 253.35 46.5739 253.35 52.1979C253.35 57.9329 256.569 59.8939 259.455 59.8939C261.971 59.8939 264.228 58.3769 264.524 55.9349H258.308V50.3849H270.148Z" fill="#EEF0E4"/>
<path d="M49.1734 93.0559C49.1734 94.7579 50.9124 95.4239 53.0954 96.1269C56.6104 97.2739 61.1984 98.5319 61.1984 104.267C61.1984 109.928 56.7584 112.592 52.2444 112.592C47.8414 112.592 43.2904 110.039 42.4024 104.711L48.3224 103.083C48.5074 105.969 50.5794 107.079 52.3184 107.079C53.7614 107.079 55.1304 106.154 55.1304 104.637C55.1304 102.898 53.3174 102.121 50.9864 101.344C48.1374 100.382 43.3644 99.0499 43.3644 93.3149C43.3644 87.9499 47.5454 85.4709 51.6894 85.4709C55.2784 85.4709 59.0894 87.3579 60.3844 91.3539L55.1304 93.3149C54.7974 91.6129 53.0954 90.7989 51.7634 90.7989C50.4314 90.7989 49.1734 91.6129 49.1734 93.0559Z" fill="#EEF0E4"/>
<path d="M71.2017 106.45H82.2647V112H65.0967V86.0259H82.2647V91.5759H71.2017V96.1269H80.0817V101.677H71.2017V106.45Z" fill="#EEF0E4"/>
<path d="M98.9141 86.0259C104.501 86.0259 107.498 90.2069 107.498 94.0919C107.498 98.0139 104.464 102.158 98.9141 102.158H92.8091V112H86.7041V86.0259H98.9141ZM98.6181 96.6449C100.357 96.6449 101.171 95.4239 101.171 94.0919C101.171 92.7599 100.357 91.5759 98.6181 91.5759H92.8091V96.6449H98.6181Z" fill="#EEF0E4"/>
<path d="M116.28 91.5759H108.806V86.0259H129.822V91.5759H122.348V112H116.28V91.5759Z" fill="#EEF0E4"/>
<path d="M139.059 106.45H150.122V112H132.954V86.0259H150.122V91.5759H139.059V96.1269H147.939V101.677H139.059V106.45Z" fill="#EEF0E4"/>
<path d="M165.588 108.744L160.667 99.1239V112H154.562V86.0259H160.038L167.919 101.455L175.8 86.0259H181.276V112H175.208V99.1239L170.25 108.744H165.588Z" fill="#EEF0E4"/>
<path d="M202.192 97.8289C204.967 98.902 206.41 101.344 206.41 103.934C206.41 107.782 203.228 112 197.308 112H186.467V86.0259H197.012C202.562 86.0259 205.078 89.6149 205.078 92.9079C205.078 95.0539 203.968 96.867 202.192 97.8289ZM192.572 95.9789H196.494C198.048 95.9789 198.825 94.8689 198.825 93.7959C198.825 92.6859 198.048 91.5759 196.42 91.5759H192.572V95.9789ZM197.197 106.45C199.121 106.45 200.12 105.007 200.12 103.675C200.12 102.343 199.195 101.048 197.197 101.048H192.572V106.45H197.197Z" fill="#EEF0E4"/>
<path d="M216.203 106.45H227.266V112H210.098V86.0259H227.266V91.5759H216.203V96.1269H225.083V101.677H216.203V106.45Z" fill="#EEF0E4"/>
<path d="M246.542 100.641L253.572 112H246.468L240.548 102.158H237.81V112H231.705V86.0259H243.693C249.28 86.0259 252.092 89.6889 252.092 93.3889C252.092 96.4599 250.205 99.5309 246.542 100.641ZM243.027 96.6449C244.914 96.6449 245.839 95.3129 245.839 94.0549C245.839 92.7969 244.988 91.5759 243.249 91.5759H237.81V96.6449H243.027Z" fill="#EEF0E4"/>
<path d="M271.502 106.228H281.714V112H263.658V106.968C270.651 101.677 275.387 98.4579 275.387 94.7579C275.387 92.6859 274.018 91.4279 271.946 91.4279C269.726 91.4279 268.135 92.9079 268.135 95.1649C268.135 95.4979 268.172 95.7939 268.209 96.0899L263.288 96.3489C263.214 95.9419 263.214 95.7199 263.214 95.4609C263.214 88.7269 268.061 86.0259 272.464 86.0259C276.83 86.0259 280.863 88.7269 280.863 93.9439C280.863 98.9389 277.163 101.862 271.502 106.228Z" fill="#EEF0E4"/>
<path d="M293.843 86.0259C300.466 86.0259 304.092 91.6129 304.092 99.3459C304.092 107.042 300.466 112.592 293.843 112.592C287.183 112.592 283.557 107.042 283.557 99.3459C283.557 91.6129 287.183 86.0259 293.843 86.0259ZM293.843 107.079C296.692 107.079 298.246 104.711 298.246 99.3459C298.246 93.9069 296.692 91.5759 293.843 91.5759C290.994 91.5759 289.44 93.9069 289.44 99.3459C289.44 104.711 290.994 107.079 293.843 107.079Z" fill="#EEF0E4"/>
<path d="M314.609 106.228H324.821V112H306.765V106.968C313.758 101.677 318.494 98.4579 318.494 94.7579C318.494 92.6859 317.125 91.4279 315.053 91.4279C312.833 91.4279 311.242 92.9079 311.242 95.1649C311.242 95.4979 311.279 95.7939 311.316 96.0899L306.395 96.3489C306.321 95.9419 306.321 95.7199 306.321 95.4609C306.321 88.7269 311.168 86.0259 315.571 86.0259C319.937 86.0259 323.97 88.7269 323.97 93.9439C323.97 98.9389 320.27 101.862 314.609 106.228Z" fill="#EEF0E4"/>
<path d="M338.902 96.6449C343.379 96.7559 346.043 99.6049 346.043 103.601C346.043 109.262 341.196 112.592 336.312 112.592C332.501 112.592 328.653 110.557 327.025 106.08L332.353 104.082C333.019 106.08 334.758 107.079 336.534 107.079C338.384 107.079 340.16 105.932 340.16 103.823C340.16 101.64 338.384 100.789 336.497 100.789C335.202 100.789 333.87 101.196 333.019 101.899L330.762 98.1249L337.533 92.1679H327.913V86.4329H344.748V91.8349L338.902 96.6449Z" fill="#EEF0E4"/>
<path d="M154.324 177.426L141.714 171.862V170.042L154.324 163.75V166.792L145.64 170.822L154.324 174.384V177.426Z" fill="#EEF0E4"/>
<path d="M166.29 170.666C167.798 171.212 169.462 172.59 169.462 175.112C169.462 178.622 166.368 180.416 162.884 180.416C159.348 180.416 156.254 178.622 156.254 175.112C156.254 172.59 157.918 171.212 159.452 170.666C157.866 170.12 156.592 168.846 156.592 166.792C156.592 163.698 159.27 161.748 162.884 161.748C166.472 161.748 169.15 163.698 169.15 166.792C169.15 168.846 167.85 170.12 166.29 170.666ZM162.884 165.544C161.61 165.544 160.726 166.09 160.726 167.156C160.726 168.17 161.532 168.95 162.884 168.95C164.184 168.95 165.042 168.17 165.042 167.156C165.042 166.09 164.106 165.544 162.884 165.544ZM162.884 176.568C164.314 176.568 165.328 175.866 165.328 174.618C165.328 173.344 164.366 172.59 162.884 172.59C161.376 172.59 160.414 173.344 160.414 174.618C160.414 175.866 161.402 176.568 162.884 176.568Z" fill="#EEF0E4"/>
<path d="M171.37 174.384L180.054 170.822L171.37 166.792V163.75L183.98 170.042V171.862L171.37 177.426V174.384Z" fill="#EEF0E4"/>
<path d="M217.597 177.426L204.987 171.862V170.042L217.597 163.75V166.792L208.913 170.822L217.597 174.384V177.426Z" fill="#EEF0E4"/>
<path d="M229.564 170.666C231.072 171.212 232.736 172.59 232.736 175.112C232.736 178.622 229.642 180.416 226.158 180.416C222.622 180.416 219.528 178.622 219.528 175.112C219.528 172.59 221.192 171.212 222.726 170.666C221.14 170.12 219.866 168.846 219.866 166.792C219.866 163.698 222.544 161.748 226.158 161.748C229.746 161.748 232.424 163.698 232.424 166.792C232.424 168.846 231.124 170.12 229.564 170.666ZM226.158 165.544C224.884 165.544 224 166.09 224 167.156C224 168.17 224.806 168.95 226.158 168.95C227.458 168.95 228.316 168.17 228.316 167.156C228.316 166.09 227.38 165.544 226.158 165.544ZM226.158 176.568C227.588 176.568 228.602 175.866 228.602 174.618C228.602 173.344 227.64 172.59 226.158 172.59C224.65 172.59 223.688 173.344 223.688 174.618C223.688 175.866 224.676 176.568 226.158 176.568Z" fill="#EEF0E4"/>
<path d="M234.643 174.384L243.327 170.822L234.643 166.792V163.75L247.253 170.042V171.862L234.643 177.426V174.384Z" fill="#EEF0E4"/>
<path d="M134.645 225.842L114.275 216.854V213.914L134.645 203.75V208.664L120.617 215.174L134.645 220.928V225.842Z" fill="#EEF0E4"/>
<path d="M153.976 214.922C156.412 215.804 159.1 218.03 159.1 222.104C159.1 227.774 154.102 230.672 148.474 230.672C142.762 230.672 137.764 227.774 137.764 222.104C137.764 218.03 140.452 215.804 142.93 214.922C140.368 214.04 138.31 211.982 138.31 208.664C138.31 203.666 142.636 200.516 148.474 200.516C154.27 200.516 158.596 203.666 158.596 208.664C158.596 211.982 156.496 214.04 153.976 214.922ZM148.474 206.648C146.416 206.648 144.988 207.53 144.988 209.252C144.988 210.89 146.29 212.15 148.474 212.15C150.574 212.15 151.96 210.89 151.96 209.252C151.96 207.53 150.448 206.648 148.474 206.648ZM148.474 224.456C150.784 224.456 152.422 223.322 152.422 221.306C152.422 219.248 150.868 218.03 148.474 218.03C146.038 218.03 144.484 219.248 144.484 221.306C144.484 223.322 146.08 224.456 148.474 224.456Z" fill="#EEF0E4"/>
<path d="M162.181 220.928L176.209 215.174L162.181 208.664V203.75L182.551 213.914V216.854L162.181 225.842V220.928Z" fill="#EEF0E4"/>
<path d="M226.766 225.842L206.396 216.854V213.914L226.766 203.75V208.664L212.738 215.174L226.766 220.928V225.842Z" fill="#EEF0E4"/>
<path d="M246.097 214.922C248.533 215.804 251.221 218.03 251.221 222.104C251.221 227.774 246.223 230.672 240.595 230.672C234.883 230.672 229.885 227.774 229.885 222.104C229.885 218.03 232.573 215.804 235.051 214.922C232.489 214.04 230.431 211.982 230.431 208.664C230.431 203.666 234.757 200.516 240.595 200.516C246.391 200.516 250.717 203.666 250.717 208.664C250.717 211.982 248.617 214.04 246.097 214.922ZM240.595 206.648C238.537 206.648 237.109 207.53 237.109 209.252C237.109 210.89 238.411 212.15 240.595 212.15C242.695 212.15 244.081 210.89 244.081 209.252C244.081 207.53 242.569 206.648 240.595 206.648ZM240.595 224.456C242.905 224.456 244.543 223.322 244.543 221.306C244.543 219.248 242.989 218.03 240.595 218.03C238.159 218.03 236.605 219.248 236.605 221.306C236.605 223.322 238.201 224.456 240.595 224.456Z" fill="#EEF0E4"/>
<path d="M254.302 220.928L268.33 215.174L254.302 208.664V203.75L274.672 213.914V216.854L254.302 225.842V220.928Z" fill="#EEF0E4"/>
<path d="M109.674 301.565L78.1494 287.655V283.105L109.674 267.375V274.98L87.9644 285.055L109.674 293.96V301.565Z" fill="#EEF0E4"/>
<path d="M139.592 284.665C143.362 286.03 147.522 289.475 147.522 295.78C147.522 304.555 139.787 309.04 131.077 309.04C122.237 309.04 114.502 304.555 114.502 295.78C114.502 289.475 118.662 286.03 122.497 284.665C118.532 283.3 115.347 280.115 115.347 274.98C115.347 267.245 122.042 262.37 131.077 262.37C140.047 262.37 146.742 267.245 146.742 274.98C146.742 280.115 143.492 283.3 139.592 284.665ZM131.077 271.86C127.892 271.86 125.682 273.225 125.682 275.89C125.682 278.425 127.697 280.375 131.077 280.375C134.327 280.375 136.472 278.425 136.472 275.89C136.472 273.225 134.132 271.86 131.077 271.86ZM131.077 299.42C134.652 299.42 137.187 297.665 137.187 294.545C137.187 291.36 134.782 289.475 131.077 289.475C127.307 289.475 124.902 291.36 124.902 294.545C124.902 297.665 127.372 299.42 131.077 299.42Z" fill="#EEF0E4"/>
<path d="M152.29 293.96L174 285.055L152.29 274.98V267.375L183.815 283.105V287.655L152.29 301.565V293.96Z" fill="#EEF0E4"/>
<path d="M236.628 301.565L205.102 287.655V283.105L236.628 267.375V274.98L214.917 285.055L236.628 293.96V301.565Z" fill="#EEF0E4"/>
<path d="M266.545 284.665C270.315 286.03 274.475 289.475 274.475 295.78C274.475 304.555 266.74 309.04 258.03 309.04C249.19 309.04 241.455 304.555 241.455 295.78C241.455 289.475 245.615 286.03 249.45 284.665C245.485 283.3 242.3 280.115 242.3 274.98C242.3 267.245 248.995 262.37 258.03 262.37C267 262.37 273.695 267.245 273.695 274.98C273.695 280.115 270.445 283.3 266.545 284.665ZM258.03 271.86C254.845 271.86 252.635 273.225 252.635 275.89C252.635 278.425 254.65 280.375 258.03 280.375C261.28 280.375 263.425 278.425 263.425 275.89C263.425 273.225 261.085 271.86 258.03 271.86ZM258.03 299.42C261.605 299.42 264.14 297.665 264.14 294.545C264.14 291.36 261.735 289.475 258.03 289.475C254.26 289.475 251.855 291.36 251.855 294.545C251.855 297.665 254.325 299.42 258.03 299.42Z" fill="#EEF0E4"/>
<path d="M279.243 293.96L300.953 285.055L279.243 274.98V267.375L310.768 283.105V287.655L279.243 301.565V293.96Z" fill="#EEF0E4"/>
<path d="M60.8208 378.445C57.6258 388.669 48.2538 394.136 38.8108 394.136C27.1668 394.136 15.5938 385.9 15.5938 368.15C15.5938 350.258 27.3798 342.093 38.8108 342.093C47.8278 342.093 56.6318 347.134 59.1167 356.577L48.3247 360.056C47.4727 355.938 43.4258 353.311 39.0948 353.311C33.5568 353.311 27.6637 357.571 27.6637 367.937C27.6637 378.374 33.4858 382.705 39.2368 382.705C44.2068 382.705 49.2477 379.439 50.3838 373.901L60.8208 378.445Z" fill="#EEF0E4"/>
<path d="M100.935 393L97.1012 382.989H78.3572L74.5232 393H61.5302L82.5462 343.158H92.9832L113.928 393H100.935ZM82.4042 372.41H93.0542L87.7292 358.423L82.4042 372.41Z" fill="#EEF0E4"/>
<path d="M148.066 371.203L161.556 393H147.924L136.564 374.114H131.31V393H119.595V343.158H142.599C153.32 343.158 158.716 350.187 158.716 357.287C158.716 363.18 155.095 369.073 148.066 371.203ZM141.321 363.535C144.942 363.535 146.717 360.979 146.717 358.565C146.717 356.151 145.084 353.808 141.747 353.808H131.31V363.535H141.321Z" fill="#EEF0E4"/>
<path d="M183.968 393H167.922V343.158H185.53C201.079 343.158 208.96 354.802 208.96 367.085C208.96 379.652 200.795 393 183.968 393ZM185.033 353.808H179.637V382.35H183.542C192.559 382.35 196.89 374.185 196.89 366.872C196.89 359.914 192.914 353.808 185.033 353.808Z" fill="#EEF0E4"/>
<path d="M227.756 343.158V393H216.041V343.158H227.756Z" fill="#EEF0E4"/>
<path d="M237.674 393V343.158H247.756L267.139 370.422V343.158H278.854V393H268.701L249.389 366.091V393H237.674Z" fill="#EEF0E4"/>
<path d="M323.92 393L320.086 382.989H301.342L297.508 393H284.515L305.531 343.158H315.968L336.913 393H323.92ZM305.389 372.41H316.039L310.714 358.423L305.389 372.41Z" fill="#EEF0E4"/>
<path d="M354.294 382.35H373.393V393H342.579V343.158H354.294V382.35Z" fill="#EEF0E4"/>
<path d="M62.0075 436.955V465H53.1325L51.9965 460.101C49.0145 464.503 44.3995 466.136 39.5715 466.136C29.2055 466.136 17.9165 458.539 17.9165 440.505C17.9165 422.045 29.7735 414.093 41.1335 414.093C50.0795 414.093 58.8125 419.063 61.4395 428.577L50.6475 432.056C49.7955 427.938 45.6775 425.311 41.3465 425.311C35.7375 425.311 29.7735 429.642 29.7735 440.434C29.7735 451.439 35.9505 455.202 41.4885 455.202C46.3165 455.202 50.6475 452.291 51.2155 447.605H39.2875V436.955H62.0075Z" fill="#EEF0E4"/>
<path d="M82.2547 415.158V465H70.5397V415.158H82.2547Z" fill="#EEF0E4"/>
<path d="M103.888 445.191V465H92.1725V415.158H124.336V425.808H103.888V434.541H120.289V445.191H103.888Z" fill="#EEF0E4"/>
<path d="M141.16 425.808H126.818V415.158H167.146V425.808H152.804V465H141.16V425.808Z" fill="#EEF0E4"/>
<path d="M197.169 428.648C197.169 431.914 200.506 433.192 204.695 434.541C211.44 436.742 220.244 439.156 220.244 450.161C220.244 461.024 211.724 466.136 203.062 466.136C194.613 466.136 185.88 461.237 184.176 451.013L195.536 447.889C195.891 453.427 199.867 455.557 203.204 455.557C205.973 455.557 208.6 453.782 208.6 450.871C208.6 447.534 205.121 446.043 200.648 444.552C195.181 442.706 186.022 440.15 186.022 429.145C186.022 418.85 194.045 414.093 201.997 414.093C208.884 414.093 216.197 417.714 218.682 425.382L208.6 429.145C207.961 425.879 204.695 424.317 202.139 424.317C199.583 424.317 197.169 425.879 197.169 428.648Z" fill="#EEF0E4"/>
<path d="M257.118 434.683V415.158H268.833V465H257.118V445.333H239.439V465H227.724V415.158H239.439V434.683H257.118Z" fill="#EEF0E4"/>
<path d="M300.269 414.093C315.037 414.093 324.764 425.808 324.764 440.008C324.764 454.421 315.037 466.136 300.269 466.136C285.572 466.136 275.916 454.421 275.916 440.008C275.916 425.808 285.572 414.093 300.269 414.093ZM300.269 454.847C307.795 454.847 312.623 448.599 312.623 440.15C312.623 431.701 307.795 425.311 300.269 425.311C292.814 425.311 287.986 431.701 287.986 440.15C287.986 448.599 292.814 454.847 300.269 454.847Z" fill="#EEF0E4"/>
<path d="M355.297 415.158C366.018 415.158 371.769 423.181 371.769 430.636C371.769 438.162 365.947 446.114 355.297 446.114H343.582V465H331.867V415.158H355.297ZM354.729 435.535C358.066 435.535 359.628 433.192 359.628 430.636C359.628 428.08 358.066 425.808 354.729 425.808H343.582V435.535H354.729Z" fill="#EEF0E4"/>
<path d="M55.8785 529L53.8805 523.783H44.1125L42.1145 529H35.3435L46.2955 503.026H51.7345L62.6495 529H55.8785ZM46.2215 518.27H51.7715L48.9965 510.981L46.2215 518.27Z" fill="#EEF0E4"/>
<path d="M77.8126 503.026C83.3996 503.026 86.3966 507.207 86.3966 511.092C86.3966 515.014 83.3626 519.158 77.8126 519.158H71.7076V529H65.6026V503.026H77.8126ZM77.5166 513.645C79.2556 513.645 80.0696 512.424 80.0696 511.092C80.0696 509.76 79.2556 508.576 77.5166 508.576H71.7076V513.645H77.5166Z" fill="#EEF0E4"/>
<path d="M101.949 503.026C107.536 503.026 110.533 507.207 110.533 511.092C110.533 515.014 107.499 519.158 101.949 519.158H95.8443V529H89.7393V503.026H101.949ZM101.653 513.645C103.392 513.645 104.206 512.424 104.206 511.092C104.206 509.76 103.392 508.576 101.653 508.576H95.8443V513.645H101.653Z" fill="#EEF0E4"/>
<path d="M128.505 529L126.507 523.783H116.739L114.741 529H107.97L118.922 503.026H124.361L135.276 529H128.505ZM118.848 518.27H124.398L121.623 510.981L118.848 518.27Z" fill="#EEF0E4"/>
<path d="M153.067 517.641L160.097 529H152.993L147.073 519.158H144.335V529H138.23V503.026H150.218C155.805 503.026 158.617 506.689 158.617 510.389C158.617 513.46 156.73 516.531 153.067 517.641ZM149.552 513.645C151.439 513.645 152.364 512.313 152.364 511.055C152.364 509.797 151.513 508.576 149.774 508.576H144.335V513.645H149.552Z" fill="#EEF0E4"/>
<path d="M169.519 523.45H180.582V529H163.414V503.026H180.582V508.576H169.519V513.127H178.399V518.677H169.519V523.45Z" fill="#EEF0E4"/>
<path d="M191.127 523.45H201.08V529H185.022V503.026H191.127V523.45Z" fill="#EEF0E4"/>
<path d="M221.073 502.212C222.504 502.212 223.774 502.434 224.884 502.878C225.994 503.322 226.87 503.976 227.511 504.839C228.153 505.678 228.473 506.714 228.473 507.947C228.473 509.649 227.968 511.08 226.956 512.239C225.945 513.398 224.687 514.41 223.182 515.273L228.325 520.268C228.819 519.429 229.25 518.554 229.62 517.641C229.99 516.704 230.299 515.766 230.545 514.829H236.28C235.91 516.21 235.368 517.69 234.652 519.269C233.937 520.848 233.024 522.328 231.914 523.709L237.353 529H230.545L228.473 526.965C227.931 527.335 227.363 527.668 226.771 527.964C226.179 528.26 225.563 528.519 224.921 528.741C224.28 528.938 223.602 529.086 222.886 529.185C222.171 529.308 221.431 529.37 220.666 529.37C218.668 529.37 216.954 529.062 215.523 528.445C214.093 527.804 212.995 526.916 212.23 525.781C211.466 524.646 211.083 523.339 211.083 521.859C211.083 520.601 211.268 519.528 211.638 518.64C212.033 517.727 212.588 516.938 213.303 516.272C214.043 515.581 214.919 514.952 215.93 514.385C215.289 513.645 214.771 512.954 214.376 512.313C214.006 511.647 213.735 510.993 213.562 510.352C213.414 509.711 213.34 509.032 213.34 508.317C213.34 507.059 213.661 505.974 214.302 505.061C214.968 504.148 215.881 503.445 217.04 502.952C218.224 502.459 219.569 502.212 221.073 502.212ZM219.149 517.678C218.681 518.023 218.274 518.381 217.928 518.751C217.608 519.121 217.349 519.516 217.151 519.935C216.979 520.354 216.892 520.823 216.892 521.341C216.892 522.402 217.287 523.24 218.076 523.857C218.866 524.449 219.852 524.745 221.036 524.745C221.826 524.745 222.566 524.646 223.256 524.449C223.947 524.252 224.576 523.98 225.143 523.635L219.149 517.678ZM221.036 506.467C220.42 506.467 219.828 506.627 219.26 506.948C218.718 507.244 218.446 507.824 218.446 508.687C218.446 509.304 218.594 509.896 218.89 510.463C219.211 511.03 219.63 511.61 220.148 512.202C221.184 511.635 221.974 511.067 222.516 510.5C223.084 509.933 223.367 509.279 223.367 508.539C223.367 507.799 223.121 507.269 222.627 506.948C222.134 506.627 221.604 506.467 221.036 506.467Z" fill="#EEF0E4"/>
<path d="M264.15 513.201V503.026H270.255V529H264.15V518.751H254.937V529H248.832V503.026H254.937V513.201H264.15Z" fill="#EEF0E4"/>
<path d="M286.637 502.471C294.333 502.471 299.402 508.576 299.402 515.976C299.402 523.487 294.333 529.592 286.637 529.592C278.978 529.592 273.946 523.487 273.946 515.976C273.946 508.576 278.978 502.471 286.637 502.471ZM286.637 523.709C290.559 523.709 293.075 520.453 293.075 516.05C293.075 511.647 290.559 508.317 286.637 508.317C282.752 508.317 280.236 511.647 280.236 516.05C280.236 520.453 282.752 523.709 286.637 523.709Z" fill="#EEF0E4"/>
<path d="M314.13 525.744L309.209 516.124V529H303.104V503.026H308.58L316.461 518.455L324.342 503.026H329.818V529H323.75V516.124L318.792 525.744H314.13Z" fill="#EEF0E4"/>
<path d="M341.114 523.45H352.177V529H335.009V503.026H352.177V508.576H341.114V513.127H349.994V518.677H341.114V523.45Z" fill="#EEF0E4"/>
<path d="M163.035 561.96L157.855 570.24V576H154.575V570.24L149.395 561.96H153.255L156.215 567.16L159.155 561.96H163.035Z" fill="#EEF0E4"/>
<path d="M169.606 561.66C173.766 561.66 176.506 564.96 176.506 568.96C176.506 573.02 173.766 576.32 169.606 576.32C165.466 576.32 162.746 573.02 162.746 568.96C162.746 564.96 165.466 561.66 169.606 561.66ZM169.606 573.14C171.726 573.14 173.086 571.38 173.086 569C173.086 566.62 171.726 564.82 169.606 564.82C167.506 564.82 166.146 566.62 166.146 569C166.146 571.38 167.506 573.14 169.606 573.14Z" fill="#EEF0E4"/>
<path d="M189.427 561.96V570.72C189.427 573.92 187.407 576.32 183.867 576.32C180.307 576.32 178.307 573.92 178.307 570.72V561.96H181.567V570.56C181.567 571.96 182.247 573.14 183.867 573.14C185.487 573.14 186.167 571.96 186.167 570.56V561.96H189.427Z" fill="#EEF0E4"/>
<path d="M206.142 576L205.062 573.18H199.782L198.702 576H195.042L200.962 561.96H203.902L209.802 576H206.142ZM200.922 570.2H203.922L202.422 566.26L200.922 570.2Z" fill="#EEF0E4"/>
<path d="M219.418 569.86L223.218 576H219.378L216.178 570.68H214.698V576H211.398V561.96H217.878C220.898 561.96 222.418 563.94 222.418 565.94C222.418 567.6 221.398 569.26 219.418 569.86ZM217.518 567.7C218.538 567.7 219.038 566.98 219.038 566.3C219.038 565.62 218.578 564.96 217.638 564.96H214.698V567.7H217.518Z" fill="#EEF0E4"/>
<path d="M228.311 573H234.291V576H225.011V561.96H234.291V564.96H228.311V567.42H233.111V570.42H228.311V573Z" fill="#EEF0E4"/>
<path d="M165.264 592.1V600H162.764L162.444 598.62C161.604 599.86 160.304 600.32 158.944 600.32C156.024 600.32 152.844 598.18 152.844 593.1C152.844 587.9 156.184 585.66 159.384 585.66C161.904 585.66 164.364 587.06 165.104 589.74L162.064 590.72C161.824 589.56 160.664 588.82 159.444 588.82C157.864 588.82 156.184 590.04 156.184 593.08C156.184 596.18 157.924 597.24 159.484 597.24C160.844 597.24 162.064 596.42 162.224 595.1H158.864V592.1H165.264Z" fill="#EEF0E4"/>
<path d="M170.967 597H176.947V600H167.667V585.96H176.947V588.96H170.967V591.42H175.767V594.42H170.967V597Z" fill="#EEF0E4"/>
<path d="M182.287 588.96H178.247V585.96H189.607V588.96H185.567V600H182.287V588.96Z" fill="#EEF0E4"/>
<path d="M194.631 588.96H190.591V585.96H201.951V588.96H197.911V600H194.631V588.96Z" fill="#EEF0E4"/>
<path d="M206.944 585.96V600H203.644V585.96H206.944Z" fill="#EEF0E4"/>
<path d="M209.738 600V585.96H212.578L218.038 593.64V585.96H221.338V600H218.478L213.038 592.42V600H209.738Z" fill="#EEF0E4"/>
<path d="M235.752 592.1V600H233.252L232.932 598.62C232.092 599.86 230.792 600.32 229.432 600.32C226.512 600.32 223.332 598.18 223.332 593.1C223.332 587.9 226.672 585.66 229.872 585.66C232.392 585.66 234.852 587.06 235.592 589.74L232.552 590.72C232.312 589.56 231.152 588.82 229.932 588.82C228.352 588.82 226.672 590.04 226.672 593.08C226.672 596.18 228.412 597.24 229.972 597.24C231.332 597.24 232.552 596.42 232.712 595.1H229.352V592.1H235.752Z" fill="#EEF0E4"/>
<path d="M175.328 618.86L178.308 609.96H181.808L176.768 624H173.908L168.848 609.96H172.328L175.328 618.86Z" fill="#EEF0E4"/>
<path d="M186.612 621H192.592V624H183.312V609.96H192.592V612.96H186.612V615.42H191.412V618.42H186.612V621Z" fill="#EEF0E4"/>
<path d="M203.012 617.86L206.812 624H202.972L199.772 618.68H198.292V624H194.992V609.96H201.472C204.492 609.96 206.012 611.94 206.012 613.94C206.012 615.6 204.992 617.26 203.012 617.86ZM201.112 615.7C202.132 615.7 202.632 614.98 202.632 614.3C202.632 613.62 202.172 612.96 201.232 612.96H198.292V615.7H201.112Z" fill="#EEF0E4"/>
<path d="M220.144 609.96L214.964 618.24V624H211.684V618.24L206.504 609.96H210.364L213.324 615.16L216.264 609.96H220.144Z" fill="#EEF0E4"/>
<path d="M162.605 637.76C162.605 638.68 163.545 639.04 164.725 639.42C166.625 640.04 169.105 640.72 169.105 643.82C169.105 646.88 166.705 648.32 164.265 648.32C161.885 648.32 159.425 646.94 158.945 644.06L162.145 643.18C162.245 644.74 163.365 645.34 164.305 645.34C165.085 645.34 165.825 644.84 165.825 644.02C165.825 643.08 164.845 642.66 163.585 642.24C162.045 641.72 159.465 641 159.465 637.9C159.465 635 161.725 633.66 163.965 633.66C165.905 633.66 167.965 634.68 168.665 636.84L165.825 637.9C165.645 636.98 164.725 636.54 164.005 636.54C163.285 636.54 162.605 636.98 162.605 637.76Z" fill="#EEF0E4"/>
<path d="M174.512 645H179.892V648H171.212V633.96H174.512V645Z" fill="#EEF0E4"/>
<path d="M185.196 645H191.176V648H181.896V633.96H191.176V636.96H185.196V639.42H189.996V642.42H185.196V645Z" fill="#EEF0E4"/>
<path d="M196.876 645H202.856V648H193.576V633.96H202.856V636.96H196.876V639.42H201.676V642.42H196.876V645Z" fill="#EEF0E4"/>
<path d="M211.855 633.96C214.875 633.96 216.495 636.22 216.495 638.32C216.495 640.44 214.855 642.68 211.855 642.68H208.555V648H205.255V633.96H211.855ZM211.695 639.7C212.635 639.7 213.075 639.04 213.075 638.32C213.075 637.6 212.635 636.96 211.695 636.96H208.555V639.7H211.695Z" fill="#EEF0E4"/>
<path d="M230.447 633.96L225.267 642.24V648H221.987V642.24L216.807 633.96H220.667L223.627 639.16L226.567 633.96H230.447Z" fill="#EEF0E4"/>
<path d="M28.975 687.616V683.09C31.145 683.09 32.571 682.346 33.594 680.579H37.686V702H32.726V687.089C31.641 687.492 30.246 687.616 28.975 687.616Z" fill="#EEF0E4"/>
<path d="M41.5688 687.616V683.09C43.7388 683.09 45.1648 682.346 46.1878 680.579H50.2798V702H45.3198V687.089C44.2348 687.492 42.8398 687.616 41.5688 687.616Z" fill="#EEF0E4"/>
<path d="M70.7785 694.436C70.7785 699.737 66.7485 702.496 62.5015 702.496C58.9985 702.496 55.4335 700.636 54.2865 697.226L58.7195 695.583C59.2155 697.04 60.8585 697.877 62.4085 697.877C64.2065 697.877 65.8805 696.761 65.8805 694.746C65.8805 692.731 64.4235 691.832 62.7185 691.832C61.3855 691.832 59.9595 692.452 59.2155 693.63L55.4025 692.111V680.579H69.2285V685.384H59.9905V688.856C61.1375 688.05 62.5635 687.647 63.8965 687.647C67.2755 687.647 70.7785 689.693 70.7785 694.436Z" fill="#EEF0E4"/>
<path d="M85.9542 686.128C85.9542 687.554 87.4112 688.112 89.2402 688.701C92.1852 689.662 96.0292 690.716 96.0292 695.521C96.0292 700.264 92.3092 702.496 88.5272 702.496C84.8382 702.496 81.0252 700.357 80.2812 695.893L85.2412 694.529C85.3962 696.947 87.1322 697.877 88.5892 697.877C89.7982 697.877 90.9452 697.102 90.9452 695.831C90.9452 694.374 89.4262 693.723 87.4732 693.072C85.0862 692.266 81.0872 691.15 81.0872 686.345C81.0872 681.85 84.5902 679.773 88.0622 679.773C91.0692 679.773 94.2622 681.354 95.3472 684.702L90.9452 686.345C90.6662 684.919 89.2402 684.237 88.1242 684.237C87.0082 684.237 85.9542 684.919 85.9542 686.128Z" fill="#EEF0E4"/>
<path d="M108.688 679.773C115.136 679.773 119.383 684.888 119.383 691.088C119.383 697.381 115.136 702.496 108.688 702.496C102.271 702.496 98.0554 697.381 98.0554 691.088C98.0554 684.888 102.271 679.773 108.688 679.773ZM108.688 697.567C111.974 697.567 114.082 694.839 114.082 691.15C114.082 687.461 111.974 684.671 108.688 684.671C105.433 684.671 103.325 687.461 103.325 691.15C103.325 694.839 105.433 697.567 108.688 697.567Z" fill="#EEF0E4"/>
<path d="M139.411 680.238V693.816C139.411 698.776 136.28 702.496 130.793 702.496C125.275 702.496 122.175 698.776 122.175 693.816V680.238H127.228V693.568C127.228 695.738 128.282 697.567 130.793 697.567C133.304 697.567 134.358 695.738 134.358 693.568V680.238H139.411Z" fill="#EEF0E4"/>
<path d="M147.991 684.888H141.729V680.238H159.337V684.888H153.075V702H147.991V684.888Z" fill="#EEF0E4"/>
<path d="M174.795 688.763V680.238H179.91V702H174.795V693.413H167.076V702H161.961V680.238H167.076V688.763H174.795Z" fill="#EEF0E4"/>
<path d="M200.144 679.773C206.592 679.773 210.839 684.888 210.839 691.088C210.839 697.381 206.592 702.496 200.144 702.496C193.727 702.496 189.511 697.381 189.511 691.088C189.511 684.888 193.727 679.773 200.144 679.773ZM200.144 697.567C203.43 697.567 205.538 694.839 205.538 691.15C205.538 687.461 203.43 684.671 200.144 684.671C196.889 684.671 194.781 687.461 194.781 691.15C194.781 694.839 196.889 697.567 200.144 697.567Z" fill="#EEF0E4"/>
<path d="M225.673 702L221.705 695.521L217.768 702H211.63L218.729 691.243L211.661 680.238H217.768L221.767 686.81L225.952 680.238H231.842L224.743 691.026L231.811 702H225.673Z" fill="#EEF0E4"/>
<path d="M239.581 693.351V702H234.466V680.238H248.509V684.888H239.581V688.701H246.742V693.351H239.581Z" fill="#EEF0E4"/>
<path d="M260.691 679.773C267.139 679.773 271.386 684.888 271.386 691.088C271.386 697.381 267.139 702.496 260.691 702.496C254.274 702.496 250.058 697.381 250.058 691.088C250.058 684.888 254.274 679.773 260.691 679.773ZM260.691 697.567C263.977 697.567 266.085 694.839 266.085 691.15C266.085 687.461 263.977 684.671 260.691 684.671C257.436 684.671 255.328 687.461 255.328 691.15C255.328 694.839 257.436 697.567 260.691 697.567Z" fill="#EEF0E4"/>
<path d="M286.919 692.483L292.809 702H286.857L281.897 693.754H279.603V702H274.488V680.238H284.532C289.213 680.238 291.569 683.307 291.569 686.407C291.569 688.98 289.988 691.553 286.919 692.483ZM283.974 689.135C285.555 689.135 286.33 688.019 286.33 686.965C286.33 685.911 285.617 684.888 284.16 684.888H279.603V689.135H283.974Z" fill="#EEF0E4"/>
<path d="M302.594 702H295.588V680.238H303.276C310.065 680.238 313.506 685.322 313.506 690.685C313.506 696.172 309.941 702 302.594 702ZM303.059 684.888H300.703V697.35H302.408C306.345 697.35 308.236 693.785 308.236 690.592C308.236 687.554 306.5 684.888 303.059 684.888Z" fill="#EEF0E4"/>
<path d="M327.385 686.128C327.385 687.554 328.842 688.112 330.671 688.701C333.616 689.662 337.46 690.716 337.46 695.521C337.46 700.264 333.74 702.496 329.958 702.496C326.269 702.496 322.456 700.357 321.712 695.893L326.672 694.529C326.827 696.947 328.563 697.877 330.02 697.877C331.229 697.877 332.376 697.102 332.376 695.831C332.376 694.374 330.857 693.723 328.904 693.072C326.517 692.266 322.518 691.15 322.518 686.345C322.518 681.85 326.021 679.773 329.493 679.773C332.5 679.773 335.693 681.354 336.778 684.702L332.376 686.345C332.097 684.919 330.671 684.237 329.555 684.237C328.439 684.237 327.385 684.919 327.385 686.128Z" fill="#EEF0E4"/>
<path d="M344.98 684.888H338.718V680.238H356.326V684.888H350.064V702H344.98V684.888Z" fill="#EEF0E4"/>
<path d="M357.413 702.217C355.801 702.217 354.623 701.008 354.623 699.427C354.623 697.846 355.801 696.637 357.413 696.637C358.963 696.637 360.172 697.846 360.172 699.427C360.172 701.008 358.963 702.217 357.413 702.217Z" fill="#EEF0E4"/>
<path d="M93.61 728.127C95.935 729.026 97.144 731.072 97.144 733.242C97.144 736.466 94.478 740 89.518 740H80.435V718.238H89.27C93.92 718.238 96.028 721.245 96.028 724.004C96.028 725.802 95.098 727.321 93.61 728.127ZM85.55 726.577H88.836C90.138 726.577 90.789 725.647 90.789 724.748C90.789 723.818 90.138 722.888 88.774 722.888H85.55V726.577ZM89.425 735.35C91.037 735.35 91.874 734.141 91.874 733.025C91.874 731.909 91.099 730.824 89.425 730.824H85.55V735.35H89.425Z" fill="#EEF0E4"/>
<path d="M112.665 730.483L118.555 740H112.603L107.643 731.754H105.349V740H100.234V718.238H110.278C114.959 718.238 117.315 721.307 117.315 724.407C117.315 726.98 115.734 729.553 112.665 730.483ZM109.72 727.135C111.301 727.135 112.076 726.019 112.076 724.965C112.076 723.911 111.363 722.888 109.906 722.888H105.349V727.135H109.72Z" fill="#EEF0E4"/>
<path d="M129.789 717.773C136.237 717.773 140.484 722.888 140.484 729.088C140.484 735.381 136.237 740.496 129.789 740.496C123.372 740.496 119.156 735.381 119.156 729.088C119.156 722.888 123.372 717.773 129.789 717.773ZM129.789 735.567C133.075 735.567 135.183 732.839 135.183 729.15C135.183 725.461 133.075 722.671 129.789 722.671C126.534 722.671 124.426 725.461 124.426 729.15C124.426 732.839 126.534 735.567 129.789 735.567Z" fill="#EEF0E4"/>
<path d="M152.978 717.773C159.426 717.773 163.673 722.888 163.673 729.088C163.673 735.381 159.426 740.496 152.978 740.496C146.561 740.496 142.345 735.381 142.345 729.088C142.345 722.888 146.561 717.773 152.978 717.773ZM152.978 735.567C156.264 735.567 158.372 732.839 158.372 729.15C158.372 725.461 156.264 722.671 152.978 722.671C149.723 722.671 147.615 725.461 147.615 729.15C147.615 732.839 149.723 735.567 152.978 735.567Z" fill="#EEF0E4"/>
<path d="M186.894 718.238L178.028 726.422L186.088 740H179.764L174.184 729.987L171.89 732.095V740H166.775V718.238H171.89V726.05L179.733 718.238H186.894Z" fill="#EEF0E4"/>
<path d="M194.474 735.35H202.813V740H189.359V718.238H194.474V735.35Z" fill="#EEF0E4"/>
<path d="M223.199 718.238L215.17 731.072V740H210.086V731.072L202.057 718.238H208.04L212.628 726.298L217.185 718.238H223.199Z" fill="#EEF0E4"/>
<path d="M225.536 740V718.238H229.938L238.401 730.142V718.238H243.516V740H239.083L230.651 728.251V740H225.536Z" fill="#EEF0E4"/>
<path d="M249.49 734.327C251.505 734.327 252.683 736.156 252.683 738.853C252.683 742.077 250.854 745.363 246.607 746.045V742.821C248.188 742.418 249.583 741.302 249.862 739.566C249.676 739.597 249.49 739.628 249.335 739.628C247.816 739.628 246.638 738.884 246.638 737.055C246.638 735.319 247.909 734.327 249.49 734.327Z" fill="#EEF0E4"/>
<path d="M262.621 740V718.238H267.023L275.486 730.142V718.238H280.601V740H276.168L267.736 728.251V740H262.621Z" fill="#EEF0E4"/>
<path d="M304.059 718.238L296.03 731.072V740H290.946V731.072L282.917 718.238H288.9L293.488 726.298L298.045 718.238H304.059Z" fill="#EEF0E4"/>
<path d="M159.681 763.616V759.09C161.851 759.09 163.277 758.346 164.3 756.579H168.392V778H163.432V763.089C162.347 763.492 160.952 763.616 159.681 763.616Z" fill="#EEF0E4"/>
<path d="M172.274 763.616V759.09C174.444 759.09 175.87 758.346 176.893 756.579H180.985V778H176.025V763.089C174.94 763.492 173.545 763.616 172.274 763.616Z" fill="#EEF0E4"/>
<path d="M191.657 773.164H200.213V778H185.085V773.784C190.944 769.351 194.912 766.654 194.912 763.554C194.912 761.818 193.765 760.764 192.029 760.764C190.169 760.764 188.836 762.004 188.836 763.895C188.836 764.174 188.867 764.422 188.898 764.67L184.775 764.887C184.713 764.546 184.713 764.36 184.713 764.143C184.713 758.501 188.774 756.238 192.463 756.238C196.121 756.238 199.5 758.501 199.5 762.872C199.5 767.057 196.4 769.506 191.657 773.164Z" fill="#EEF0E4"/>
<path d="M202.215 763.616V759.09C204.385 759.09 205.811 758.346 206.834 756.579H210.926V778H205.966V763.089C204.881 763.492 203.486 763.616 202.215 763.616Z" fill="#EEF0E4"/>
<path d="M222.9 778H217.63C217.63 773.691 218.777 766.747 224.264 761.384H214.034V756.579H230.092V760.516C223.799 765.91 222.9 772.544 222.9 778Z" fill="#EEF0E4"/>
<text fill="#EEF0E4" xml:space="preserve" style="white-space: pre" font-family="Akkurat-Bold" font-size="18" letter-spacing="0em"><tspan x="22.5762" y="823.21">HELLOCARDINALGIFTSHOP@GMAIL.COM</tspan></text>
</svg>
